<?xml version="1.0" standalone="no"?>
<!DOCTYPE svg PUBLIC "-//W3C//DTD SVG 1.1//EN" "http://www.w3.org/Graphics/SVG/1.1/DTD/svg11.dtd" >
<svg>
<metadata>
Created by FontForge 20120731 at Mon Dec 30 04:06:57 2019
 By www
Copyright (c) 2013 Ministry of Gender Equality &#38; Family. All Rights Reserved.
</metadata>
<defs>
<font id="Youth" horiz-adv-x="900" >
  <font-face 
    font-family="Youth"
    font-weight="400"
    font-stretch="normal"
    units-per-em="1000"
    panose-1="2 2 6 3 2 1 1 2 1 1"
    ascent="800"
    descent="-200"
    x-height="523"
    cap-height="671"
    bbox="-9 -248 918 810"
    underline-thickness="25"
    underline-position="-188"
    unicode-range="U+0020-FFE6"
  />
<missing-glyph horiz-adv-x="800" 
d="M100 -100v800h600v-800h-600zM150 -50h500v700h-500v-700z" />
    <glyph glyph-name=".notdef" horiz-adv-x="800" 
d="M100 -100v800h600v-800h-600zM150 -50h500v700h-500v-700z" />
    <glyph glyph-name="glyph1" horiz-adv-x="0" 
 />
    <glyph glyph-name="glyph2" horiz-adv-x="1000" 
 />
    <glyph glyph-name="space" unicode=" " horiz-adv-x="300" 
 />
    <glyph glyph-name="exclam" unicode="!" horiz-adv-x="389" 
d="M253 739l-17 -534h-83l-16 534h116zM250 -25h-110v116h110v-116z" />
    <glyph glyph-name="quotedbl" unicode="&#x22;" horiz-adv-x="481" 
d="M380 768l-11 -225h-87l-11 225h109zM211 768l-11 -225h-88l-10 225h109z" />
    <glyph glyph-name="numbersign" unicode="#" horiz-adv-x="556" 
d="M204 258h120l31 225h-121zM483 185h-82l-27 -201h-86l27 201h-121l-26 -201h-86l26 201h-71v73h81l30 225h-77v73h87l21 161h86l-21 -161h121l21 161h86l-21 -161h66v-73h-76l-31 -225h73v-73z" />
    <glyph glyph-name="dollar" unicode="$" horiz-adv-x="556" 
d="M315 406q31 -16 63 -34.5t57 -44.5q26 -25 42 -59t16 -80q0 -88 -49 -139t-129 -69v-69h-64v61q-4 0 -8 -0.5t-7 -0.5h-7.5h-6.5q-45 0 -87 9.5t-78 23.5l9 93q26 -14 71 -28t93 -14q3 0 5 -0.5t4 -0.5t4.5 0.5l7.5 1.5v263q-32 15 -64 32.5t-57 41.5q-26 24 -41.5 56
t-15.5 77q0 84 50.5 135t127.5 65v71h64v-67q36 -3 80 -9.5t70 -14.5l-9 -89q-34 15 -65.5 22t-75.5 8v-241zM251 637q-33 -14 -52.5 -37.5t-19.5 -63.5q0 -32 18 -54t54 -43v198zM315 76q33 18 51.5 43.5t18.5 61.5t-18 59.5t-52 46.5v-211z" />
    <glyph glyph-name="percent" unicode="%" horiz-adv-x="920" 
d="M697 359q49 0 83.5 -15.5t56.5 -42.5q22 -26 32 -62t10 -76q0 -41 -10 -76.5t-32 -60.5q-22 -26 -56.5 -40.5t-83.5 -14.5q-93 0 -137 56.5t-44 139.5q0 82 44 137t137 55zM697 32q25 0 40.5 14t23.5 34q8 21 10.5 44.5t2.5 42.5q0 18 -2.5 41t-10.5 43t-23.5 33.5
t-40.5 13.5t-40 -13.5t-23 -33.5q-9 -21 -11.5 -44.5t-2.5 -43.5q0 -21 2.5 -44.5t11.5 -42.5q8 -19 23 -31.5t40 -12.5zM708 730l-408 -759h-87l409 759h86zM219 730q49 0 83.5 -15.5t56.5 -42.5q21 -26 31 -62t10 -76q0 -42 -10 -77t-31 -61q-22 -26 -56.5 -40.5
t-83.5 -14.5q-47 0 -81 15t-57 42q-22 26 -33 62t-11 78q0 81 44.5 136.5t137.5 55.5zM219 402q25 0 40.5 14t23.5 34q8 21 10.5 44.5t2.5 43.5q0 18 -2.5 40.5t-10.5 42.5t-23.5 34t-40.5 14t-40 -13.5t-23 -33.5q-9 -20 -11.5 -43.5t-2.5 -44.5t2.5 -44.5t11.5 -42.5
q8 -20 23 -32.5t40 -12.5z" />
    <glyph glyph-name="ampersand" unicode="&#x26;" horiz-adv-x="722" 
d="M683 -16h-126l-59 70q-39 -44 -91.5 -63.5t-112.5 -19.5q-103 0 -165.5 55.5t-62.5 148.5q0 75 40 127t120 86q-15 19 -30 38.5t-27 41.5q-12 21 -19.5 44.5t-7.5 49.5q0 41 15 72.5t41 52.5t59.5 32t71.5 11q34 0 65.5 -10.5t56.5 -30.5q24 -20 39 -51t15 -71
q0 -34 -13.5 -63t-34.5 -54q-22 -24 -50 -44t-57 -34l151 -184q26 35 38.5 81.5t16.5 103.5h91q-6 -74 -29 -141t-55 -111zM304 426q18 9 37.5 22.5t34.5 31.5q16 17 26.5 37t10.5 44q0 50 -25.5 74t-61.5 24t-61.5 -26.5t-25.5 -74.5q0 -18 6 -36t16 -35t21 -32.5t22 -28.5
zM446 114l-174 216q-46 -30 -74 -62.5t-28 -85.5q0 -31 11 -56.5t31 -43.5q19 -18 44 -28t52 -10q48 0 80.5 21.5t57.5 48.5z" />
    <glyph glyph-name="quotesingle" unicode="'" horiz-adv-x="278" 
d="M194 763l-11 -225h-88l-11 225h110z" />
    <glyph glyph-name="parenleft" unicode="(" horiz-adv-x="333" 
d="M312 -145h-89q-83 106 -122 216t-39 239q0 133 38.5 239.5t122.5 214.5h89q-74 -108 -111 -214t-37 -240q0 -132 36.5 -240.5t111.5 -214.5z" />
    <glyph glyph-name="parenright" unicode=")" horiz-adv-x="333" 
d="M21 -145q74 106 111 214.5t37 240.5q0 134 -37.5 240t-110.5 214h89q83 -108 122 -214.5t39 -239.5q0 -129 -39.5 -239t-121.5 -216h-89z" />
    <glyph glyph-name="asterisk" unicode="*" horiz-adv-x="500" 
d="M472 537l-173 -36l119 -140l-78 -55l-89 156l-91 -156l-78 55l123 140l-175 36l27 91l167 -69l-17 177h93l-17 -176l163 68z" />
    <glyph glyph-name="plus" unicode="+" horiz-adv-x="600" 
d="M549 324h-205v-217h-88v217h-205v81h205v215h88v-215h205v-81z" />
    <glyph glyph-name="comma" unicode="," horiz-adv-x="278" 
d="M209 81l-83 -242h-88l60 242h111z" />
    <glyph glyph-name="hyphen" unicode="-" horiz-adv-x="450" 
d="M397 322h-344v83h344v-83z" />
    <glyph glyph-name="period" unicode="." horiz-adv-x="278" 
d="M194 -46h-110v120h110v-120z" />
    <glyph glyph-name="slash" unicode="/" horiz-adv-x="450" 
d="M394 741l-245 -811h-93l245 811h93z" />
    <glyph glyph-name="zero" unicode="0" horiz-adv-x="556" 
d="M468 603q25 -55 35 -124t10 -129q0 -62 -10.5 -131t-35.5 -123q-26 -54 -71.5 -91t-117.5 -37q-74 0 -120 37.5t-71 93.5q-24 55 -34 123t-10 128q0 62 10 131t36 124q25 54 71.5 91.5t117.5 37.5q73 0 118.5 -38.5t71.5 -92.5zM386 152q14 48 18 99.5t4 98.5
q0 40 -4.5 91t-17.5 101q-15 49 -39.5 81.5t-68.5 32.5q-40 0 -65.5 -31.5t-40.5 -79.5q-15 -49 -19.5 -100.5t-4.5 -94.5q0 -47 3.5 -98.5t17.5 -99.5q15 -48 40.5 -77.5t68.5 -29.5q44 0 69 29.5t39 77.5z" />
    <glyph glyph-name="one" unicode="1" horiz-adv-x="546" 
d="M358 -16h-101v627l-117 -89l-43 67l169 128h92v-733z" />
    <glyph glyph-name="two" unicode="2" horiz-adv-x="556" 
d="M495 -16h-444v104q9 9 23.5 22.5t31.5 29.5q16 15 33.5 31.5t32.5 32.5q32 33 68 71.5t66 79.5q30 42 50 85t20 86q0 54 -39.5 88t-94.5 34q-44 0 -87.5 -17.5t-73.5 -41.5l-32 71q38 30 94 49t113 19q98 0 160.5 -54t62.5 -153q0 -44 -19 -89t-47 -88q-29 -43 -62.5 -82
t-63.5 -70l-34 -34l-37 -37q-19 -18 -35.5 -33.5t-25.5 -24.5h340v-79z" />
    <glyph glyph-name="three" unicode="3" horiz-adv-x="556" 
d="M336 373q34 -6 64 -23t52 -42t35 -57t13 -67q0 -55 -24 -95.5t-63 -67.5q-40 -27 -91.5 -40t-106.5 -12q-51 -1 -97.5 9t-85.5 34l27 70q30 -17 72 -25.5t78 -8.5q34 0 67 8.5t59 25.5q26 18 42.5 44.5t16.5 62.5q0 37 -16 64t-43 44q-26 18 -60.5 26.5t-70.5 9.5h-58v79
h54q30 0 60.5 6.5t54.5 21.5t39 39t15 59q0 62 -42.5 89.5t-96.5 27.5q-36 -1 -74.5 -11t-65.5 -26l-33 68q38 22 87 35t97 13q45 0 87 -11t74 -34q33 -23 52.5 -58t19.5 -84q0 -66 -39.5 -110t-98.5 -64z" />
    <glyph glyph-name="four" unicode="4" horiz-adv-x="556" 
d="M532 129h-89v-145h-100v145h-323v84l277 504h146v-511h89v-77zM343 206v425l-229 -425h229z" />
    <glyph glyph-name="five" unicode="5" horiz-adv-x="556" 
d="M275 444q43 0 83 -15t71 -44q30 -28 49 -69t19 -93q0 -56 -20 -102.5t-56 -80.5q-35 -33 -84 -51.5t-106 -18.5q-48 0 -95.5 12t-83.5 36l28 70q30 -18 69.5 -28t75.5 -10q31 0 60.5 11t53.5 32q23 21 37.5 51t14.5 67q0 79 -48 118.5t-117 39.5q-38 0 -74 -8.5
t-63 -18.5l7 375h382v-77h-288l-4 -206q15 4 40 7t49 3z" />
    <glyph glyph-name="six" unicode="6" horiz-adv-x="556" 
d="M301 452q49 0 88 -18.5t65 -50.5q26 -31 40 -73.5t14 -90.5q0 -55 -16.5 -101t-46.5 -80q-30 -33 -71.5 -51.5t-90.5 -18.5q-71 0 -116 31.5t-70 83.5q-26 52 -35 117t-9 131q0 72 12.5 143.5t45.5 127.5q32 57 86.5 92.5t137.5 35.5q40 0 79 -10t70 -27l-27 -70
q-27 14 -55 21t-61 7q-51 0 -87.5 -23.5t-60.5 -62.5q-23 -39 -34.5 -89t-11.5 -104q29 38 70 59t84 21zM281 45q31 0 54 15t38 39t22.5 53.5t7.5 59.5q0 27 -7.5 56t-21.5 52q-15 24 -37 39.5t-52 15.5q-32 0 -55.5 -14t-39.5 -37q-15 -23 -23 -52t-8 -60q0 -28 7 -57.5
t22 -53.5q15 -25 38 -40.5t55 -15.5z" />
    <glyph glyph-name="seven" unicode="7" horiz-adv-x="556" 
d="M489 631l-254 -647h-110l268 655h-326v78h422v-86z" />
    <glyph glyph-name="eight" unicode="8" horiz-adv-x="556" 
d="M374 371q72 -28 108.5 -81.5t36.5 -113.5q0 -44 -16.5 -82t-47.5 -66q-31 -29 -76 -45t-102 -16t-102 16.5t-75 45.5q-31 28 -47 66t-16 81q0 59 34 112t108 83q-60 27 -88.5 71.5t-28.5 97.5q0 43 16 79t45 62q29 25 68 39.5t86 14.5q46 0 85.5 -14.5t69.5 -39.5
q29 -26 45.5 -62t16.5 -79q0 -54 -30 -98t-90 -71zM277 415q30 0 52 11t36 28q14 18 21 40t7 45q0 20 -7.5 41.5t-22.5 39.5q-14 18 -36 29.5t-50 11.5q-29 0 -50.5 -12t-35.5 -30t-21 -39.5t-7 -40.5q0 -22 7.5 -44t22.5 -40t36 -29t48 -11zM277 46q60 0 96 41.5t36 101.5
q0 27 -10.5 53t-27.5 46q-18 20 -42 32.5t-52 12.5t-52 -12t-41 -32q-18 -19 -28 -45.5t-10 -54.5q0 -29 9.5 -55t26.5 -45q17 -20 41 -31.5t54 -11.5z" />
    <glyph glyph-name="nine" unicode="9" horiz-adv-x="556" 
d="M271 730q71 0 116.5 -33.5t70.5 -86.5q26 -52 35.5 -116t9.5 -124q-1 -78 -16 -150t-49 -128q-33 -55 -87.5 -88.5t-132.5 -32.5q-38 -1 -76 9t-68 30l16 71q25 -15 58 -23t63 -8q48 0 84.5 23t61.5 60q25 38 37.5 86.5t14.5 99.5q-31 -34 -72 -51.5t-84 -17.5
q-48 0 -85.5 18t-63.5 50q-26 31 -39.5 73.5t-13.5 90.5q0 54 15.5 99.5t44.5 78.5q28 33 69 51.5t91 18.5zM271 328q31 0 54.5 13t39.5 35q15 22 23.5 50.5t8.5 60.5q0 27 -7.5 56t-22.5 54t-37.5 41t-53.5 16q-32 0 -55 -15t-37 -39q-15 -23 -21.5 -52.5t-6.5 -58.5
q0 -30 6.5 -59t20.5 -52q14 -22 35.5 -36t52.5 -14z" />
    <glyph glyph-name="colon" unicode=":" horiz-adv-x="278" 
d="M194 463h-110v121h110v-121zM194 -2h-110v121h110v-121z" />
    <glyph glyph-name="semicolon" unicode=";" horiz-adv-x="278" 
d="M194 465h-109v120h109v-120zM207 124l-82 -242h-89l61 242h110z" />
    <glyph glyph-name="less" unicode="&#x3c;" horiz-adv-x="540" 
d="M475 26l-417 302v74l417 301v-107l-330 -231l330 -232v-107z" />
    <glyph glyph-name="equal" unicode="=" horiz-adv-x="540" 
d="M477 439h-414v82h414v-82zM477 209h-414v84h414v-84z" />
    <glyph glyph-name="greater" unicode="&#x3e;" horiz-adv-x="540" 
d="M472 328l-417 -302v107l330 232l-330 231v107l417 -301v-74z" />
    <glyph glyph-name="question" unicode="?" horiz-adv-x="500" 
d="M242 731q40 0 79 -11.5t69 -34.5q31 -23 49.5 -57t18.5 -79q0 -33 -10 -60t-26 -52q-16 -24 -36 -47.5t-40 -48.5q-25 -31 -38 -57.5t-13 -59.5v-44h-93v46q0 48 19.5 86.5t44.5 70.5q13 16 28 33t28 36q12 18 20.5 39.5t8.5 47.5q0 57 -39 83t-86 26q-43 0 -81.5 -17
t-64.5 -41l-27 75q34 29 83 47.5t106 18.5zM304 -50h-110v121h110v-121z" />
    <glyph glyph-name="at" unicode="@" horiz-adv-x="800" 
d="M418 730q64 0 124 -21t107 -60q46 -39 74 -95t28 -126q0 -74 -26 -127.5t-62 -87.5q-37 -35 -78 -51t-72 -16q-21 0 -33.5 14.5t-13.5 44.5q-19 -27 -54.5 -42t-65.5 -15q-31 0 -57.5 12t-46.5 33q-20 22 -31 51t-11 63q0 48 15 93t42 80q28 34 66 55.5t85 21.5
q36 0 70 -20.5t50 -52.5l14 60h69l-64 -253q-7 -28 -5.5 -52t19.5 -24q22 0 44.5 14.5t41.5 41.5q18 27 30 64t12 81q0 63 -22.5 110t-60.5 77q-37 31 -86.5 46.5t-102.5 15.5q-65 0 -118.5 -24.5t-91.5 -65.5q-39 -41 -60 -96.5t-21 -118.5q0 -73 22 -129.5t61 -94.5
q39 -39 92.5 -59t116.5 -20q66 0 121 21t98 64h72q-45 -69 -123.5 -109.5t-170.5 -40.5q-74 0 -140.5 24t-116.5 71q-51 47 -80 115.5t-29 158.5q0 81 28.5 149t78.5 117t117 76t145 27zM369 221q28 0 51.5 15.5t41.5 40.5q17 24 27 54t10 59q0 39 -24 66t-59 27
q-30 0 -54.5 -15t-42.5 -39q-17 -23 -26.5 -52t-9.5 -56q0 -44 22.5 -72t63.5 -28z" />
    <glyph glyph-name="A" unicode="A" horiz-adv-x="722" 
d="M704 -16h-113l-72 198h-322l-74 -198h-105l288 733h112zM491 260l-132 368l-134 -368h266z" />
    <glyph glyph-name="B" unicode="B" horiz-adv-x="611" 
d="M402 369q75 -16 122.5 -63t47.5 -120q0 -58 -22 -96.5t-58 -62.5q-36 -23 -83 -33t-98 -10h-217v733h202q48 0 90.5 -10.5t74.5 -32.5q31 -23 49.5 -58t19.5 -84q0 -63 -33.5 -102.5t-94.5 -60.5zM266 405q27 0 56 4t53 16q24 13 39.5 36t15.5 61q0 33 -13 55.5t-33 36.5
q-21 13 -45.5 19t-47.5 6h-96v-234h71zM295 62q33 0 64 6t54 22q24 15 38.5 40t14.5 63q0 43 -16.5 69.5t-42.5 40.5q-26 15 -58.5 20t-64.5 5h-89v-266h100z" />
    <glyph glyph-name="C" unicode="C" horiz-adv-x="611" 
d="M574 85l22 -79q-33 -16 -77 -25.5t-92 -9.5q-84 0 -152 26.5t-117 75.5t-75.5 119.5t-26.5 157.5q0 84 27 154t76 120t117 78t151 28q46 0 88 -10.5t73 -28.5l-27 -77q-27 16 -59.5 24.5t-71.5 8.5q-61 0 -110.5 -23.5t-84.5 -64.5q-35 -40 -53.5 -94t-18.5 -115
q0 -64 20 -118t56 -93q36 -40 84 -62t104 -22q43 0 80 7t67 23z" />
    <glyph glyph-name="D" unicode="D" horiz-adv-x="722" 
d="M292 717q81 0 149 -23.5t117 -69.5q50 -45 77.5 -113t27.5 -156q0 -95 -26.5 -164.5t-74.5 -115.5q-49 -46 -117.5 -68.5t-152.5 -22.5h-199v733h199zM299 67q118 0 187.5 75t69.5 210q0 64 -19.5 116t-52.5 89q-34 36 -79.5 56.5t-97.5 20.5h-113v-567h105z" />
    <glyph glyph-name="E" unicode="E" horiz-adv-x="556" 
d="M485 -16h-391v733h391v-83h-290v-228h267v-85h-267v-254h290v-83z" />
    <glyph glyph-name="F" unicode="F" horiz-adv-x="500" 
d="M463 634h-268v-228h256v-85h-256v-337h-101v733h369v-83z" />
    <glyph glyph-name="G" unicode="G" horiz-adv-x="722" 
d="M642 388v-386q-36 -12 -88.5 -21.5t-124.5 -9.5q-84 0 -152.5 26t-117.5 75q-48 48 -74.5 118t-26.5 157q0 84 27 154.5t76 121.5q49 50 117.5 78.5t151.5 28.5q69 0 120 -12t92 -33l-30 -77q-35 18 -79 28.5t-96 10.5q-63 0 -113 -24t-86 -65q-35 -41 -54 -95.5
t-19 -115.5q0 -63 20 -117t55 -93q36 -39 84 -61t105 -22q24 0 41.5 1t30.5 3q12 2 22 4.5t20 4.5v237h-158v84h257z" />
    <glyph glyph-name="H" unicode="H" horiz-adv-x="722" 
d="M629 -16h-101v337h-334v-337h-101v733h101v-311h334v311h101v-733z" />
    <glyph glyph-name="I" unicode="I" horiz-adv-x="302" 
d="M201 -16h-100v733h100v-733z" />
    <glyph glyph-name="J" unicode="J" horiz-adv-x="389" 
d="M299 717v-557q0 -91 -51 -140t-140 -49q-21 0 -45.5 4t-36.5 8v86q12 -5 26 -8t32 -3q62 0 88 34t26 112v513h101z" />
    <glyph glyph-name="K" unicode="K" horiz-adv-x="667" 
d="M639 -16h-133l-240 339l-72 -80v-259h-101v733h101v-336l293 336h128l-283 -320z" />
    <glyph glyph-name="L" unicode="L" horiz-adv-x="500" 
d="M485 -16h-391v733h101v-650h290v-83z" />
    <glyph glyph-name="M" unicode="M" horiz-adv-x="904" 
d="M816 -16h-100v649l-213 -649h-101l-213 660v-660h-100v733h165l201 -624l197 624h164v-733z" />
    <glyph glyph-name="N" unicode="N" horiz-adv-x="736" 
d="M643 -16h-144l-308 628v-628h-98v733h145l306 -628v628h99v-733z" />
    <glyph glyph-name="O" unicode="O" horiz-adv-x="778" 
d="M389 730q79 0 141.5 -29.5t104.5 -80.5q43 -51 65.5 -120.5t22.5 -148.5q0 -81 -22.5 -150.5t-64.5 -120.5q-43 -51 -105 -80t-142 -29q-81 0 -143.5 28.5t-104.5 79.5q-43 51 -64.5 120.5t-21.5 151.5q0 80 22 149t64 120q43 51 105 80.5t143 29.5zM389 54q60 0 103 26
t71 68q27 42 40 95t13 108t-14 108t-42 95q-28 41 -70.5 67t-100.5 26q-59 0 -101.5 -26t-70.5 -67q-28 -42 -41.5 -95t-13.5 -108t12.5 -108t39.5 -95q28 -42 71 -68t104 -26z" />
    <glyph glyph-name="P" unicode="P" horiz-adv-x="608" 
d="M307 717q53 0 101.5 -11t85.5 -36q37 -24 59 -64.5t22 -99.5t-21 -99.5t-55 -66.5q-35 -25 -80.5 -36.5t-95.5 -11.5h-128v-308h-101v733h213zM322 374q27 0 53 6.5t46 21.5q21 15 33.5 40t12.5 63q0 71 -45.5 100t-109.5 29h-117v-260h127z" />
    <glyph glyph-name="Q" unicode="Q" horiz-adv-x="778" 
d="M563 19l113 -151h-121l-81 113q-19 -6 -40.5 -8t-44.5 -2q-81 0 -143.5 28.5t-104.5 79.5q-43 51 -64.5 120.5t-21.5 151.5q0 80 22 149t64 120q43 51 105 80.5t143 29.5q79 0 141.5 -29.5t104.5 -80.5q43 -51 65.5 -120.5t22.5 -148.5q0 -111 -41 -198.5t-119 -133.5z
M508 92q57 39 82.5 111t25.5 148q0 55 -14 108t-42 95q-28 41 -70.5 67t-100.5 26q-59 0 -101.5 -26t-70.5 -67q-28 -42 -41.5 -95t-13.5 -108t12.5 -108t39.5 -95q28 -42 71 -68t104 -26q8 0 16 0.5t15 2.5l-129 180h109z" />
    <glyph glyph-name="R" unicode="R" horiz-adv-x="611" 
d="M589 -16h-115l-99 244q-15 37 -39 56t-57 19h-84v-319h-101v733h172q57 0 107.5 -8t88.5 -29t60.5 -59t22.5 -98q0 -66 -43.5 -116.5t-112.5 -64.5q30 -12 51 -38.5t33 -53.5zM264 387q75 0 124.5 30.5t49.5 95.5q0 60 -40.5 90.5t-111.5 30.5h-91v-247h69z" />
    <glyph glyph-name="S" unicode="S" horiz-adv-x="556" 
d="M338 393q29 -15 57 -32.5t49 -41.5q22 -25 35.5 -57t13.5 -74q0 -57 -20.5 -98t-56.5 -68q-36 -26 -84.5 -38.5t-104.5 -12.5q-47 0 -94 17.5t-77 44.5l30 73q28 -24 67 -37.5t78 -13.5q23 0 50 7t50 23q23 15 38.5 39t15.5 57q0 31 -14 53.5t-36 40.5q-23 17 -51.5 31
t-57.5 28q-29 13 -56.5 29.5t-49.5 38.5q-21 23 -34 53t-13 71q0 49 19 87.5t52 63.5q32 26 75 39.5t90 13.5q43 0 87 -9.5t77 -27.5l-23 -76q-30 15 -63 23t-73 8q-22 0 -45.5 -6t-43.5 -20q-20 -13 -32.5 -34.5t-12.5 -52.5q0 -28 13.5 -48.5t35.5 -36.5q23 -16 51 -29.5
t58 -27.5z" />
    <glyph glyph-name="T" unicode="T" horiz-adv-x="556" 
d="M540 635h-212v-651h-100v651h-212v82h524v-82z" />
    <glyph glyph-name="U" unicode="U" horiz-adv-x="722" 
d="M633 717v-449q0 -149 -71 -223t-201 -74q-131 0 -201.5 74t-70.5 223v449h101v-428q0 -53 8.5 -96t28.5 -74q20 -30 53 -47t81 -17t80.5 17t52.5 47q20 31 29 74t9 96v428h101z" />
    <glyph glyph-name="V" unicode="V" horiz-adv-x="667" 
d="M540 717h104q-32 -94 -62.5 -185.5t-61.5 -181.5q-30 -91 -60.5 -182t-60.5 -184h-133q-62 186 -121.5 365.5t-122.5 367.5h112q24 -80 49 -160.5t50 -161.5t50.5 -162t52.5 -161q25 79 50.5 160t51.5 162q25 81 50.5 162t51.5 161z" />
    <glyph glyph-name="W" unicode="W" horiz-adv-x="940" 
d="M918 717l-173 -733h-137l-137 663l-141 -663h-138l-170 733h109l133 -654l133 654h149l136 -655l132 655h104z" />
    <glyph glyph-name="X" unicode="X" horiz-adv-x="667" 
d="M332 280l-189 -296h-119l254 379l-232 354h124l167 -268l170 268h114l-230 -348l252 -385h-125z" />
    <glyph glyph-name="Y" unicode="Y" horiz-adv-x="667" 
d="M641 717l-254 -418v-315h-103v315l-256 418h119l190 -325l190 325h114z" />
    <glyph glyph-name="Z" unicode="Z" horiz-adv-x="556" 
d="M513 -16h-470v91l346 559h-333v83h441v-91l-346 -559h362v-83z" />
    <glyph glyph-name="bracketleft" unicode="[" horiz-adv-x="333" 
d="M286 -148h-196v914h196v-72h-100v-770h100v-72z" />
    <glyph glyph-name="backslash" unicode="\" horiz-adv-x="450" 
d="M393 -79h-92l-245 811h93z" />
    <glyph glyph-name="bracketright" unicode="]" horiz-adv-x="333" 
d="M243 -148h-196v72h100v770h-100v72h196v-914z" />
    <glyph glyph-name="asciicircum" unicode="^" horiz-adv-x="500" 
d="M457 484h-106l-100 188l-102 -188h-106l166 263h82z" />
    <glyph glyph-name="underscore" unicode="_" horiz-adv-x="450" 
d="M447 -194h-444v71h444v-71z" />
    <glyph glyph-name="grave" unicode="`" horiz-adv-x="278" 
d="M245 594h-79l-123 157h117z" />
    <glyph glyph-name="a" unicode="a" horiz-adv-x="556" 
d="M488 -19h-92q-1 8 -2 16.5t-1 16.5q-1 8 -1.5 15.5t-0.5 15.5q-24 -32 -66.5 -54.5t-96.5 -22.5q-85 0 -133.5 40.5t-48.5 125.5q0 48 20 82t54 55q33 21 76.5 31t89.5 10q25 0 48.5 -0.5t48.5 -0.5q0 69 -28.5 106.5t-99.5 37.5q-42 0 -79 -15t-64 -39q-8 18 -14.5 40.5
t-10.5 40.5q35 26 85.5 40.5t98.5 14.5q110 0 159 -59.5t49 -169.5v-203q0 -33 3 -70t6 -54zM385 240h-64q-20 0 -50 -3.5t-58 -13.5q-28 -11 -47.5 -31.5t-19.5 -54.5q0 -45 30.5 -67.5t65.5 -22.5q76 0 109.5 51.5t33.5 141.5z" />
    <glyph glyph-name="b" unicode="b" horiz-adv-x="611" 
d="M347 537q56 0 97.5 -23.5t68.5 -62.5q27 -38 40.5 -88t13.5 -103q0 -54 -12.5 -107t-39.5 -94q-26 -41 -67.5 -66.5t-99.5 -25.5q-62 0 -106 24.5t-70 63.5v-74h-94v757h99v-286q28 37 69 61t101 24zM323 50q38 0 64 20t43 51q16 31 23.5 66.5t7.5 67.5q0 33 -7 68.5
t-23 64.5t-42.5 48t-64.5 19t-65.5 -18.5t-45.5 -48.5q-18 -29 -26.5 -65t-8.5 -71q0 -33 7.5 -68.5t25.5 -65.5q17 -30 44.5 -49t67.5 -19z" />
    <glyph glyph-name="c" unicode="c" horiz-adv-x="444" 
d="M412 71l20 -77q-24 -12 -59.5 -20t-74.5 -8q-62 0 -109.5 22.5t-79.5 61.5t-48.5 91t-16.5 111t17.5 111t50.5 90q32 38 79 60.5t106 22.5q33 0 66.5 -8.5t57.5 -20.5l-24 -74q-18 9 -41.5 15t-48.5 6q-39 0 -68 -17.5t-49 -46.5q-20 -28 -30 -64.5t-10 -73.5t8.5 -73
t27.5 -65q20 -29 50.5 -47t75.5 -18q30 0 55.5 6t44.5 16z" />
    <glyph glyph-name="d" unicode="d" horiz-adv-x="611" 
d="M533 -18h-94v68q-27 -36 -70 -59t-105 -23q-59 0 -101 25.5t-68 66.5q-27 42 -39 94.5t-12 106.5q0 53 13.5 103t40.5 88q28 39 69.5 62.5t97.5 23.5q61 0 100 -22.5t69 -59.5v283h99v-757zM288 51q39 0 66.5 19t44.5 49q18 30 26 65.5t8 68.5q0 35 -9 71t-27 65
q-18 30 -45.5 48.5t-64.5 18.5q-39 0 -65.5 -19t-42.5 -48t-22.5 -64.5t-6.5 -68.5q0 -32 7 -67.5t23 -66.5q17 -31 43 -51t65 -20z" />
    <glyph glyph-name="e" unicode="e" horiz-adv-x="556" 
d="M512 223h-365q0 -39 13.5 -71.5t35.5 -55.5q23 -23 53 -35.5t64 -12.5q42 0 81 13t66 34l30 -76q-33 -24 -80.5 -38t-100.5 -14q-133 0 -199 79t-66 212q0 58 16.5 109t47.5 89q31 37 75 59t99 22q60 0 104 -23.5t72 -64.5q28 -42 41.5 -99.5t12.5 -126.5zM146 303h263
q-1 60 -33.5 106.5t-92.5 46.5q-34 0 -58.5 -14t-40.5 -36q-17 -21 -26 -48.5t-12 -54.5z" />
    <glyph glyph-name="f" unicode="f" horiz-adv-x="389" 
d="M371 762l-7 -85q-10 5 -21.5 7.5t-29.5 2.5q-57 0 -71.5 -31t-14.5 -84v-60h134v-83h-134v-447h-100v447h-101v83h101v56q0 96 35.5 149t132.5 53q21 0 45.5 -3.5t30.5 -4.5z" />
    <glyph glyph-name="g" unicode="g" horiz-adv-x="611" 
d="M533 525v-489q0 -115 -59.5 -177.5t-200.5 -62.5q-42 0 -93.5 9.5t-102.5 28.5l7 92q46 -21 95 -35t98 -14q81 0 117 42.5t39 120.5l1 42q-31 -42 -75.5 -62t-95.5 -20q-55 0 -96 21t-69 57q-27 36 -40.5 83.5t-13.5 99.5q0 49 13.5 98.5t41.5 88.5q27 40 69.5 64.5
t100.5 24.5q59 0 101.5 -22t70.5 -65v75h92zM289 82q33 0 60 14t46 38t29 56.5t10 69.5q0 39 -9 74.5t-27 62.5t-45 43t-63 16q-37 0 -63.5 -17.5t-43.5 -45.5q-17 -27 -25 -61.5t-8 -67.5q0 -35 9 -68t26 -58q18 -26 44 -41t60 -15z" />
    <glyph glyph-name="h" unicode="h" horiz-adv-x="611" 
d="M533 -18h-99v293q0 83 -21 131.5t-86 49.5q-41 0 -69.5 -16.5t-46.5 -45.5q-18 -28 -26 -66t-8 -80v-266h-99v756h99v-285q30 42 73.5 63t96.5 21q96 0 141 -59t45 -160v-336z" />
    <glyph glyph-name="i" unicode="i" horiz-adv-x="278" 
d="M193 631h-108v117h108v-117zM188 -18h-99v543h99v-543z" />
    <glyph glyph-name="j" unicode="j" horiz-adv-x="278" 
d="M193 632h-108v116h108v-116zM189 526v-526q0 -39 -3.5 -76t-15.5 -65q-13 -28 -39.5 -45t-72.5 -17q-5 0 -14.5 1t-19.5 1q-10 1 -17 1.5l-7 0.5l3 85q5 -1 15.5 -2t19.5 1q28 3 39.5 31t11.5 79v531h100z" />
    <glyph glyph-name="k" unicode="k" horiz-adv-x="556" 
d="M531 -18h-127l-166 248l-61 -68v-180h-99v756h99v-449l200 236h131l-204 -222z" />
    <glyph glyph-name="l" unicode="l" horiz-adv-x="278" 
d="M188 -18h-99v756h99v-756z" />
    <glyph glyph-name="m" unicode="m" horiz-adv-x="889" 
d="M815 -19h-99v332q0 22 -3 47t-13 46t-27.5 35t-47.5 14q-36 0 -61 -17.5t-41 -44.5q-16 -28 -22.5 -62.5t-6.5 -68.5v-281h-98v332q0 22 -3.5 47t-12.5 46q-10 21 -28 35t-48 14q-37 0 -62 -17.5t-40 -44.5q-15 -28 -21.5 -62.5t-6.5 -68.5v-281h-99v543h92v-73
q35 48 76 66.5t91 18.5q45 0 84 -25t60 -78q28 56 77 79.5t88 23.5q48 0 80.5 -15.5t53.5 -42.5q20 -27 29 -63.5t9 -78.5v-355z" />
    <glyph glyph-name="n" unicode="n" horiz-adv-x="611" 
d="M533 -19h-99v293q0 83 -21 132t-86 49q-38 0 -66 -16.5t-47 -45.5q-19 -28 -28 -66t-9 -80v-266h-99v543h95v-77q31 45 76 67t98 22q96 0 141 -59t45 -160v-336z" />
    <glyph glyph-name="o" unicode="o" horiz-adv-x="611" 
d="M305 537q58 0 106 -22t83 -60t54.5 -90t19.5 -113q0 -57 -19 -108.5t-53 -91.5q-35 -39 -83.5 -62t-107.5 -23q-60 0 -108.5 23t-82.5 62q-35 40 -53 91.5t-18 108.5q0 61 19 113t54 90t83 60t106 22zM305 50q40 0 70 17.5t49 45.5q19 29 28.5 65t9.5 74t-10.5 74.5
t-30.5 64.5q-20 29 -49.5 46.5t-66.5 17.5q-38 0 -67 -18t-49 -46q-20 -29 -30 -65.5t-10 -73.5q0 -38 9 -74t28 -65q20 -28 49 -45.5t70 -17.5z" />
    <glyph glyph-name="p" unicode="p" horiz-adv-x="611" 
d="M348 537q56 0 97.5 -23.5t68.5 -61.5q27 -39 40 -88.5t13 -102.5q0 -54 -12.5 -107t-38.5 -94q-27 -41 -68 -66.5t-99 -25.5q-60 0 -101 20t-71 59v-251h-99v729h94v-73q25 33 67.5 59t108.5 26zM323 51q38 0 64 20t43 51q16 31 23.5 66.5t7.5 67.5q0 33 -7 68.5
t-23 64.5t-42.5 48t-64.5 19q-35 0 -62.5 -18t-45.5 -47q-19 -29 -28.5 -65.5t-9.5 -72.5q0 -33 7.5 -68.5t25.5 -65.5q17 -30 44.5 -49t67.5 -19z" />
    <glyph glyph-name="q" unicode="q" horiz-adv-x="611" 
d="M533 -204h-99v250q-31 -40 -76 -59t-96 -19q-59 0 -100 25.5t-68 66.5q-26 42 -38 94.5t-12 106.5q0 53 12.5 102.5t39.5 88.5q27 38 68.5 61.5t98.5 23.5q64 0 106.5 -26t69.5 -59v73h94v-729zM288 51q39 0 66.5 19t44.5 49q18 30 26 65.5t8 68.5q0 35 -9 71t-27 65
q-18 30 -45.5 48.5t-64.5 18.5q-39 0 -65.5 -19t-42.5 -48t-22.5 -64.5t-6.5 -68.5q0 -32 7 -67.5t23 -66.5q17 -31 43 -51t65 -20z" />
    <glyph glyph-name="r" unicode="r" horiz-adv-x="389" 
d="M370 531v-96q-11 5 -26.5 6.5t-30.5 1.5q-36 0 -61.5 -17.5t-41.5 -46.5q-17 -30 -24.5 -69.5t-7.5 -84.5v-244h-99v543h90v-89q21 41 59 71t83 30q18 0 35.5 -2t23.5 -3z" />
    <glyph glyph-name="s" unicode="s" horiz-adv-x="444" 
d="M280 292q23 -12 45 -25.5t39 -31.5q16 -18 26.5 -42t10.5 -55q0 -44 -17 -76t-45 -53q-29 -21 -66.5 -31.5t-79.5 -10.5q-49 0 -91.5 12.5t-72.5 36.5l25 73q24 -19 57 -30t66 -11q19 0 40 4.5t38 14.5q18 9 29.5 24.5t11.5 36.5q0 18 -11 32.5t-28 26.5t-39.5 23
t-44.5 22q-24 11 -46 24.5t-39 30.5t-27 39t-10 51q0 42 15.5 72t43.5 50q27 19 63 28.5t77 9.5q38 0 75 -9t66 -24l-27 -74q-22 12 -48 19t-55 7q-45 0 -75.5 -14t-30.5 -50q0 -20 11.5 -34.5t30.5 -25.5q18 -12 40 -21.5t43 -18.5z" />
    <glyph glyph-name="t" unicode="t" horiz-adv-x="389" 
d="M365 59l2 -80q-16 -6 -41 -9t-49 -3q-75 0 -116.5 38.5t-41.5 117.5v316h-89v81h89v115l100 31v-146h135v-81h-135v-294q0 -45 20.5 -70t57.5 -25q22 0 39 2t29 7z" />
    <glyph glyph-name="u" unicode="u" horiz-adv-x="611" 
d="M533 -19h-96v76q-29 -45 -75 -67t-98 -22q-97 0 -141.5 58.5t-44.5 160.5v337h99v-294q0 -83 20.5 -131t86.5 -49q40 -1 68.5 15t46.5 45q18 28 26.5 66t8.5 81v267h99v-543z" />
    <glyph glyph-name="v" unicode="v" horiz-adv-x="556" 
d="M535 524l-196 -543h-119l-198 543h108l155 -448l152 448h98z" />
    <glyph glyph-name="w" unicode="w" horiz-adv-x="869" 
d="M853 525l-168 -543h-117l-132 459l-131 -459h-117l-170 543h108l122 -456l130 456h121l130 -453l127 453h97z" />
    <glyph glyph-name="x" unicode="x" horiz-adv-x="556" 
d="M275 188l-139 -207h-114l202 283l-180 260h123l115 -181l120 181h110l-179 -252l200 -291h-122z" />
    <glyph glyph-name="y" unicode="y" horiz-adv-x="556" 
d="M536 525l-204 -517q-15 -38 -31 -76t-39 -68q-22 -31 -54.5 -49.5t-78.5 -18.5q-20 0 -47 5t-41 11l6 80q16 -9 31.5 -12.5t36.5 -3.5q25 0 44 10.5t33 28.5t23.5 41t15.5 47l-20 53l-188 469h109l152 -415l152 415h100z" />
    <glyph glyph-name="z" unicode="z" horiz-adv-x="500" 
d="M460 0h-418v85l283 356h-270v82h392v-82l-281 -360h294v-81z" />
    <glyph glyph-name="braceleft" unicode="{" horiz-adv-x="333" 
d="M312 -125h-72q-21 0 -43 8t-40 24t-29.5 39.5t-11.5 55.5v171q0 59 -22 86.5t-64 27.5v64q42 0 64 27t22 83v175q0 31 11.5 55t30.5 40q18 16 40 24t42 8h72v-67h-45q-37 0 -46.5 -25.5t-9.5 -60.5v-165q0 -56 -23.5 -84t-59.5 -41q36 -13 59.5 -41t23.5 -91v-161
q0 -36 9.5 -60.5t46.5 -24.5h45v-67z" />
    <glyph glyph-name="bar" unicode="|" horiz-adv-x="300" 
d="M199 -125h-96v887h96v-887z" />
    <glyph glyph-name="braceright" unicode="}" horiz-adv-x="333" 
d="M21 -125v67h45q36 0 46 24.5t10 60.5v161q0 63 23 91t60 41q-36 13 -59.5 41t-23.5 84v165q0 35 -10 60.5t-46 25.5h-45v67h72q19 0 41 -8t40 -24q19 -16 31 -40t12 -55v-175q0 -56 22 -83t64 -27v-64q-42 0 -64 -27.5t-22 -86.5v-171q0 -32 -12 -55.5t-30 -39.5t-40 -24
t-42 -8h-72z" />
    <glyph glyph-name="asciitilde" unicode="~" horiz-adv-x="556" 
d="M495 427l36 -61q-7 -16 -19 -34t-29 -33t-38 -25t-46 -10q-29 0 -60.5 9.5t-61.5 23.5q-15 6 -30.5 13t-30.5 12q-15 6 -29.5 10t-27.5 4q-38 0 -59 -21t-38 -51l-36 58q9 18 21 36t28 33t37 24.5t48 9.5t59 -10t62 -22l30 -14t30 -13t29.5 -9.5t28.5 -3.5q33 0 57 22
t39 52z" />
    <glyph glyph-name="exclamdown" unicode="&#xa1;" 
d="M422 462h59l15 -483q0 -24 2 -52t8 -57h-110q5 26 7.5 56t3.5 53zM391 650q0 27 18 46t42 19t41 -18.5t17 -46.5t-17.5 -45.5t-41.5 -17.5t-41.5 17.5t-17.5 45.5v0z" />
    <glyph glyph-name="currency" unicode="&#xa4;" 
d="M450 572q-57 0 -106.5 -21.5t-86.5 -58.5t-58 -86.5t-21 -105.5q0 -57 21 -106.5t58 -86.5t86.5 -58t106.5 -21q56 0 105.5 21t86.5 58t59 86.5t22 106.5q0 56 -22 105.5t-59 86.5t-86.5 58.5t-105.5 21.5v0zM119 -70l-40 40l117 118q-36 42 -56 96.5t-20 115.5
q0 60 20.5 115t56.5 98l-118 120l40 40l119 -120q42 36 96.5 57t115.5 21q60 0 114.5 -20.5t97.5 -56.5l118 119l40 -40q-2 -2 -19 -18.5t-38 -37.5q-20 -20 -39 -38.5t-24 -23.5q38 -43 59 -98.5t21 -116.5t-20.5 -115.5t-56.5 -96.5l117 -118l-40 -40l-117 117
q-43 -37 -97.5 -57.5t-115.5 -20.5t-116.5 21t-97.5 58z" />
    <glyph glyph-name="section" unicode="&#xa7;" horiz-adv-x="450" 
d="M406 -1q0 -51 -44.5 -84t-107.5 -33q-36 0 -68.5 10t-57.5 28t-39.5 41.5t-14.5 50.5q0 22 14 37t36 15q19 0 32 -14.5t13 -34.5q0 -6 -1.5 -11.5t-2.5 -11.5l-2 -10t-1 -9q0 -21 23.5 -37.5t57.5 -16.5q39 0 65.5 20.5t26.5 47.5q0 11 -2 19t-7 15q-8 12 -37.5 37
t-62.5 50q-48 36 -85.5 68.5t-55.5 56.5q-16 18 -23.5 39.5t-7.5 43.5q0 45 29.5 78.5t71.5 33.5q2 0 4 -0.5t5 -0.5q2 0 4.5 -0.5t5.5 -0.5q-54 45 -81.5 86t-27.5 78q0 27 12 52t33 44t49 30t59 11q33 0 62.5 -11t51.5 -29q22 -19 35 -44t13 -53q0 -23 -13 -38.5
t-33 -15.5q-21 0 -34 15t-13 39q0 5 1 10t3 10t3.5 10t1.5 11q0 20 -23.5 36.5t-56.5 16.5q-42 0 -65 -20.5t-23 -53.5q0 -31 28.5 -65.5t104.5 -94.5q38 -31 64 -55t41 -44q16 -20 22.5 -39t6.5 -40q0 -48 -31 -81.5t-76 -32.5h-7q26 -20 49 -38.5t37 -33.5
q16 -18 27.5 -42t11.5 -45v0zM325 247q0 19 -7.5 35.5t-25.5 37.5q-9 9 -16.5 17t-16.5 14q-8 7 -16.5 13.5t-18.5 14.5q-2 1 -5 3t-7 4q-3 2 -6.5 4t-5.5 2h-10q-31 0 -51.5 -18t-20.5 -44q0 -24 17 -49.5t54 -53.5q27 -21 44 -29t38 -8q25 0 39.5 15t14.5 42v0z" />
    <glyph glyph-name="dieresis" unicode="&#xa8;" 
d="M678 732q0 -30 -19 -48t-49 -18q-27 0 -45 18.5t-18 47.5q0 28 18 46t49 18q27 0 45.5 -18.5t18.5 -45.5v0zM352 732q0 -30 -18.5 -48t-48.5 -18q-28 0 -46 18.5t-18 47.5q0 28 18.5 46t49.5 18q27 0 45 -18.5t18 -45.5v0z" />
    <glyph glyph-name="ordfeminine" unicode="&#xaa;" 
d="M710 6v-70h-520v70h520zM579 114q-6 12 -10 26t-6 30q-30 -28 -71 -50t-87 -24q-77 -6 -120 29t-54 85q-7 28 -3.5 57.5t17.5 55.5q13 27 36.5 48t56.5 32q20 6 40.5 10.5t41.5 7.5q20 3 40.5 6t41.5 8q21 4 40 15.5t19 34.5q0 41 -28.5 73t-88.5 32q-54 0 -89 -31
t-34 -94h-73q-1 46 14 82.5t42 62.5t63 40t77 14q81 0 135.5 -49.5t54.5 -136.5v-269q0 -24 5.5 -51t11.5 -44h-72zM380 340q-46 -12 -63.5 -38t-16.5 -56q1 -41 28 -61.5t81 -14.5q23 2 50 14.5t49 30.5q23 18 38 40t15 43v81q-21 -11 -44 -16.5t-46 -8.5q-23 -4 -46 -6.5
t-45 -7.5v0z" />
    <glyph glyph-name="uni00AD" unicode="&#xad;" 
d="M635 171h-370v72h370v-72z" />
    <glyph glyph-name="registered" unicode="&#xae;" 
d="M567 302q24 -20 32 -51.5t9 -92.5q0 -29 4 -48t15 -43h-55q-8 21 -10 37.5t-2 55.5q-2 37 -6 60t-13 35q-9 13 -23.5 17t-37.5 4h-131v-209h-53v472h209q54 0 83 -35.5t29 -94.5q0 -38 -12.5 -65t-37.5 -42v0zM499 329q32 0 51 22t19 60q0 35 -18.5 55t-51.5 20h-150
v-157h150zM449 -99q-83 0 -156 31t-127 86q-55 54 -86 127t-31 156q0 82 31 155t86 127q54 55 127 86.5t156 31.5q82 0 155 -31.5t127 -85.5q55 -54 86.5 -127t31.5 -156t-31.5 -156t-86.5 -127q-54 -55 -127 -86t-155 -31v0zM449 652q-73 0 -137 -28t-111 -75
q-48 -48 -75.5 -112t-27.5 -136q0 -73 27.5 -137t75.5 -111q47 -48 111 -75.5t137 -27.5q72 0 135.5 27.5t111.5 75.5q47 47 75 111t28 137q0 72 -28 136t-75 111q-48 48 -111.5 76t-135.5 28v0z" />
    <glyph glyph-name="degree" unicode="&#xb0;" horiz-adv-x="450" 
d="M221 773q46 0 79.5 -33t33.5 -80q0 -48 -33.5 -80.5t-79.5 -32.5q-48 0 -81 32.5t-33 80.5q0 47 33 80t81 33v0zM221 595q24 0 43 19t19 46q0 26 -19 45.5t-43 19.5q-26 0 -44.5 -19.5t-18.5 -45.5q0 -27 18.5 -46t44.5 -19v0z" />
    <glyph glyph-name="plusminus" unicode="&#xb1;" 
d="M726 348h-236v-197h-80v197h-237v70h237v200h80v-200h236v-70zM726 -11h-553v65h553v-65z" />
    <glyph glyph-name="uni00B2" unicode="&#xb2;" horiz-adv-x="450" 
d="M72 532h153v-38h-205q0 32 16 61t59 57l47 30q16 10 26 23.5t10 30.5q0 22 -12.5 35.5t-38.5 13.5q-33 0 -44 -17.5t-11 -39.5h-43q0 33 24 63.5t75 30.5q48 0 71.5 -26.5t23.5 -59.5q0 -35 -20.5 -54t-37.5 -30q-11 -7 -25 -15.5t-27 -18.5q-14 -10 -25.5 -22t-15.5 -24
v0z" />
    <glyph glyph-name="uni00B3" unicode="&#xb3;" horiz-adv-x="450" 
d="M66 581q-1 -21 13.5 -38.5t47.5 -17.5q27 0 42.5 16.5t15.5 38.5q0 16 -11.5 27t-26.5 15q-6 1 -11.5 1.5t-10.5 1.5h-11.5h-10.5v37q4 0 10 -0.5t12 0.5q5 0 11 1t11 3q15 6 22 16t7 25t-13.5 26.5t-37.5 11.5q-30 0 -42.5 -15.5t-10.5 -33.5h-43q-2 42 28 64t69 22
t67 -21t28 -54q0 -24 -12 -39.5t-21 -21.5q18 -10 30 -26.5t12 -41.5q0 -38 -28.5 -64.5t-74.5 -26.5t-77 26.5t-28 67.5h44z" />
    <glyph glyph-name="acute" unicode="&#xb4;" 
d="M558 790q10 -14 8.5 -26.5t-9.5 -22.5q-9 -12 -43 -30.5t-70 -35.5q-39 -19 -70.5 -29.5t-33.5 -6.5q2 2 24.5 24t49.5 48q27 27 51 50t32 28q12 9 30 13t31 -12v0z" />
    <glyph glyph-name="paragraph" unicode="&#xb6;" 
d="M630 -149v879h69v-879h-69zM445 -149l-1 465l-71 -1q-108 -2 -174 54t-66 153q0 91 56.5 143t166.5 60q23 1 37 2t23 2q9 0 16 0.5t17 0.5l63 -2v-877h-67zM444 666h-44q-92 0 -143.5 -38t-51.5 -104t50.5 -105.5t128.5 -36.5l60 2v282z" />
    <glyph glyph-name="periodcentered" unicode="&#xb7;" horiz-adv-x="450" 
d="M298 324q0 -31 -20 -50.5t-52 -19.5q-30 0 -49 20t-19 50q0 31 19.5 50.5t52.5 19.5q29 0 48.5 -20t19.5 -50z" />
    <glyph glyph-name="cedilla" unicode="&#xb8;" horiz-adv-x="450" 
d="M125 -178l9 30q15 -4 26 -4.5t20 -0.5q21 0 34 12t13 28q0 19 -15 31t-50 13l55 120h92l-36 -78q19 -15 29 -30.5t10 -36.5t-10 -39.5t-27 -32.5q-16 -13 -37.5 -21t-43.5 -8q-12 0 -27.5 3.5t-41.5 13.5v0z" />
    <glyph glyph-name="uni00B9" unicode="&#xb9;" horiz-adv-x="450" 
d="M117 703h-62v30q15 0 29 2.5t23 10.5q6 4 11.5 13.5t5.5 21.5h33v-291h-40v213z" />
    <glyph glyph-name="ordmasculine" unicode="&#xba;" 
d="M238 381q0 56 13.5 107t40.5 90t66.5 62t91.5 23t91 -23t66 -61q26 -39 39.5 -89.5t13.5 -106.5t-14 -107.5t-41 -90.5q-27 -40 -66.5 -63t-91.5 -23t-91 22.5t-65 61.5q-27 39 -40 90t-13 108v0zM718 7v-70h-520v70h520zM311 381q0 -93 39 -151t100 -58q60 0 100 58
t40 151t-39.5 151.5t-99.5 58.5q-30 0 -55.5 -15.5t-44.5 -43.5t-29.5 -66.5t-10.5 -84.5v0z" />
    <glyph glyph-name="onequarter" unicode="&#xbc;" 
d="M267 330h-61v293h-90v52q21 0 40 4.5t34 14.5q11 7 19.5 21t8.5 32h49v-417zM785 675l-667 -817l-47 35l668 816zM812 -89h-64v-74h-60v74h-201v59l204 288h57v-292h64v-55zM688 -35v188l-136 -188h136z" />
    <glyph glyph-name="onehalf" unicode="&#xbd;" 
d="M269 329h-62v294h-91v51q21 0 40.5 4.5t34.5 14.5q10 7 19 21t9 32h50v-417zM807 -168h-298q0 42 24.5 90.5t78.5 81.5l76 46q21 14 38 35.5t17 51.5q0 33 -20 54t-59 21q-46 0 -65 -27t-18 -61h-63q0 25 9 50t27 45t45.5 33t65.5 13q71 0 106 -39t35 -90t-27.5 -82
t-55.5 -49q-6 -3 -18 -10.5t-26 -16.5q-15 -9 -29 -18.5t-23 -16.5q-17 -14 -28.5 -29t-14.5 -30h223v-52zM779 675l-668 -817l-47 35l669 816z" />
    <glyph glyph-name="threequarters" unicode="&#xbe;" 
d="M317 542q28 -13 47.5 -39.5t19.5 -59.5q0 -57 -41.5 -93.5t-107.5 -36.5t-110.5 39.5t-41.5 99.5l62 -1q-3 -33 20 -59t69 -26q39 0 62 22t24 56q0 24 -16.5 42.5t-40.5 25.5q-8 1 -16 1.5t-16 0.5h-16h-15v52q15 0 33 1t30 7q21 9 32.5 25t11.5 39q0 26 -19 45.5
t-56 19.5q-44 0 -61.5 -23.5t-15.5 -52.5h-61q-3 60 39 93.5t101 33.5q60 0 98.5 -34.5t38.5 -82.5q0 -40 -19.5 -63t-34.5 -32v0zM816 675l-668 -817l-47 35l669 816zM810 -92h-64v-73h-61v73h-201v60l205 288h57v-292h64v-56zM685 -37v187l-135 -187h135z" />
    <glyph glyph-name="questiondown" unicode="&#xbf;" 
d="M268 57q0 21 7.5 46.5t21.5 51.5q14 25 33.5 48.5t43.5 42.5q21 16 36 34t25 38q9 19 14 41t5 47v61h76q1 -5 1.5 -16t1.5 -24q0 -14 0.5 -26.5t0.5 -19.5q0 -21 -6.5 -42t-18.5 -42t-27 -40t-33 -34q-19 -16 -36 -34.5t-30 -39.5t-20.5 -43t-7.5 -44q0 -27 7 -49.5
t22 -37.5q15 -16 36.5 -24.5t50.5 -8.5q22 0 43.5 5t40.5 14q19 8 34.5 18t27.5 21l36 -52q-18 -19 -41.5 -33.5t-49.5 -23.5q-27 -10 -54.5 -15t-54.5 -5q-38 0 -71.5 13.5t-58.5 38.5q-26 24 -40.5 58t-14.5 76v0zM416 654q0 29 18 48.5t43 19.5q24 0 43 -20t19 -48
q0 -29 -19.5 -46.5t-43.5 -17.5q-22 0 -41 18t-19 46v0z" />
    <glyph glyph-name="AE" unicode="&#xc6;" 
d="M424 -63v246h-176l-117 -246h-70l340 732h363v-76h-273v-233h243v-76h-243v-272h274v-75h-341zM424 573l-145 -313h145v313z" />
    <glyph glyph-name="Eth" unicode="&#xd0;" 
d="M302 186v-179h139q56 0 100.5 23.5t75.5 63.5q30 41 46.5 95t16.5 115q0 65 -16.5 119.5t-46.5 94.5q-31 39 -75.5 61t-100.5 22h-139v-346h241v-69h-241zM230 255v414h218q70 0 127 -28t97 -77q39 -49 61 -115.5t22 -144.5t-22 -145t-61 -116q-40 -49 -97 -76.5
t-127 -27.5h-218v247h-136v69h136z" />
    <glyph glyph-name="multiply" unicode="&#xd7;" 
d="M722 84l-51 -56l-221 219l-209 -211l-55 52l215 209l-208 206l55 53l202 -206l203 202l51 -49l-201 -204z" />
    <glyph glyph-name="Oslash" unicode="&#xd8;" 
d="M781 654l-100 -120q28 -48 41 -100t13 -118q0 -86 -20.5 -157t-57.5 -121t-89 -77.5t-115 -27.5q-60 0 -105.5 20t-93.5 70l-87 -104l-44 43l93 111q-30 52 -44.5 110t-14.5 123q0 80 21.5 147t60.5 116q39 48 93 75.5t119 27.5q56 0 102 -20.5t91 -65.5l92 112zM599 532
q-35 39 -67.5 54t-78.5 15q-105 0 -166 -81.5t-61 -220.5q0 -51 8.5 -91t29.5 -77zM633 475l-335 -400q34 -38 69.5 -55t77.5 -17q48 0 88.5 21.5t69.5 60.5q29 40 45 95t16 123q0 54 -7.5 94.5t-23.5 77.5v0z" />
    <glyph glyph-name="Thorn" unicode="&#xde;" 
d="M467 64h-152v-131h-74v742h74v-142h152q43 0 83.5 -13.5t71.5 -41.5q30 -28 49 -72.5t19 -107.5t-18 -107.5t-49 -72.5t-71 -41t-85 -13v0zM463 463h-148v-327h148q66 0 106 35.5t40 126.5q0 89 -40 127t-106 38v0z" />
    <glyph glyph-name="germandbls" unicode="&#xdf;" 
d="M535 353q46 -12 76 -35t47 -54q18 -30 24.5 -66t6.5 -74q0 -107 -56.5 -164t-161.5 -57q-15 0 -27.5 0.5t-28.5 3.5q-17 2 -39 7t-55 14v-117h-74v666q0 48 15.5 88.5t42.5 70.5q28 30 65 47t81 17q42 0 77 -14.5t61 -39.5t40.5 -58.5t14.5 -71.5q0 -21 -4 -44.5
t-16 -44.5q-11 -22 -32.5 -41.5t-56.5 -32.5v0zM543 -3q35 18 53.5 61.5t18.5 89.5q0 63 -35.5 108t-94.5 53q-5 0 -9 0.5t-8 0.5q-5 1 -10 1t-11 1v76q64 9 93 36.5t29 89.5q0 52 -32.5 85.5t-81.5 33.5q-61 0 -97.5 -40.5t-36.5 -103.5v-486q25 -9 42.5 -14.5t30.5 -8.5
q14 -3 26 -4t26 -1q27 0 52.5 5t44.5 17v0z" />
    <glyph glyph-name="ae" unicode="&#xe6;" 
d="M775 155h-293q0 -33 7.5 -67t22.5 -61q15 -28 37.5 -45t52.5 -17q36 0 62.5 24.5t32.5 65.5h73q-18 -68 -56.5 -112.5t-108.5 -44.5q-34 0 -60 11t-47 31q-18 15 -31.5 34t-22.5 43q-17 -38 -41 -61.5t-50 -37.5q-26 -13 -52 -18t-46 -5q-51 -1 -88.5 27t-48.5 90
q-12 60 14.5 107t74.5 68q37 17 94.5 23.5t104.5 8.5v73q0 37 -30 71t-83 34q-45 0 -74.5 -31t-33.5 -73h-63q1 37 15.5 67.5t38.5 52.5t54.5 34.5t64.5 12.5q44 0 89.5 -23.5t72.5 -80.5q25 51 66 77t79 26q44 0 83 -26t65 -80q15 -37 22.5 -86t2.5 -112v0zM483 219h222
q1 34 -5 65t-19 55q-13 23 -33 37.5t-46 14.5q-27 0 -48 -14.5t-36 -37.5q-16 -24 -25 -55t-10 -65v0zM406 91l2 63q-21 0 -43 -0.5t-43 -2.5q-22 -2 -42 -7.5t-37 -14.5q-32 -18 -47 -42.5t-7 -63.5q3 -21 14.5 -32.5t26.5 -16.5q15 -6 31 -6t30 2q12 1 31 8t37 21
t31.5 36.5t15.5 55.5v0z" />
    <glyph glyph-name="eth" unicode="&#xf0;" 
d="M551 346q-11 28 -20.5 49t-21.5 41q-13 21 -27.5 41t-32.5 42l-110 -75l-43 49l108 73q-7 5 -15 11l-16 12l-16 12t-14 11q-9 5 -15.5 9t-12.5 8q-5 4 -10 7t-11 7l38 58q36 -20 67 -40.5t67 -47.5l80 60l41 -49l-79 -59q45 -54 73 -101t45 -91q16 -44 22 -88t6 -92
q0 -128 -57.5 -194.5t-156.5 -66.5q-50 0 -90 15.5t-69 44.5q-29 28 -44.5 68.5t-15.5 89.5t16 90.5t44 71.5q29 30 68.5 46.5t87.5 16.5q21 0 55 -7t59 -22v0zM437 -1q66 0 100.5 46t34.5 119q0 65 -37.5 103.5t-100.5 38.5q-66 0 -102.5 -44t-36.5 -113q0 -66 38.5 -108
t103.5 -42v0z" />
    <glyph glyph-name="divide" unicode="&#xf7;" 
d="M449 643q31 0 51.5 -22t20.5 -51t-21 -49t-49 -20q-30 0 -51 19.5t-21 49.5q0 29 20 51t50 22v0zM777 268h-653v67h653v-67zM379 30q0 28 20 49.5t50 21.5q31 0 52 -21.5t21 -49.5q0 -29 -22 -50t-49 -21q-30 0 -51 19t-21 52v0z" />
    <glyph glyph-name="oslash" unicode="&#xf8;" 
d="M708 209q0 -68 -19 -124t-53 -95q-34 -40 -81.5 -61.5t-104.5 -21.5q-39 0 -70 8.5t-63 32.5l-66 -95l-48 43l64 95q-40 50 -57 100t-17 108q0 61 23 119t62 97q32 32 77.5 49t99.5 17q30 0 61 -7.5t62 -23.5l63 93l53 -41l-63 -91q42 -51 59.5 -97t17.5 -105v0zM591 351
l-238 -350q21 -17 41 -22.5t50 -5.5q43 0 80 16.5t64 45.5q26 30 41.5 70.5t15.5 89.5q0 44 -12 80t-42 76v0zM541 395q-22 13 -43.5 18.5t-48.5 5.5q-42 0 -76.5 -17t-59.5 -46q-24 -30 -37.5 -71t-13.5 -90q0 -36 10.5 -73t35.5 -73z" />
    <glyph glyph-name="thorn" unicode="&#xfe;" 
d="M599 467q44 -32 66.5 -81t22.5 -111q0 -79 -31 -137t-85 -91q-48 -29 -111 -36.5t-138 8.5v-128h-75v791h75v-182q91 19 160 9.5t116 -42.5v0zM527 111q35 21 56.5 62t21.5 106q0 60 -28 95t-70 50q-40 13 -88 10t-96 -18v-323q60 -12 112 -9t92 27v0z" />
    <glyph glyph-name="dcroat" unicode="&#x111;" 
d="M704 480h-79v-570h-80v48q-26 -26 -48 -40t-42 -20q-20 -7 -38.5 -8t-36.5 -1q-50 0 -91.5 18t-71.5 52t-46.5 82t-16.5 108q0 58 16.5 106t46.5 82t71.5 53t91.5 19q21 0 40.5 -1.5t39.5 -7.5q20 -7 41 -21.5t46 -41.5v143h-249v65h249v144h78v-144h79v-65zM392 -42
q39 0 68.5 14.5t49.5 40.5q19 26 29.5 60.5t10.5 74.5q0 39 -10.5 73.5t-29.5 60.5q-20 26 -49.5 41.5t-68.5 15.5q-38 0 -66.5 -15.5t-47.5 -41.5q-20 -26 -29.5 -60.5t-9.5 -73.5q0 -40 9.5 -74.5t29.5 -60.5q19 -26 47.5 -40.5t66.5 -14.5v0z" />
    <glyph glyph-name="Hbar" unicode="&#x126;" 
d="M278 552h344v121h71v-121h87v-69h-87v-548h-71v353h-344v-353h-69v548h-89v69h89v121h69v-121zM622 483h-344v-127h344v127z" />
    <glyph glyph-name="hbar" unicode="&#x127;" 
d="M349 326q20 29 43.5 45.5t47.5 24.5q25 7 51 7.5t53 -1.5q43 -5 70 -35t39 -60q6 -9 10 -35t6 -55t2.5 -55.5t0.5 -35.5l-1 -213h-69v256q0 75 -29 119.5t-88 44.5q-36 0 -62 -17t-42 -44q-17 -27 -24.5 -60.5t-7.5 -65.5v-233h-75v567h-103v66h103v142h75v-142h217v-66
h-217v-154z" />
    <glyph glyph-name="dotlessi" unicode="&#x131;" 
d="M489 -93h-80v575h80v-575z" />
    <glyph glyph-name="IJ" unicode="&#x132;" 
d="M194 -63v734h74v-734h-74zM634 115v556h74v-550q0 -54 -15.5 -92t-40.5 -63q-26 -24 -59.5 -35.5t-69.5 -11.5q-37 0 -70.5 11.5t-59.5 35.5q-25 25 -40 63t-15 92v71h75v-77q0 -36 11 -59t28 -36q16 -14 35.5 -19t35.5 -5q15 0 34.5 5t36.5 19q17 13 28.5 36t11.5 59v0z
" />
    <glyph glyph-name="ij" unicode="&#x133;" 
d="M647 596h-79v87h79v-87zM338 596h-81v87h81v-87zM646 482v-577q0 -39 -8 -63t-21 -36q-13 -15 -33 -23.5t-48 -9.5l-52 -1v69q7 0 15.5 1t16.5 3q8 1 15.5 4t12.5 8q9 7 14 15.5t7 17.5t2.5 19t0.5 21v552h78zM338 -79h-81v564h81v-564z" />
    <glyph glyph-name="kgreenlandic" unicode="&#x138;" 
d="M712 -114l-93 1l-188 279q-16 -17 -26.5 -28t-19.5 -20l-15 -15t-15 -14v-203h-76v578h76v-272q34 36 68 73.5t65 72.5q30 36 55 68t43 57l94 1q-17 -24 -40.5 -53.5t-50.5 -61.5t-56 -66t-57 -65q1 -2 9.5 -14.5t22.5 -31.5t32 -44t37 -52q19 -28 39 -56t38 -53
t33 -46.5t25 -34.5v0z" />
    <glyph glyph-name="Ldot" unicode="&#x13f;" 
d="M511 239q-23 0 -36.5 17t-13.5 39q0 21 13.5 39.5t36.5 18.5q24 0 38 -18.5t14 -39.5q0 -22 -14 -39t-38 -17v0zM682 -66h-450v740h75v-669h375v-71z" />
    <glyph glyph-name="ldot" unicode="&#x140;" 
d="M517 299q0 26 18 44.5t42 18.5q23 0 41.5 -18.5t18.5 -44.5q0 -27 -18.5 -44.5t-41.5 -17.5q-24 0 -42 17.5t-18 44.5v0zM402 -89h-78v771h78v-771z" />
    <glyph glyph-name="Lslash" unicode="&#x141;" 
d="M340 415l88 84l50 -45l-138 -135v-315h376v-71h-451v312l-69 -66l-51 45l120 117v332h75v-258z" />
    <glyph glyph-name="lslash" unicode="&#x142;" 
d="M658 467l-169 -152v-405h-81v333l-132 -120l-37 46l169 153v361h81v-291l133 120z" />
    <glyph glyph-name="napostrophe" unicode="&#x149;" 
d="M355 400q45 60 96.5 77t111.5 11q37 -5 64 -23.5t44 -44.5q18 -26 26.5 -57t8.5 -60v-390h-75v353q0 85 -38 119t-89 34q-69 0 -109 -52t-40 -127v-327h-74v555h74v-68zM265 608q25 -15 21.5 -40t-23.5 -55q-19 -29 -46.5 -60.5t-48.5 -58.5q-15 -18 -30.5 -7t-7.5 29
l67 165q8 18 28.5 27.5t39.5 -0.5v0z" />
    <glyph glyph-name="Eng" unicode="&#x14a;" 
d="M471 -42v77q58 1 102 40t44 119v269q0 60 -22 98.5t-86 35.5q-49 -3 -91 -24t-73 -50q-31 -28 -48.5 -58t-17.5 -51v-402h-79v658h79v-138q18 30 44.5 53t55.5 40q28 16 54.5 25.5t45.5 12.5q39 7 77.5 1.5t68.5 -22.5t48.5 -45.5t18.5 -66.5v-325q0 -60 -17 -106.5
t-47 -78.5q-29 -31 -69.5 -47t-87.5 -15v0z" />
    <glyph glyph-name="eng" unicode="&#x14b;" 
d="M321 401q32 57 85 76.5t113 12.5q32 -4 56.5 -22t40.5 -43t24.5 -54t8.5 -56v-357q0 -44 -8.5 -71t-17.5 -41q-9 -13 -32 -25.5t-56 -12.5h-35v68q13 1 27.5 5t24.5 15q11 8 16.5 19.5t7.5 24.5q1 10 1.5 20.5t0.5 21.5v290q0 81 -32.5 117t-81.5 36q-64 0 -103.5 -50
t-39.5 -123v-276h-71v495h71v-70z" />
    <glyph glyph-name="OE" unicode="&#x152;" 
d="M446 -45v20q-27 -20 -55 -28.5t-58 -8.5q-57 0 -104 27.5t-81 77.5q-34 49 -52.5 117t-18.5 149q0 76 19.5 141.5t54.5 114.5t83 77t104 28q27 0 54 -7.5t54 -25.5v12h380v-76h-308v-217h270v-74h-270v-252h308v-75h-380zM446 62v490q-27 23 -54 34t-57 11
q-43 0 -79 -21.5t-60 -59.5q-21 -33 -34 -91.5t-13 -113.5q0 -84 18 -145t52 -98q25 -28 54 -42.5t62 -14.5t61.5 13t49.5 38v0z" />
    <glyph glyph-name="oe" unicode="&#x153;" 
d="M452 46q-25 -82 -69.5 -115.5t-89.5 -33.5q-41 0 -75 21t-58 58q-25 38 -38.5 89.5t-13.5 112.5q0 60 13.5 111.5t38.5 89.5q24 37 58 58.5t75 21.5q45 0 86.5 -30.5t71.5 -108.5q27 73 71.5 105.5t88.5 32.5q34 0 67 -17.5t60 -54.5q26 -37 42 -95t16 -139h-296
q1 -33 8 -66t21 -59q14 -27 34.5 -43t47.5 -16q31 0 55 20.5t34 44.5h79q-22 -57 -61 -96t-105 -39q-21 0 -44 6.5t-45 23.5t-40.5 45.5t-31.5 72.5v0zM293 -37q28 0 49.5 19t35.5 49q14 31 21 69.5t7 77.5q0 38 -7 76.5t-21 69.5q-14 30 -35.5 49.5t-49.5 19.5
q-29 0 -50 -19.5t-35 -49.5q-15 -31 -21.5 -69.5t-6.5 -76.5q0 -39 6.5 -77.5t21.5 -69.5q14 -30 35 -49t50 -19v0zM503 218h216q-2 31 -10 61.5t-21 54.5q-14 24 -33.5 39t-43.5 15t-43.5 -14t-33.5 -37q-13 -24 -21.5 -54.5t-9.5 -64.5v0z" />
    <glyph glyph-name="Tbar" unicode="&#x166;" 
d="M412 375v227h-219v68h513v-68h-220v-227h189v-68h-189v-377h-74v377h-184v68h184z" />
    <glyph glyph-name="tbar" unicode="&#x167;" 
d="M599 245h-122v-192q0 -33 11 -41t44 -8h66v-78h-109q-56 0 -75.5 31t-19.5 80v208h-125v60h125v152l-100 -28l-19 54l119 35v100h83v-77l91 26l20 -53l-111 -33v-176h122v-60z" />
    <glyph glyph-name="caron" unicode="&#x2c7;" 
d="M652 767l-189 -153q-6 -6 -13 -5.5t-13 5.5l-190 152q-21 17 -10.5 28t35.5 -1l177 -91l178 92q24 12 35 1t-10 -28v0z" />
    <glyph glyph-name="uni02D0" unicode="&#x2d0;" horiz-adv-x="450" 
d="M223 409l-100 172h197zM123 115l100 172l97 -172h-197z" />
    <glyph glyph-name="breve" unicode="&#x2d8;" 
d="M661 783q-42 -66 -90 -95.5t-114 -32.5q-71 -4 -125 25t-99 97l45 28q36 -54 77 -76t97 -20q51 1 88 22t71 70z" />
    <glyph glyph-name="dotaccent" unicode="&#x2d9;" 
d="M518 735q0 -28 -21 -48t-48 -20q-30 0 -48.5 21.5t-18.5 48.5t21 46.5t47 19.5q27 0 47.5 -20.5t20.5 -47.5v0z" />
    <glyph glyph-name="ring" unicode="&#x2da;" 
d="M555 701q0 -42 -30.5 -70.5t-73.5 -28.5t-73 28.5t-30 70.5q0 41 30 70t73 29t73.5 -29t30.5 -70v0zM510 701q0 22 -17.5 39t-41.5 17t-41 -17t-17 -39q0 -23 17 -39.5t41 -16.5t41.5 16.5t17.5 39.5v0z" />
    <glyph glyph-name="ogonek" unicode="&#x2db;" horiz-adv-x="450" 
d="M252 -198q-33 0 -55.5 26t-22.5 62q0 26 14 53.5t40 50.5q5 4 9.5 6.5t6.5 2.5q5 0 8 -3.5t3 -7.5t-1.5 -8.5l-2.5 -7.5q-13 -22 -18 -36.5t-5 -32.5t9.5 -28.5t22.5 -10.5q10 0 17.5 5.5t14.5 12.5l12 12t12 6t8.5 -5t2.5 -11q0 -33 -22.5 -59.5t-52.5 -26.5v0z" />
    <glyph glyph-name="hungarumlaut" unicode="&#x2dd;" 
d="M490 793q9 -15 8.5 -30t-9.5 -22q-17 -15 -46.5 -32t-60.5 -32t-56 -25t-31 -11q-8 -1 -9 3t5 11q15 15 32.5 33.5t36.5 36.5q19 19 37 36t33 31q9 8 30 11t30 -10v0zM658 793q9 -15 8.5 -30t-9.5 -22q-17 -15 -46.5 -32t-60.5 -32t-56 -25t-31 -11q-8 -1 -9 3t5 11
q15 15 32.5 33.5t36.5 36.5q19 19 37 36t33 31q9 8 30 11t30 -10v0z" />
    <glyph glyph-name="Alpha" unicode="&#x391;" 
d="M747 -63h-81l-19 196h-350l-129 -196h-85l481 736h105zM639 206l-40 395l-257 -395h297z" />
    <glyph glyph-name="Beta" unicode="&#x392;" 
d="M540 671q49 -1 85 -14t62 -42q21 -24 31 -53t10 -62q0 -63 -35.5 -106.5t-110.5 -76.5q61 -27 91.5 -72t30.5 -107q0 -45 -17.5 -86t-45.5 -66q-30 -25 -69.5 -38t-89.5 -13h-361l210 737zM488 361q33 0 62 10.5t50 28.5q22 18 34.5 41.5t12.5 50.5q0 47 -32 77t-82 30
h-142l-69 -238h166zM223 8h259q67 0 106.5 35.5t39.5 95.5q0 31 -11 58t-30 47t-44.5 32t-54.5 12h-184z" />
    <glyph glyph-name="Gamma" unicode="&#x393;" 
d="M701 500l-29 84h-272l-163 -649h-82l185 737h387l47 -146z" />
    <glyph glyph-name="Delta" unicode="&#x394;" 
d="M660 9v554l-476 -554h476zM672 671h71v-735h-695z" />
    <glyph glyph-name="Epsilon" unicode="&#x395;" 
d="M346 672h423l-24 -73h-339l-74 -247h330l-25 -73h-326l-82 -271h363l-20 -73h-442z" />
    <glyph glyph-name="Zeta" unicode="&#x396;" 
d="M151 5l483 588h-363l22 79h467l-17 -70l-486 -587h396l-18 -79h-497z" />
    <glyph glyph-name="Eta" unicode="&#x397;" 
d="M358 673l-83 -324h381l81 324h81l-187 -737h-79l87 339h-382l-87 -339h-82l187 737h83z" />
    <glyph glyph-name="Theta" unicode="&#x398;" 
d="M711 594q30 -33 44.5 -81t14.5 -108q0 -57 -11.5 -115t-31.5 -110q-20 -53 -48 -97.5t-61 -74.5q-42 -40 -94 -59t-115 -19q-132 0 -199.5 69t-67.5 202q0 83 28.5 176t76.5 168q43 66 105.5 98t144.5 32q64 0 121.5 -21.5t92.5 -59.5v0zM320 515q-48 -67 -75 -149
t-27 -166q0 -68 17 -107t53 -61q21 -14 52.5 -21.5t68.5 -7.5q55 0 99.5 20t80.5 61q22 26 41.5 63.5t34.5 81.5q14 44 22.5 91t8.5 92q0 66 -21.5 105t-64.5 61q-22 12 -51 19t-59 7q-63 0 -105 -21.5t-75 -67.5v0zM361 335h186l13 55h45l-40 -175h-45l14 54h-185l-14 -54
h-44l38 175h45z" />
    <glyph glyph-name="Iota" unicode="&#x399;" 
d="M498 672h87l-189 -737h-87z" />
    <glyph glyph-name="Kappa" unicode="&#x39a;" 
d="M311 251l-80 -312h-80l183 729h81l-78 -301l325 301h103l-402 -370l299 -359h-95z" />
    <glyph glyph-name="Lambda" unicode="&#x39b;" 
d="M579 551l-389 -605h-85l454 717h98l2 -717h-81z" />
    <glyph glyph-name="Mu" unicode="&#x39c;" 
d="M304 572l-151 -636h-78l173 736h126l29 -599l273 599h139l-172 -736h-81l146 629l-290 -629h-84z" />
    <glyph glyph-name="Nu" unicode="&#x39d;" 
d="M496 -65l-156 626l-156 -626h-83l187 737h107l155 -635l162 635h84l-194 -737h-106z" />
    <glyph glyph-name="Xi" unicode="&#x39e;" 
d="M656 538l10 55h-286l-15 -55h-61l30 134h413l-33 -134h-58zM265 270l20 79h365l-20 -79h-365zM657 69l-34 -134h-465l32 134h62l-13 -55h340l16 55h62z" />
    <glyph glyph-name="Omicron" unicode="&#x39f;" 
d="M660 617q44 -33 64.5 -79.5t20.5 -118.5q0 -97 -33.5 -199.5t-91.5 -180.5q-36 -51 -84.5 -75t-111.5 -24q-121 0 -191 62t-70 170q0 80 23 165t65 164q48 88 104 126t141 38q48 0 89.5 -12t74.5 -36v0zM343 497q-23 -38 -41.5 -80.5t-31.5 -84.5q-14 -43 -21 -83t-7 -72
q0 -35 8.5 -59.5t26.5 -45.5q24 -24 59.5 -37.5t77.5 -13.5q67 0 109.5 31.5t81.5 116.5q29 60 47 132t18 129q0 52 -21.5 86.5t-66.5 54.5q-20 8 -43 12.5t-43 4.5q-52 0 -88 -21.5t-65 -69.5v0z" />
    <glyph glyph-name="Pi" unicode="&#x3a0;" 
d="M704 597l-145 -657h-81l144 657h-255l-148 -657h-82l150 657h-79l18 72h548l-20 -72h-50z" />
    <glyph glyph-name="Rho" unicode="&#x3a1;" 
d="M311 668h207q92 0 143 -54t51 -150q0 -57 -20.5 -105.5t-57.5 -75.5q-27 -21 -61.5 -30.5t-81.5 -9.5l-185 -1l-60 -302h-80zM320 316h158q31 0 56.5 5.5t42.5 17.5q23 17 37.5 52.5t14.5 78.5q0 63 -32.5 94.5t-98.5 31.5h-123z" />
    <glyph glyph-name="Sigma" unicode="&#x3a3;" 
d="M432 329l-163 265l22 74h434l-16 -72h-360l170 -271l-288 -314h393l-19 -72h-477l19 76z" />
    <glyph glyph-name="Tau" unicode="&#x3a4;" 
d="M502 596l-130 -657h-81l129 657h-217l18 72h484l-16 -72h-187z" />
    <glyph glyph-name="Upsilon" unicode="&#x3a5;" 
d="M300 -65l57 373q4 25 6.5 48t2.5 41q0 78 -30 126t-100 80l27 74q54 -21 85 -44.5t53 -59.5q11 -18 17.5 -38t9.5 -47q21 52 50.5 85t73.5 57q36 21 71.5 30t95.5 12l-19 -87q-70 -7 -117.5 -33.5t-82.5 -78.5q-24 -34 -42.5 -84.5t-28.5 -113.5l-54 -340h-75z" />
    <glyph glyph-name="Phi" unicode="&#x3a6;" 
d="M559 598q42 -5 67.5 -13t52.5 -23q46 -28 71.5 -79t25.5 -114q0 -81 -34.5 -158.5t-87.5 -129.5q-48 -48 -107.5 -66t-143.5 -18l-15 -52h-79l17 54q-102 17 -152 78t-50 167q0 96 42 177.5t117 129.5q41 25 86 37t113 15l17 58h74zM464 526q-48 -2 -81 -11t-60 -26
q-26 -17 -48.5 -43.5t-38.5 -58.5q-16 -33 -25 -70t-9 -73q0 -75 35.5 -118.5t107.5 -52.5zM421 70q49 1 77.5 8.5t55.5 23.5q64 37 104 108t40 149q0 75 -38.5 115.5t-119.5 49.5z" />
    <glyph glyph-name="Chi" unicode="&#x3a7;" 
d="M428 241l-249 -307h-90l308 379l-158 361h81l129 -290l219 290h90l-278 -367l169 -373h-83z" />
    <glyph glyph-name="Psi" unicode="&#x3a8;" 
d="M296 -66l42 215q-54 2 -85 8.5t-55 20.5q-36 19 -55.5 58.5t-19.5 87.5q0 31 7.5 73t25.5 111q9 34 13.5 58.5t4.5 33.5q0 18 -3.5 26.5t-9.5 12.5q-3 1 -5.5 2t-4.5 3q-2 1 -3 3.5t-1 6.5q0 3 1 4.5t3 2.5q2 0 4.5 0.5t5.5 1.5q12 1 28 3t30 0t24 -10t10 -26
q0 -12 -6 -41.5t-15 -64.5q-8 -28 -16.5 -66.5t-13.5 -63.5q-4 -18 -6 -36.5t-2 -31.5q0 -30 6 -49.5t23 -31.5q18 -12 48.5 -18t80.5 -7l90 446h76l-90 -446h7q57 0 93 8t61 35t42.5 79t37.5 141l12 52q5 23 10 44.5t11 42.5v0.5t1 1.5l0.5 1.5t1.5 3.5q6 22 23 29.5
t51 7.5h9.5h12.5q6 -1 11 -3t5 -7q0 -6 -3 -11.5t-9 -10.5q-8 -6 -13 -13.5t-9 -16.5q-4 -8 -7 -16.5t-6 -15.5q-3 -9 -6.5 -22.5t-7.5 -30.5t-9 -36.5t-10 -41.5q-15 -62 -28.5 -104.5t-29.5 -72.5q-15 -30 -34 -50t-44 -34q-28 -18 -69 -24.5t-104 -6.5h-10l-44 -215h-78z
" />
    <glyph glyph-name="Omega" unicode="&#x3a9;" 
d="M380 -56l27 98q66 29 103.5 53.5t69.5 61.5q45 50 70 114t25 133q0 87 -51.5 136t-142.5 49q-51 0 -88 -17t-68 -55q-30 -40 -48 -98.5t-18 -119.5q0 -56 14 -106.5t38 -89.5q9 -14 21.5 -28t36.5 -38l-25 -93h-231l18 68h164q-59 73 -83 141t-24 157q0 79 21 144.5
t61 113.5q39 47 94.5 73t124.5 26q58 0 106 -19.5t83 -53.5q34 -35 53 -84t19 -108q0 -79 -28.5 -153.5t-81.5 -131.5q-28 -31 -60.5 -55t-89.5 -50h172l-18 -68h-264z" />
    <glyph glyph-name="alpha" unicode="&#x3b1;" horiz-adv-x="650" 
d="M495 -52q-16 -5 -27 -6.5t-19 -1.5q-36 0 -52 20.5t-20 75.5q-36 -40 -79.5 -71.5t-99.5 -31.5q-66 0 -104.5 52.5t-38.5 136.5q0 78 27 156t76 130q33 38 71.5 56.5t80.5 18.5q66 0 102.5 -44.5t36.5 -125.5q-1 -8 -1.5 -17t-0.5 -19q0 -9 -0.5 -19t-0.5 -17
q24 51 43 107.5t31 115.5l69 -41q-16 -54 -29.5 -93t-29.5 -74q-17 -35 -37.5 -69.5t-50.5 -78.5q0 -42 3 -61t24 -19q8 0 13.5 1.5t37.5 13.5zM314 68q8 9 16.5 17t15.5 17q8 8 14 17.5t10 21.5q10 27 13.5 60t3.5 69q0 66 -22 97t-61 31t-69 -24.5t-63 -72.5
q-27 -39 -39.5 -83.5t-12.5 -84.5q0 -27 8.5 -48.5t23.5 -38.5q10 -15 24.5 -21.5t36.5 -6.5q26 0 49.5 11.5t51.5 38.5v0z" />
    <glyph glyph-name="beta" unicode="&#x3b2;" horiz-adv-x="650" 
d="M196 469q27 104 78 155.5t129 51.5q72 0 115.5 -43t43.5 -114q0 -63 -31 -104.5t-103 -68.5q16 -9 26 -16t19 -14q24 -21 36 -56.5t12 -74.5q0 -53 -17.5 -99t-47.5 -80t-71 -53.5t-87 -19.5q-45 0 -79 18t-67 63l-51 -192h-80zM296 386h43q36 0 60 8.5t45 27.5
q21 20 33 46t12 50q0 36 -24.5 59.5t-62.5 23.5q-45 0 -77.5 -36.5t-54.5 -113.5l-100 -367q24 -45 52.5 -64t67.5 -19q33 0 61 13.5t49 38.5q20 25 32 59t12 75q0 58 -30.5 93.5t-78.5 35.5h-54z" />
    <glyph glyph-name="gamma" unicode="&#x3b3;" horiz-adv-x="650" 
d="M196 -66l45 248q8 39 12.5 72.5t4.5 53.5q0 37 -22 58.5t-60 21.5q-19 0 -34 -5.5t-39 -22.5l-21 83q24 20 41.5 26t47.5 6q55 0 86 -23t52 -81q31 49 64.5 69t83.5 20q31 0 53.5 -7t55.5 -27l-33 -85q-29 15 -46.5 20.5t-36.5 5.5q-41 0 -61 -12t-35 -39
q-6 -10 -10 -19.5t-8 -22.5q-4 -14 -7.5 -35t-7.5 -54l-43 -251h-82z" />
    <glyph glyph-name="delta" unicode="&#x3b4;" horiz-adv-x="650" 
d="M582 590q-35 9 -55.5 12t-53.5 3q-48 0 -83 -5.5t-46 -11.5q-6 -3 -7 -6t-1 -8q0 -6 5.5 -15t29.5 -34q7 -8 16.5 -20.5t20.5 -26.5q10 -14 20.5 -28t19.5 -25q32 -45 48 -88t16 -90q0 -52 -15.5 -103.5t-44.5 -94.5q-39 -61 -90 -89.5t-120 -28.5q-78 0 -121.5 46.5
t-43.5 127.5q0 34 7 70.5t20 71.5q13 34 31 64.5t40 53.5q31 31 71.5 49t85.5 18q3 0 12.5 -1t19.5 -2q-35 44 -57 73t-38 53q-11 13 -16 24.5t-5 18.5q0 18 17 32.5t46 23.5q30 10 70 15.5t87 5.5q30 0 56.5 -3t72.5 -14zM222 305q-30 -44 -50 -101t-20 -102q0 -47 24 -73
t66 -26q22 0 46 7.5t42 20.5q22 18 42 45t35 58t23.5 64t8.5 64q0 51 -28 79t-75 28q-34 0 -63 -16t-51 -48v0z" />
    <glyph glyph-name="epsilon" unicode="&#x3b5;" horiz-adv-x="650" 
d="M545 375q-33 11 -56 18.5t-42 11.5q-18 4 -34.5 5.5t-34.5 1.5q-47 0 -75.5 -22.5t-28.5 -53.5q0 -24 21.5 -42t60.5 -18h128l-21 -70h-92q-87 0 -139 -33.5t-52 -83.5q0 -38 29 -60t86 -22q18 0 35.5 1.5t38.5 7.5q21 5 47.5 13.5t62.5 22.5l-23 -86
q-27 -10 -47.5 -16.5t-39.5 -9.5q-20 -4 -39.5 -5t-43.5 -1q-47 0 -81 7.5t-58 24.5q-27 19 -42 51.5t-15 66.5q0 59 36.5 101t112.5 66q-29 19 -41.5 40.5t-12.5 48.5q0 31 16 57.5t44 46.5q27 19 64 30.5t78 11.5q42 0 82 -8.5t108 -32.5z" />
    <glyph glyph-name="zeta" unicode="&#x3b6;" horiz-adv-x="650" 
d="M200 632h229q28 0 43 7t34 31q1 -2 9.5 -12.5t17.5 -23.5q9 -14 16.5 -29t7.5 -25q0 -14 -8 -21.5t-18 -10.5q-11 -4 -23 -5.5l-20 -2.5q-39 -50 -76.5 -97t-73.5 -93q-36 -47 -71 -94.5t-69 -98.5q-17 -23 -22.5 -36t-5.5 -27q0 -20 14.5 -30t65.5 -13q21 -2 48.5 -5
t45.5 -6q63 -11 94.5 -41t31.5 -84q0 -64 -40.5 -99.5t-108.5 -35.5q-13 0 -28.5 1.5t-48.5 4.5l19 80q24 -4 36 -4.5t22 -0.5q33 0 46.5 11.5t13.5 32.5q0 20 -19 35t-60 19q-23 2 -38 3.5t-26 2.5q-10 1 -15.5 1.5t-8.5 1.5h-3.5t-3.5 1q-1 0 -2 0.5t-2 0.5
q-53 9 -79.5 36.5t-26.5 77.5q0 34 16.5 67.5t64.5 95.5l236 307h-242z" />
    <glyph glyph-name="eta" unicode="&#x3b7;" horiz-adv-x="650" 
d="M397 -139l78 439q0 6 1 13t1 17q0 34 -21 52.5t-68 18.5q-61 0 -108 -38.5t-56 -94.5l-51 -293h-81l87 494h77l-10 -61q36 37 77 54.5t80 17.5q71 0 114 -36.5t43 -102.5q0 -11 -1 -19.5t-2 -14.5l-80 -446h-80z" />
    <glyph glyph-name="theta" unicode="&#x3b8;" horiz-adv-x="650" 
d="M571 482q0 -49 -10.5 -107t-28.5 -116q-18 -59 -42 -114.5t-51 -98.5q-36 -58 -80 -86.5t-96 -28.5q-83 0 -124 48.5t-41 147.5q0 52 9 110.5t24 116.5q16 58 37.5 111.5t47.5 94.5q33 51 83.5 83t102.5 32q81 0 125 -50t44 -143v0zM478 325q9 45 15.5 88t6.5 72
q0 58 -25 89.5t-73 31.5q-39 0 -70 -22.5t-54 -55.5q-24 -33 -40 -71.5t-25 -70.5q-5 -11 -9 -27t-7 -34h281zM186 262q-8 -42 -11.5 -77t-3.5 -68q0 -62 21.5 -89.5t72.5 -27.5q30 0 58 18t56 58q26 39 45 90t33 96h-271z" />
    <glyph glyph-name="iota" unicode="&#x3b9;" horiz-adv-x="420" 
d="M308 469l-103 -386q-8 -28 -11 -44.5t2 -25.5q4 -9 17.5 -11.5t39.5 -2.5q6 0 16.5 1t20.5 4l-14 -66h-107q-46 0 -59 26.5t-3 60.5l129 444h72z" />
    <glyph glyph-name="kappa" unicode="&#x3ba;" horiz-adv-x="650" 
d="M199 194l-55 -256h-80l121 531h84l-49 -197l263 197h103l-318 -247l215 -284h-91z" />
    <glyph glyph-name="lambda" unicode="&#x3bb;" horiz-adv-x="650" 
d="M250 675q45 -20 70.5 -39t49.5 -50q31 -40 51.5 -91t34.5 -106q15 -55 26 -110.5t24 -104.5q0 -4 1 -8t3 -9q17 -63 37.5 -104t50.5 -72l-76 -48q-23 30 -32 45t-18 33q-14 27 -24.5 62t-19.5 72t-16 73t-13 66q-3 10 -4.5 20.5t-3.5 21.5q-2 10 -4 20.5t-4 21.5
q-17 -10 -28 -19t-21 -23q-10 -13 -20.5 -33t-24.5 -51q-9 -19 -17 -35l-14 -28q-6 -13 -9.5 -20.5t-4.5 -8.5q-21 -43 -39 -75t-36 -56q-18 -25 -38 -45.5t-45 -40.5l-64 65q30 19 54.5 42t48.5 56q23 34 49 81.5t61 116.5q15 30 26.5 50.5t25.5 36.5q13 16 29.5 29.5
t41.5 29.5q-15 39 -28.5 65.5t-29.5 46.5q-16 19 -37 33.5t-50 28.5z" />
    <glyph glyph-name="mu" unicode="&#x3bc;" horiz-adv-x="650" 
d="M530 138q-3 -21 -5.5 -43t-2.5 -36q0 -22 9.5 -30.5t49.5 -12.5l-17 -70h-20q-45 0 -68.5 14t-32.5 50q-39 -44 -70 -60.5t-71 -16.5q-41 0 -71 18.5t-52 60.5l-32 -146h-83l126 610h83l-61 -302q-3 -13 -4 -27t-1 -24q0 -48 27.5 -76.5t72.5 -28.5q51 0 92 40.5
t53 109.5l55 308h83z" />
    <glyph glyph-name="nu" unicode="&#x3bd;" horiz-adv-x="650" 
d="M611 399h-12h-9q-5 0 -8 0.5t-4 0.5q-11 0 -18.5 -2.5t-14.5 -11.5t-16 -28t-22 -53q-9 -21 -17 -41.5t-16 -40.5q-8 -21 -16.5 -41t-17.5 -40q-48 -113 -84.5 -164.5t-77.5 -51.5q-25 0 -39 11.5t-21 28.5q-8 17 -10.5 37t-3.5 38l-6 83l-3 27q-9 78 -15.5 126.5
t-15.5 74.5q-8 26 -19.5 35t-28.5 9q-11 0 -21 -6.5t-27 -30.5l-46 71q28 31 50 43.5t52 12.5q39 0 65.5 -18t43.5 -58t25.5 -104.5t12.5 -157.5q1 -18 1.5 -32.5t0.5 -26.5q1 -12 1 -22t1 -19q1 -16 3 -21.5t11 -5.5q5 0 11.5 5t16.5 23q14 22 26 46.5t22 50.5
q11 26 20.5 52.5t19.5 51.5q10 27 18.5 49t14.5 38t9.5 24.5t3.5 9.5q18 74 59.5 96.5t114.5 23.5z" />
    <glyph glyph-name="xi" unicode="&#x3be;" horiz-adv-x="650" 
d="M389 271q-42 0 -80 -13.5t-66 -35.5q-29 -23 -45.5 -52t-16.5 -61q0 -30 18.5 -46t70.5 -24q47 -8 77 -15.5t49 -16.5q28 -15 43.5 -39t15.5 -56q0 -63 -40.5 -96t-112.5 -33q-15 0 -29.5 2t-47.5 8l21 74q20 -6 31 -7.5t23 -1.5q36 0 53 11.5t17 32.5q0 15 -11 24.5
t-27 15.5q-15 5 -31.5 8l-27.5 5q-17 3 -32.5 6t-30.5 7t-29.5 10t-28.5 16q-26 16 -39.5 43.5t-13.5 63.5q0 45 24 88t69 79q23 18 45.5 29.5t58.5 23.5q-39 18 -54.5 38.5t-15.5 50.5q0 38 22.5 67t74.5 54l-1 4h-91l19 71h214q18 0 36.5 9.5t33.5 29.5l7.5 -9.5
t16.5 -21.5q9 -13 16.5 -26t7.5 -20q0 -8 -6.5 -11t-13.5 -3q-11 0 -18.5 -0.5t-15.5 -2.5q-8 -1 -19.5 -4.5t-30.5 -8.5q-99 -27 -136.5 -54.5t-37.5 -64.5q0 -35 28.5 -56t82.5 -21h75l-20 -71h-81z" />
    <glyph glyph-name="omicron" unicode="&#x3bf;" horiz-adv-x="650" 
d="M557 300q0 -80 -30 -159t-83 -134q-34 -39 -77 -57t-97 -18q-84 0 -134 52.5t-50 141.5q0 43 10.5 88.5t29.5 88.5q19 42 44.5 78.5t55.5 60.5q29 21 67.5 33.5t74.5 12.5q91 0 140 -48.5t49 -139.5v0zM213 295q-21 -43 -33 -91t-12 -87q0 -50 29 -77.5t82 -27.5
q46 0 82.5 26t66.5 86q22 42 36 92t14 90q0 51 -29 79t-81 28q-48 0 -86.5 -28t-68.5 -90v0z" />
    <glyph glyph-name="pi" unicode="&#x3c0;" horiz-adv-x="650" 
d="M38 -7q38 56 60 104.5t38 115.5q10 41 16.5 85t15.5 120h-88l16 73h520l-20 -73h-78q-17 -70 -30.5 -147.5t-13.5 -148.5q0 -17 0.5 -36.5t5.5 -40.5q6 -21 17 -42t32 -40l-77 -17q-29 33 -41 73.5t-12 77.5q0 27 2 55.5t7 65.5q4 37 12.5 85t20.5 115h-198
q-3 -23 -5.5 -46.5t-5.5 -47.5t-6.5 -47.5t-7.5 -45.5q-6 -26 -12 -47t-15 -48q-10 -32 -19 -56t-19 -46t-22 -43.5t-28 -47.5z" />
    <glyph glyph-name="rho" unicode="&#x3c1;" horiz-adv-x="650" 
d="M159 317q21 81 81.5 128t140.5 47q87 0 133 -49t46 -141q0 -66 -20.5 -125.5t-54.5 -104.5q-35 -45 -80.5 -71.5t-96.5 -26.5q-45 0 -74.5 19.5t-60.5 73.5l-50 -193h-82zM199 164q0 -54 26.5 -84.5t73.5 -30.5q36 0 67 19t58 59q27 39 41 85t14 94q0 54 -26.5 81.5
t-77.5 27.5q-53 0 -90.5 -30t-51.5 -86z" />
    <glyph glyph-name="sigma" unicode="&#x3c3;" horiz-adv-x="650" 
d="M255 361q-20 -20 -37 -47t-29 -58q-13 -30 -20 -62.5t-7 -62.5q0 -58 24 -88t66 -30q33 0 65.5 21.5t57.5 57.5q26 36 41.5 83t15.5 98q0 63 -25 95t-67 32q-21 0 -45 -11t-40 -28v0zM533 497q-48 -17 -70.5 -25.5t-43.5 -17.5q50 -28 70 -66.5t20 -99.5
q0 -72 -20.5 -136t-55.5 -113q-35 -48 -81.5 -76.5t-99.5 -28.5q-78 0 -121 55t-43 151q0 78 27.5 150t76.5 123q25 25 63.5 48t82.5 42q43 20 86.5 35.5t78.5 27.5z" />
    <glyph glyph-name="tau" unicode="&#x3c4;" horiz-adv-x="650" 
d="M554 467l-14 -76q-26 -6 -42 -7.5t-38 -1.5q-11 0 -36.5 1.5t-61.5 5.5l-56 -331q-6 -33 8 -43t62 -7l37 5l-11 -69q-39 -5 -64.5 -6.5t-49.5 -1.5q-36 -1 -58 16.5t-16 42.5l5 40l59 359q-27 3 -41 4t-18 1q-30 0 -57.5 -4.5t-54.5 -12.5l9 75q33 9 56.5 11.5t62.5 2.5
q18 0 43.5 -1t52.5 -3l26 -4q28 -3 43.5 -4.5t24.5 -1.5q9 -1 13.5 -1h13.5q26 0 46 1.5t56 9.5v0z" />
    <glyph glyph-name="upsilon" unicode="&#x3c5;" horiz-adv-x="650" 
d="M524 487q18 -27 26.5 -49t8.5 -48q0 -39 -13.5 -94.5t-37.5 -134.5q-23 -67 -46.5 -110.5t-52.5 -68.5q-29 -26 -67.5 -36t-92.5 -10q-79 0 -122.5 23.5t-43.5 74.5q0 13 2.5 27t6.5 28q3 14 8 28l10 28q8 27 15 48t11 36q5 15 7.5 23.5t2.5 10.5q1 4 4.5 17.5t8.5 30.5
q4 16 7.5 32t3.5 25q0 18 -8 30t-33 24l67 53q27 -21 40.5 -43.5t13.5 -49.5q0 -25 -8 -61t-19 -74q-12 -39 -24 -76t-20 -63q-5 -15 -8 -31t-3 -34q0 -21 20.5 -27t56.5 -6q57 0 85 10.5t47 39.5q17 22 31 57t29 85q22 73 32 117.5t10 68.5q0 18 -6 33t-22 33z" />
    <glyph glyph-name="phi" unicode="&#x3c6;" horiz-adv-x="650" 
d="M171 -128l39 135q-93 12 -141 59t-48 128q0 111 66.5 189t194.5 111l8 -75q-54 -18 -81.5 -33.5t-48.5 -40.5q-30 -29 -42 -64.5t-12 -80.5q0 -57 27 -86t96 -38l87 284q17 58 60.5 94t97.5 36q70 0 110 -51t40 -136q0 -140 -83 -218.5t-231 -78.5h-18l-39 -134h-82z
M309 73q60 3 96.5 14.5t63.5 36.5q31 27 53 81t22 108q0 49 -19 74.5t-50 25.5q-18 0 -31.5 -7.5t-27.5 -27.5q-10 -14 -17 -27.5t-11 -25.5z" />
    <glyph glyph-name="chi" unicode="&#x3c7;" horiz-adv-x="650" 
d="M376 217l77 -173q15 -33 35 -43t58 -10l-12 -51l-41 -1q-55 -1 -78.5 13t-38.5 48l-66 144l-159 -205l-101 1l229 276l-64 144q-11 24 -31.5 35t-45.5 11h-15l-11 61h91q35 0 54.5 -12.5t31.5 -42.5l57 -118l135 173h98z" />
    <glyph glyph-name="psi" unicode="&#x3c8;" horiz-adv-x="650" 
d="M190 421q-27 -21 -38.5 -38t-23.5 -45q-11 -28 -19.5 -59.5t-14.5 -61.5q-6 -31 -9.5 -59.5t-3.5 -49.5q0 -35 10.5 -54t28.5 -27q18 -9 42 -10.5t51 -1.5h28l107 534h81l-109 -533q64 5 98 16t60 31q42 36 62 108t20 194q0 23 -1.5 35.5t-7.5 37.5l73 18q8 -30 12 -53.5
t4 -66.5q0 -72 -13.5 -140t-37.5 -114q-23 -50 -62.5 -81.5t-98.5 -48.5q-24 -6 -50.5 -10t-73.5 -7l-19 -79h-77l17 79q-65 1 -95.5 6t-51.5 16q-36 18 -54 56t-18 91q0 34 5 74.5t14 80.5q8 40 20 76.5t26 62.5q12 24 24.5 39t36.5 36z" />
    <glyph glyph-name="omega" unicode="&#x3c9;" horiz-adv-x="650" 
d="M587 477q21 -64 29.5 -110t8.5 -97q0 -71 -17 -132.5t-47 -108.5q-29 -46 -69.5 -72.5t-87.5 -26.5q-44 0 -78 23t-53 72q-27 -48 -55.5 -68.5t-64.5 -20.5q-66 0 -104.5 53t-38.5 138q0 53 18.5 111t53.5 116q16 24 38 51.5t61 71.5h100q-32 -38 -66 -78.5t-61 -84.5
q-28 -45 -46 -93.5t-18 -100.5q0 -53 19 -80.5t52 -27.5q27 0 49.5 25t40.5 78l77 257h82l-76 -259q-3 -8 -4.5 -14.5t-1.5 -15.5q0 -33 21 -55t48 -22q30 0 57 19t47 53t32.5 80.5t12.5 101.5q0 50 -10 99t-37 118h88z" />
    <glyph glyph-name="afii10023" unicode="&#x401;" 
d="M277 484v-178h365v-74h-365v-218h412v-70h-481v612h481v-72h-412zM486 652q0 25 18 42.5t41 17.5q21 0 39 -17.5t18 -42.5q0 -27 -18.5 -43.5t-40.5 -16.5q-21 0 -39 17t-18 43v0zM299 652q0 26 18.5 43t40.5 17q21 0 39.5 -17.5t18.5 -42.5q0 -27 -18 -43.5t-42 -16.5
q-21 0 -39 17t-18 43v0z" />
    <glyph glyph-name="afii10017" unicode="&#x410;" 
d="M305 161l-82 -217h-80l267 723h80l260 -723h-81l-79 217h-285zM331 233h232l-113 332z" />
    <glyph glyph-name="afii10018" unicode="&#x411;" 
d="M308 590v-218h153q54 0 93.5 -9t70.5 -29q40 -27 61 -73.5t21 -106.5q0 -108 -60 -160t-176 -52h-241v724h378l63 -75l-48 -61l-48 60h-267zM308 294v-276h163q82 0 120.5 34t38.5 100q0 73 -38.5 107.5t-128.5 34.5h-155z" />
    <glyph glyph-name="afii10019" unicode="&#x412;" 
d="M625 630q33 -23 49 -61t16 -88q0 -49 -20 -86t-63 -64q57 -27 83.5 -70.5t26.5 -106.5q0 -105 -55.5 -157t-166.5 -52h-286v719h265q56 0 91 -8t60 -26v0zM282 592v-229h219q53 0 85 33t32 87q0 50 -30.5 79.5t-87.5 29.5h-218zM490 16q30 0 58.5 6.5t49.5 22.5
q22 16 35 41t13 62q0 65 -41.5 104t-111.5 39h-211v-275h208z" />
    <glyph glyph-name="afii10020" unicode="&#x413;" 
d="M609 593h-262v-657h-75v657h-68v77h440l60 -96l-57 -44z" />
    <glyph glyph-name="afii10021" unicode="&#x414;" 
d="M588 -58h-302q-20 -27 -39 -41.5t-53 -32.5l-48 64q25 13 42 26.5t28 29.5q11 17 17 37.5t11 49.5q2 14 3 27.5t3 43.5q1 33 2.5 65.5t1.5 53.5v326h-35v74h467v-74h-36v-596l66 -72l-54 -56zM324 243q0 -27 -1 -63.5t-4 -70.5q-2 -28 -4.5 -51t-5.5 -45h271v578h-256
v-348z" />
    <glyph glyph-name="afii10022" unicode="&#x415;" 
d="M694 593h-408v-234h361v-72h-361v-271h408v-72h-482v721h482v-72z" />
    <glyph glyph-name="afii10024" unicode="&#x416;" 
d="M194 315q12 15 27 23t45 12q-19 24 -27 49t-13 67q-4 36 -10 59.5t-16 36.5q-11 14 -28 20t-43 8v76q45 -3 75.5 -12.5t49.5 -29.5q20 -20 31 -52t17 -79q6 -63 19.5 -90t38.5 -38q8 -3 20 -4.5t36 -1.5v307h72v-307q44 1 67.5 15t35.5 35q11 22 13.5 49t5.5 55
q2 26 8 52t24 48q18 21 52 35.5t92 17.5v-76q-60 -4 -80 -27.5t-26 -58.5q-3 -18 -5 -36.5t-6 -38.5q-4 -19 -11.5 -38t-22.5 -37q45 -9 67 -23.5t37 -42.5q14 -28 21 -75t10 -118q1 -53 6.5 -84t20.5 -67h-81q-9 25 -13 62t-7 102q-2 26 -3.5 43t-3.5 29q-1 12 -3.5 21
t-5.5 21q-9 31 -32 46.5t-65 15.5h-95v-340h-72v340h-108q-24 0 -40.5 -7.5t-28.5 -27.5q-11 -19 -17 -53t-9 -86q-2 -39 -4 -65t-4 -44q-2 -19 -4.5 -32t-6.5 -25h-85q9 18 14.5 32.5t9.5 33.5q3 18 5 44t5 66q4 72 15.5 120t35.5 75v0z" />
    <glyph glyph-name="afii10025" unicode="&#x417;" 
d="M685 482q0 -53 -19.5 -90.5t-66.5 -69.5q55 -27 81.5 -70t26.5 -100q0 -105 -63 -159t-179 -54q-77 0 -132.5 24t-88.5 75q-22 31 -31.5 64t-12.5 92h67q9 -57 18 -81.5t28 -44.5q24 -27 63.5 -41.5t90.5 -14.5q79 0 120 33.5t41 96.5q0 61 -41.5 95t-122.5 34h-51v80h51
q61 0 98 36t37 96q0 52 -37.5 82t-112.5 30q-77 0 -125.5 -40.5t-78.5 -131.5h-51v137l32 -12q42 62 96.5 90.5t128.5 28.5q103 0 168.5 -50.5t65.5 -134.5v0z" />
    <glyph glyph-name="afii10026" unicode="&#x418;" 
d="M628 543l-355 -607h-81v736h76v-592l350 592h88v-736h-78v607z" />
    <glyph glyph-name="afii10027" unicode="&#x419;" 
d="M629 424l-364 -487h-72v611h76v-488l357 488h81v-611h-78v487zM447 559q-30 0 -58 15.5t-47 44.5q-12 18 -20 39t-17 63h75q12 -39 29.5 -55.5t41.5 -16.5q23 0 40.5 16t31.5 56h75q-13 -45 -22.5 -66t-22.5 -39q-21 -27 -48.5 -42t-57.5 -15v0z" />
    <glyph glyph-name="afii10028" unicode="&#x41a;" 
d="M373 366q36 0 57.5 7t33.5 22t18.5 38.5t13.5 55.5q3 14 5 24t4 17t3 11t1 6q2 3 3.5 5.5t2.5 5.5q11 39 29 61t41 33q24 11 53 14.5t63 6.5l1 -83h-17q-51 0 -73 -18.5t-34 -71.5q-9 -40 -16 -67t-14 -45q-8 -19 -16 -32t-20 -25l233 -394h-85l-206 356q-18 -7 -34 -9.5
t-38 -2.5h-88v-344h-77v735h77v-306h79z" />
    <glyph glyph-name="afii10029" unicode="&#x41b;" 
d="M579 -57v651h-241q-1 -45 -2.5 -90.5t-3.5 -90.5q-4 -93 -9 -157.5t-12 -121.5q-8 -54 -19 -91t-29 -61t-45.5 -37.5t-68.5 -19.5l-21 82q44 6 61.5 17t26.5 32q8 19 13 44t11 67q3 27 6 65.5t6 85.5q3 46 5 98t4 106l2 72h-68v77h530v-77h-72v-651h-74z" />
    <glyph glyph-name="afii10030" unicode="&#x41c;" 
d="M602 671h96l108 -733h-76l-89 579l-156 -579h-74l-148 575l-88 -575h-74l107 733h94l146 -583z" />
    <glyph glyph-name="afii10031" unicode="&#x41d;" 
d="M633 373v308h86v-753h-86v366h-369v-366h-86v753h86v-308h369z" />
    <glyph glyph-name="afii10032" unicode="&#x41e;" 
d="M181 302q0 175 68.5 273t198.5 98q132 0 204.5 -99.5t72.5 -271.5q0 -86 -19 -154.5t-55 -115.5q-36 -48 -87.5 -73.5t-115.5 -25.5q-63 0 -112.5 25.5t-84.5 73.5q-34 48 -52 116t-18 154v0zM644 303q0 138 -51 213.5t-141 75.5t-141 -77t-51 -213q0 -133 51 -209.5
t141 -76.5t141 75t51 212v0z" />
    <glyph glyph-name="afii10033" unicode="&#x41f;" 
d="M657 591v-653h-75v653h-262v-653h-74v653h-82v80h571v-80h-78z" />
    <glyph glyph-name="afii10034" unicode="&#x420;" 
d="M219 671l285 -1q106 0 163 -53.5t57 -157.5t-56.5 -156t-163.5 -52l-205 -1v-312h-80v733zM299 589v-256h205q69 0 104 31t35 93q0 65 -35 98.5t-102 33.5h-207z" />
    <glyph glyph-name="afii10035" unicode="&#x421;" 
d="M452 600q-98 0 -155.5 -76.5t-57.5 -210.5q0 -77 19 -142.5t53 -101.5q22 -30 55.5 -44.5t78.5 -14.5t85.5 19.5t65.5 55.5q15 21 25 49.5t19 82.5h82q-11 -75 -25.5 -117t-41.5 -78q-37 -45 -93.5 -71t-117.5 -26q-67 0 -120.5 27.5t-90.5 77.5t-56.5 121t-19.5 158
q0 83 20.5 152t58.5 118t92.5 76.5t122.5 27.5q74 0 138 -36t97 -97q16 -28 23.5 -57t11.5 -84h-82q-6 40 -11 59.5t-13 36.5q-22 43 -65.5 69t-97.5 26v0z" />
    <glyph glyph-name="afii10036" unicode="&#x422;" 
d="M191 671h515v-79h-218v-654h-79v654h-218v79z" />
    <glyph glyph-name="afii10037" unicode="&#x423;" 
d="M716 680l-244 -634q-9 -24 -18 -47.5t-22 -41.5q-14 -19 -34 -30t-51 -11q-14 0 -31 2t-44 10v92q30 -9 43 -11.5t25 -2.5q17 0 26.5 8t20.5 36l46 112l-255 518h89l204 -427l163 427h82z" />
    <glyph glyph-name="afii10038" unicode="&#x424;" 
d="M123 299q0 75 28.5 142t81.5 106q35 29 76 43.5t105 20.5v66h70v-65q70 -6 112 -21t80 -48q48 -39 73 -102.5t25 -137.5q0 -75 -25.5 -137.5t-73.5 -100.5q-38 -33 -80.5 -46.5t-110.5 -16.5v-71h-70v71q-68 3 -109.5 17.5t-79.5 47.5q-51 39 -76.5 99.5t-25.5 132.5v0z
M485 537v-463q102 10 159.5 69t57.5 164t-53 164.5t-164 65.5v0zM198 307q0 -57 20 -104t57 -74q27 -21 58 -35t82 -20v460q-55 -3 -86 -16.5t-59 -36.5q-35 -29 -53.5 -74t-18.5 -100v0z" />
    <glyph glyph-name="afii10039" unicode="&#x425;" 
d="M144 -67l256 380l-242 363h97l193 -289l191 289h100l-243 -362l257 -381h-100l-205 309l-208 -309h-96z" />
    <glyph glyph-name="afii10040" unicode="&#x426;" 
d="M297 675v-663h272v663h76v-675l81 -89l-63 -57l-72 78h-441v80h70v663h77z" />
    <glyph glyph-name="afii10041" unicode="&#x427;" 
d="M302 310q13 -21 43 -33.5t72 -12.5q84 0 125.5 42.5t41.5 133.5v236h78v-744h-78v315q-33 -35 -74.5 -51t-93.5 -16q-66 0 -112.5 20.5t-70.5 62.5q-17 29 -22.5 65t-5.5 106v242h78v-254q0 -40 5 -68.5t14 -43.5v0z" />
    <glyph glyph-name="afii10042" unicode="&#x428;" 
d="M258 676v-665h153v665h78v-665h149v665h78v-665h61v-78h-660v78h65v665h76z" />
    <glyph glyph-name="afii10043" unicode="&#x429;" 
d="M243 10h170v665h78v-665h165v665h78v-699l43 -74l-60 -49l-50 79h-556v78h55v665h77v-665z" />
    <glyph glyph-name="afii10044" unicode="&#x42a;" 
d="M531 295h-209v-282h197q73 0 107 32.5t34 99.5q0 72 -33 111t-96 39v0zM322 369h208q103 0 154.5 -54.5t51.5 -162.5t-49.5 -161t-150.5 -53h-288v658h-124v75h198v-302z" />
    <glyph glyph-name="afii10045" unicode="&#x42b;" 
d="M379 -67l-213 -1v744h78v-305h135q99 0 153.5 -58.5t54.5 -163.5t-53.5 -160.5t-154.5 -55.5v0zM360 293h-116v-282h117q73 0 110 36.5t37 105.5q0 66 -37.5 103t-110.5 37v0zM658 676h79v-744h-79v744z" />
    <glyph glyph-name="afii10046" unicode="&#x42c;" 
d="M714 156q0 -61 -17.5 -109t-48.5 -75q-26 -21 -59.5 -29.5t-83.5 -8.5h-286v744h77v-305h209q104 0 156.5 -54.5t52.5 -162.5v0zM599 43q16 16 26 45t10 70q0 69 -31 103.5t-95 34.5h-213v-283h213q34 0 54.5 8t35.5 22v0z" />
    <glyph glyph-name="afii10047" unicode="&#x42d;" 
d="M439 13q63 0 112 32t70 86q9 24 14 51t11 76q-22 -17 -37 -24.5t-28 -7.5q-24 0 -45.5 10.5t-41.5 23.5q-21 13 -39.5 24t-35.5 11q-15 0 -34 -13t-56 -52l-31 74q42 37 68 52t53 15q23 0 45.5 -10t43.5 -21t39.5 -20.5t34.5 -9.5q9 0 24 6.5t41 24.5q-6 121 -57.5 186.5
t-141.5 65.5q-47 0 -82 -15.5t-59 -45.5q-19 -23 -30 -49.5t-22 -78.5h-73q8 66 21.5 104t43.5 73q36 44 88.5 68t112.5 24q78 0 142 -40.5t94 -112.5q18 -44 27.5 -96.5t9.5 -101.5q0 -103 -20.5 -178.5t-62.5 -123.5q-37 -42 -90 -64.5t-113 -22.5q-61 0 -110.5 21.5
t-81.5 64.5q-24 30 -37.5 65t-23.5 102h73q7 -38 13.5 -56t16.5 -35q24 -40 63.5 -61t90.5 -21v0z" />
    <glyph glyph-name="afii10048" unicode="&#x42e;" 
d="M708 101q19 33 31.5 91.5t12.5 112.5q0 147 -51.5 223t-144.5 76q-39 0 -73 -22t-59 -61q-26 -39 -40 -93t-14 -118q0 -68 14 -123.5t39 -95.5q26 -39 61 -60.5t78 -21.5q45 0 83 23.5t63 68.5v0zM185 371h108q5 44 11 70.5t16 55.5q33 87 97.5 137.5t145.5 50.5
q60 0 108 -27.5t83 -76.5q34 -49 52.5 -117.5t18.5 -151.5q0 -87 -18 -157.5t-51 -120.5q-34 -50 -81.5 -77.5t-107.5 -27.5q-78 0 -141 49.5t-99 139.5q-17 40 -24 76.5t-10 95.5h-108v-349h-75v733h75v-303z" />
    <glyph glyph-name="afii10049" unicode="&#x42f;" 
d="M266 305q-41 24 -60.5 66.5t-19.5 102.5q0 93 45.5 145t130.5 52h319v-734h-73v333h-207q-36 0 -59.5 -7.5t-36.5 -27.5q-14 -21 -20 -57.5t-8 -95.5q-1 -31 -2 -51.5t-3 -36.5q-2 -15 -5.5 -28.5t-9.5 -28.5h-86q17 37 23.5 67.5t6.5 75.5q0 48 3 83t10 62q7 26 19.5 45
t32.5 35v0zM372 348h236v247h-236q-54 0 -82 -31t-28 -87q0 -60 29.5 -94.5t80.5 -34.5v0z" />
    <glyph glyph-name="afii10065" unicode="&#x430;" 
d="M640 316v-260q0 -36 5.5 -57.5t26.5 -51.5l-82 -5q-4 6 -6 10t-4 7q-1 3 -2 5t-1 4q-3 5 -4.5 15.5t-1.5 22.5q-44 -42 -88 -57.5t-101 -15.5q-80 0 -125.5 40.5t-45.5 115.5q0 51 18.5 83t48.5 51q31 18 71 27t84 15q39 4 56.5 7t35.5 11q16 7 23.5 17t7.5 24
q0 32 -29 53.5t-82 21.5q-66 0 -101 -27.5t-41 -79.5h-79q3 48 17 79.5t45 55.5q28 23 69 35.5t86 12.5q98 0 148.5 -39.5t50.5 -119.5v0zM305 152q-12 -13 -15.5 -25.5t-3.5 -29.5q0 -39 26 -60.5t76 -21.5q84 0 130 38.5t46 112.5v59q-27 -17 -63.5 -22t-73.5 -9
q-38 -5 -71 -13t-51 -29v0z" />
    <glyph glyph-name="afii10066" unicode="&#x431;" 
d="M327 372q24 35 56.5 52t72.5 17q88 0 138.5 -67t50.5 -178q0 -117 -51.5 -187t-141.5 -70q-48 0 -90 26.5t-67 75.5q-22 39 -35.5 108t-13.5 140q0 84 12 154.5t35 120.5q23 51 56.5 79t77.5 28q9 0 15.5 -1.5t12.5 -3.5q6 -3 11.5 -6t12.5 -7q14 -11 33 -16t31 -5
q18 0 35 4.5t50 21.5v-80q-25 -16 -41 -21.5t-33 -5.5q-9 0 -23 1t-29 4q-14 2 -25 7t-20 11q-2 1 -5.5 2.5t-6.5 3.5t-6 3.5t-4 1.5q-47 0 -74.5 -47t-33.5 -166v0zM574 190q0 81 -33 128.5t-85 47.5q-53 0 -88 -48.5t-35 -127.5q0 -76 35 -123.5t84 -47.5q51 0 86.5 47
t35.5 124v0z" />
    <glyph glyph-name="afii10067" unicode="&#x432;" 
d="M480 396h-168v-152h168q43 0 73 25t30 57q0 30 -26 50t-77 20v0zM608 91q0 20 -10 34t-29 23q-18 9 -42 16t-45 7h-170v-163h171q21 0 41 6t38 13q23 8 34.5 25t11.5 39v0zM660 335q0 -39 -17.5 -69.5t-53.5 -48.5q51 -21 73.5 -51.5t22.5 -75.5q0 -46 -15 -77t-44 -49
q-27 -18 -57 -23.5t-83 -5.5l-250 -1v537h249q49 0 81.5 -9.5t56.5 -30.5q17 -18 27 -42.5t10 -53.5v0z" />
    <glyph glyph-name="afii10068" unicode="&#x433;" 
d="M582 393h-229v-456h-84v539h357l50 -90l-61 -48z" />
    <glyph glyph-name="afii10069" unicode="&#x434;" 
d="M683 -88l-57 -55l-63 82h-271q-24 -30 -40.5 -45t-48.5 -36l-47 63q38 27 63 57t39 72q15 42 21 99t6 138v104h-35v77h412l1 -77h-36v-401zM362 281q0 -46 -4.5 -98.5t-10.5 -84.5q-3 -21 -7.5 -41t-12.5 -43h227v377h-192v-110z" />
    <glyph glyph-name="afii10070" unicode="&#x435;" 
d="M590 113h84q-15 -56 -32 -86.5t-46 -53.5q-27 -24 -65 -36.5t-80 -12.5q-55 0 -99.5 20t-76.5 57q-31 37 -48 89t-17 115q0 64 17 116.5t49 89.5q32 38 76.5 58.5t100.5 20.5q69 0 124.5 -40.5t76.5 -102.5q11 -31 14.5 -64t5.5 -93h-384q1 -39 6 -60t14 -42
q18 -40 54.5 -62.5t87.5 -22.5q56 0 88 25.5t50 84.5v0zM293 262l304 -1q-12 74 -48.5 111.5t-102.5 37.5q-63 0 -101 -38.5t-52 -109.5v0z" />
    <glyph glyph-name="afii10072" unicode="&#x436;" 
d="M725 481v-76q-24 -2 -37.5 -9t-20.5 -18q-8 -12 -12 -27t-9 -32q-3 -12 -5.5 -21.5t-4.5 -17.5q-1 -7 -3 -13t-3 -10q-2 -5 -5 -11t-8 -12q43 -24 60.5 -58t20.5 -98q0 -45 6 -72.5t21 -68.5h-84q-9 33 -13.5 58.5t-6.5 50.5q-2 21 -3.5 44t-9.5 41q-8 19 -24.5 31.5
t-46.5 12.5h-51v-238h-72v238h-60q-23 0 -41.5 -12.5t-23.5 -32.5q-6 -14 -8 -33t-3 -53q-1 -39 -3.5 -59.5t-10.5 -47.5h-81q13 35 17 56.5t5 51.5q3 60 7.5 87t13.5 47q7 19 22.5 33t42.5 24q-13 16 -19 31.5t-10 31.5l-6 32t-10 33q-8 15 -22.5 26.5t-47.5 14.5v76
q45 -3 72.5 -15t44.5 -29q16 -17 23.5 -37.5t11.5 -40.5q3 -20 6.5 -39t11.5 -34t23.5 -25t44.5 -10v230h72v-230q31 1 47.5 11t24.5 27q8 16 11 36.5t8 41.5q3 19 10 38.5t23 34.5q16 16 43.5 27t71.5 14v0z" />
    <glyph glyph-name="afii10073" unicode="&#x437;" 
d="M659 337q0 -38 -15.5 -64.5t-54.5 -50.5q52 -20 74.5 -50.5t22.5 -79.5q0 -75 -64.5 -118t-166.5 -43q-63 0 -112.5 19t-79.5 56q-20 22 -29 46.5t-13 72.5l76 1q6 -36 14 -51.5t24 -27.5q19 -16 49 -23.5t71 -7.5q77 0 116 21.5t39 55.5q0 33 -37 55.5t-106 22.5h-63v80
h63q51 0 82.5 24.5t31.5 59.5q0 32 -34 53.5t-100 21.5q-70 0 -109.5 -24t-63.5 -83h-48v114l35 -12q33 45 79 64.5t112 19.5q90 0 148.5 -41.5t58.5 -110.5v0z" />
    <glyph glyph-name="afii10074" unicode="&#x438;" 
d="M672 470v-535h-73v393l-293 -393h-71v535h75v-408l300 408h62z" />
    <glyph glyph-name="afii10075" unicode="&#x439;" 
d="M300 639h74q10 -43 29.5 -61.5t48.5 -18.5q28 0 48.5 19t32.5 61h72q-17 -84 -55.5 -121t-97.5 -37q-37 0 -70 16t-54 54q-10 15 -15.5 32.5t-12.5 55.5v0zM670 469v-535h-74v393l-293 -393h-71v535h75v-409l301 409h62z" />
    <glyph glyph-name="afii10076" unicode="&#x43a;" 
d="M424 251q25 0 42 17t30 60q1 7 4 17t6 21q3 10 6 21t7 20q7 20 17.5 33.5t26.5 21.5q17 9 42 13t63 6v-84q-27 -1 -41 -4t-23 -9q-9 -4 -16 -20t-16 -58q-11 -37 -19 -53t-26 -35l158 -281h-86l-108 196q-12 19 -24.5 27.5t-27.5 8.5h-109v-232h-75v533h75v-220z" />
    <glyph glyph-name="afii10077" unicode="&#x43b;" 
d="M617 -56h-75v463h-185q-1 -36 -1.5 -60.5t-0.5 -44.5q-1 -19 -2 -35t-2 -34q-6 -58 -16 -102.5t-28 -80.5t-44 -65.5t-62 -55.5l-45 71q49 34 72.5 70.5t37.5 98.5q6 28 9 58t4 60q2 30 2.5 60t1.5 60h-75v73h479v-73h-70v-463z" />
    <glyph glyph-name="afii10078" unicode="&#x43c;" 
d="M158 -65l41 536h86l164 -416l162 416h92l39 -536h-76l-30 389l-158 -389h-56l-157 391l-32 -391h-75z" />
    <glyph glyph-name="afii10079" unicode="&#x43d;" 
d="M593 470h75v-535h-75v238h-289v-238h-74v535h74v-217h289v217z" />
    <glyph glyph-name="afii10080" unicode="&#x43e;" 
d="M208 208q0 59 17.5 109t49.5 86q33 37 77.5 57.5t98.5 20.5t99 -20.5t77 -56.5t49.5 -86t17.5 -110q0 -61 -18 -111t-50 -86t-76.5 -56t-98.5 -20t-98.5 20t-77.5 57q-32 36 -49.5 86t-17.5 110v0zM615 208q0 42 -12.5 77t-34.5 61t-52.5 40.5t-65.5 14.5
q-72 0 -117 -52.5t-45 -136.5q0 -43 12 -79t33 -63q22 -26 51.5 -40.5t65.5 -14.5q35 0 65.5 14.5t52.5 39.5q22 26 34.5 61.5t12.5 77.5v0z" />
    <glyph glyph-name="afii10081" unicode="&#x43f;" 
d="M623 -62h-75v454h-195v-454h-75v454h-62v81h468v-81h-61v-454z" />
    <glyph glyph-name="afii10082" unicode="&#x440;" 
d="M304 406q37 42 72.5 60t78.5 18q50 0 91 -19.5t70 -54.5t45 -83.5t16 -107.5q0 -61 -16 -110.5t-44 -85.5q-29 -35 -69.5 -54.5t-89.5 -19.5q-45 0 -82.5 18t-71.5 63v-211h-75v654h75v-67zM599 216q0 88 -40 137t-106 49t-106.5 -49t-40.5 -133q0 -91 39.5 -140
t107.5 -49q66 0 106 48.5t40 136.5v0z" />
    <glyph glyph-name="afii10083" unicode="&#x441;" 
d="M292 205q0 -90 43 -138t119 -48q60 0 91 27t46 95h80q-11 -61 -27.5 -95.5t-46.5 -58.5q-27 -24 -66 -37t-84 -13q-53 0 -96 19.5t-73 54.5q-31 35 -47.5 84.5t-16.5 109.5t18 110t50 87q33 37 78 57.5t100 20.5q87 0 144.5 -52.5t62.5 -139.5h-76q-10 54 -46.5 82
t-90.5 28q-73 0 -117.5 -53t-44.5 -140v0z" />
    <glyph glyph-name="afii10084" unicode="&#x442;" 
d="M229 472h441v-82h-182v-453h-80v453h-179v82z" />
    <glyph glyph-name="afii10085" unicode="&#x443;" 
d="M686 464l-203 -492q-18 -45 -31.5 -72.5t-26.5 -42.5q-14 -15 -31 -20t-42 -5q-17 0 -31.5 1.5t-44.5 8.5v94q31 -9 43.5 -11t24.5 -2q10 0 16.5 1t12.5 9q6 7 14 23.5t21 47.5l-192 460h87l151 -356l141 356h91z" />
    <glyph glyph-name="afii10086" unicode="&#x444;" 
d="M173 212q0 -93 40 -147t104 -54q23 0 43.5 6t51.5 23v340q-33 15 -54 21.5t-41 6.5q-62 0 -103 -54.5t-41 -141.5v0zM730 204q0 63 -13 103t-40 65q-21 18 -44.5 27t-45.5 9q-27 0 -47.5 -5.5t-53.5 -20.5v-341q26 -17 45.5 -23.5t40.5 -6.5q70 0 114 52t44 141v0z
M101 204q0 59 17 110t47 88t72 58.5t92 21.5q24 0 42 -4.5t41 -16.5v88h73v-89q26 12 46 17t46 5q51 0 92 -19t70 -53t45 -82t16 -105q0 -77 -19 -134.5t-61 -95.5q-30 -29 -69 -44.5t-79 -15.5q-24 0 -43.5 4.5t-43.5 18.5v-90h-73v90q-24 -14 -42.5 -18.5t-41.5 -4.5
q-49 0 -90.5 20.5t-72.5 57.5q-30 36 -47 85.5t-17 107.5v0z" />
    <glyph glyph-name="afii10087" unicode="&#x445;" 
d="M450 138l-147 -197h-100l198 265l-189 259h93l145 -194l137 194h99l-187 -262l194 -262h-101z" />
    <glyph glyph-name="afii10088" unicode="&#x446;" 
d="M341 463v-444h206v444h76v-476l51 -76l-58 -55l-57 81h-354v82h62v444h74z" />
    <glyph glyph-name="afii10089" unicode="&#x447;" 
d="M563 280v185h80v-527h-80v212q-30 -24 -63 -35t-75 -11q-102 0 -151 50t-49 155v156h78v-169q0 -57 26 -83t85 -26q73 0 111 25.5t38 67.5v0z" />
    <glyph glyph-name="afii10090" unicode="&#x448;" 
d="M292 463v-444h118v444h75v-444h117v444h78v-444h54v-81h-574v81h55v444h77z" />
    <glyph glyph-name="afii10091" unicode="&#x449;" 
d="M303 21h118v444h77v-444h119v444h76v-479l44 -84l-59 -45l-50 82h-463v82h64v444h74v-444z" />
    <glyph glyph-name="afii10092" unicode="&#x44a;" 
d="M528 205h-136v-189h133q43 0 67.5 24t24.5 67q0 45 -25 71.5t-64 26.5v0zM392 471v-186h134q79 0 125.5 -45.5t46.5 -128.5q0 -81 -44.5 -127.5t-117.5 -46.5h-219v458h-141v76h216z" />
    <glyph glyph-name="afii10093" unicode="&#x44b;" 
d="M394 205h-124v-193h124q50 0 75.5 26t25.5 69q0 42 -26.5 70t-74.5 28v0zM270 282l142 1q76 0 120.5 -47t44.5 -127q0 -81 -44 -127.5t-122 -46.5h-218v539h77v-192zM708 -65h-75v539h75v-539z" />
    <glyph glyph-name="afii10094" unicode="&#x44c;" 
d="M507 207h-172v-193h172q49 0 72 23.5t23 66.5q0 48 -24.5 75.5t-70.5 27.5v0zM335 284h191q74 0 115 -47t41 -129q0 -81 -41 -126t-116 -45h-266v535h76v-188z" />
    <glyph glyph-name="afii10095" unicode="&#x44d;" 
d="M606 173q-18 -10 -27.5 -13t-17.5 -3q-20 0 -37.5 9.5t-34.5 21.5t-34.5 22t-35.5 12q-11 0 -28 -12.5t-44 -52.5l-21 73q22 30 47 46.5t49 16.5q18 0 38 -9.5t39 -19.5q19 -11 36 -20t31 -9q6 0 15 3t27 13q-7 76 -48 118t-109 42q-48 0 -82.5 -26.5t-45.5 -75.5h-76
q17 86 71 133.5t132 47.5q108 0 169.5 -74.5t61.5 -200.5q0 -128 -59 -204.5t-162 -76.5q-81 0 -132 41.5t-82 137.5h76q23 -54 54 -77.5t79 -23.5q63 0 102 40t49 121v0z" />
    <glyph glyph-name="afii10096" unicode="&#x44e;" 
d="M718 207q0 88 -38.5 141t-98.5 53t-97 -52t-37 -144q0 -96 36.5 -148.5t96.5 -52.5q59 0 98.5 56.5t39.5 146.5v0zM243 252h131q14 104 70 166t138 62q46 0 84.5 -20t65.5 -56t42 -85t15 -107q0 -64 -15 -117t-42 -91t-65.5 -59t-85.5 -21q-60 0 -107 34t-74 96
q-13 28 -18 55t-8 69h-131v-242h-76v533h76v-217z" />
    <glyph glyph-name="afii10097" unicode="&#x44f;" 
d="M368 246h210v146h-210q-33 0 -51 -20t-18 -56q0 -30 19.5 -50t49.5 -20v0zM290 -61h-83q10 30 14.5 54.5t6.5 63.5q1 60 12.5 91.5t48.5 54.5q-33 14 -49.5 44.5t-16.5 70.5q0 67 36 110t96 43h299v-532h-76v228h-177q-33 0 -54.5 -12t-28.5 -30q-5 -9 -8 -23t-3 -23
q-2 -23 -3 -38.5t-3 -30.5q-1 -15 -3.5 -31t-7.5 -40v0z" />
    <glyph glyph-name="afii10071" unicode="&#x451;" 
d="M458 588q0 27 21 45t42 18q19 0 39 -18t20 -45q0 -28 -20 -46t-40 -18t-41 18.5t-21 45.5v0zM304 588q0 27 20 45t41 18q20 0 41 -18t21 -45q0 -28 -21 -46t-42 -18q-20 0 -40 18.5t-20 45.5v0zM590 112h85q-15 -55 -32.5 -87t-46.5 -54q-27 -23 -65 -35.5t-80 -12.5
q-55 0 -99.5 20t-75.5 57q-32 37 -48.5 88.5t-16.5 114.5q0 64 17 116.5t48 90.5q32 37 76.5 57.5t100.5 20.5q69 0 125 -40t77 -101q10 -33 14 -65.5t6 -93.5h-384q1 -37 5.5 -59t14.5 -42q17 -39 54 -62t87 -23q56 0 88.5 25.5t49.5 84.5v0zM294 260l303 -1
q-12 74 -48 109t-102 35q-63 0 -101 -35.5t-52 -107.5v0z" />
    <glyph glyph-name="afii00208" unicode="&#x2015;" 
d="M1 339h900v-53h-900v53z" />
    <glyph glyph-name="quoteleft" unicode="&#x2018;" horiz-adv-x="300" 
d="M115 620q0 60 32.5 107.5t74.5 68.5l19 -21q-21 -13 -40.5 -36.5t-25.5 -45.5q-5 -18 -2 -26t14 -8q6 0 16 -2t17 -5q11 -6 20.5 -20t9.5 -33q0 -30 -19.5 -47.5t-43.5 -17.5q-32 0 -52 25t-20 61z" />
    <glyph glyph-name="quoteright" unicode="&#x2019;" horiz-adv-x="300" 
d="M185 690q0 -61 -32.5 -108t-74.5 -68l-19 21q20 12 40 35.5t26 46.5q4 17 1 25.5t-13 8.5q-7 0 -17 1.5t-16 5.5q-12 6 -21 19.5t-9 33.5q0 30 19 47.5t44 17.5q31 0 51.5 -25.5t20.5 -60.5z" />
    <glyph glyph-name="quotedblleft" unicode="&#x201c;" horiz-adv-x="450" 
d="M270 620q0 60 32.5 107.5t74.5 68.5l19 -21q-21 -13 -40.5 -36.5t-25.5 -45.5q-5 -18 -2 -26t14 -8q6 0 16 -2t17 -5q11 -6 20.5 -20t9.5 -33q0 -30 -19.5 -47.5t-43.5 -17.5q-32 0 -52 25t-20 61zM100 620q0 60 32.5 107.5t74.5 68.5l19 -21q-21 -13 -40.5 -36.5
t-25.5 -45.5q-5 -18 -2 -26t14 -8q6 0 16 -2t17 -5q11 -6 20.5 -20t9.5 -33q0 -30 -19.5 -47.5t-43.5 -17.5q-32 0 -52 25t-20 61z" />
    <glyph glyph-name="quotedblright" unicode="&#x201d;" horiz-adv-x="450" 
d="M180 690q0 -61 -32.5 -108t-74.5 -68l-19 21q20 12 40 35.5t26 46.5q4 17 1 25.5t-13 8.5q-7 0 -17 1.5t-16 5.5q-12 6 -21 19.5t-9 33.5q0 30 19 47.5t44 17.5q31 0 51.5 -25.5t20.5 -60.5zM350 690q0 -61 -32.5 -108t-74.5 -68l-19 21q20 12 40 35.5t26 46.5
q4 17 1 25.5t-13 8.5q-7 0 -17 1.5t-16 5.5q-12 6 -21 19.5t-9 33.5q0 30 19 47.5t44 17.5q31 0 51.5 -25.5t20.5 -60.5z" />
    <glyph glyph-name="dagger" unicode="&#x2020;" 
d="M703 425h-216v-561h-72v561h-216v67h216v241h72v-241h216v-67z" />
    <glyph glyph-name="daggerdbl" unicode="&#x2021;" 
d="M707 541h-221v-97h203v-67h-203v-510h-71v510h-199v67h199v97h-218v66h218v129h71v-129h221v-66z" />
    <glyph glyph-name="twodotenleader" unicode="&#x2025;" 
d="M737 324q0 -31 -20 -50.5t-52 -19.5q-30 0 -48.5 20t-18.5 50q0 31 19.5 50.5t52.5 19.5q28 0 47.5 -20t19.5 -50zM302 324q0 -31 -19.5 -50.5t-52.5 -19.5q-29 0 -48 20t-19 50q0 31 19.5 50.5t52.5 19.5q29 0 48 -20t19 -50z" />
    <glyph glyph-name="ellipsis" unicode="&#x2026;" 
d="M798 329q0 -27 -16.5 -43t-43.5 -16q-25 0 -41.5 16.5t-16.5 42.5q0 27 17 43t45 16q24 0 40 -17t16 -42zM509 329q0 -27 -17 -43t-44 -16q-25 0 -41 16.5t-16 42.5q0 27 16.5 43t44.5 16q24 0 40.5 -17t16.5 -42zM220 329q0 -27 -17.5 -43t-44.5 -16q-24 0 -40.5 16.5
t-16.5 42.5q0 27 16.5 43t44.5 16q24 0 41 -17t17 -42z" />
    <glyph glyph-name="perthousand" unicode="&#x2030;" 
d="M629 172q21 30 48.5 51.5t56.5 32.5q28 11 56 9.5t52 -16.5q22 -16 32.5 -42t10.5 -56q-1 -31 -11.5 -64t-31.5 -63q-22 -31 -49.5 -53t-56.5 -32q-29 -11 -57.5 -9.5t-50.5 17.5q-22 15 -32.5 41t-10.5 56q0 31 11 64t33 64v0zM100 560q21 30 48 51.5t56 32.5
q28 10 56 9t51 -16q22 -16 32.5 -42t10.5 -56q0 -31 -11 -64.5t-32 -63.5q-21 -31 -48.5 -52.5t-56.5 -31.5q-29 -11 -57 -9.5t-50 17.5q-23 15 -33.5 41t-9.5 56q0 31 11 64t33 64v0zM642 673l-559 -748h-63l560 748h62zM325 173q21 30 48 51.5t56 31.5q28 11 56 9.5
t51 -16.5q22 -16 32.5 -42t10.5 -56q0 -31 -11 -64t-32 -63t-48.5 -52t-56.5 -32q-29 -11 -57 -10t-49 17q-23 15 -34 41t-11 57t11.5 64t33.5 64v0zM792 58q33 47 37.5 89.5t-19.5 58.5q-23 15 -60.5 -3t-71.5 -65q-34 -48 -38.5 -91.5t18.5 -58.5q23 -16 61 2t73 68v0z
M263 447q32 47 36 88.5t-19 58.5q-22 15 -60.5 -3t-71.5 -65q-34 -48 -38 -90.5t20 -58.5q21 -17 59.5 1t73.5 69v0zM488 59q31 47 35.5 89t-18.5 59q-23 15 -61 -3t-71 -65q-33 -48 -37.5 -91.5t19.5 -58.5q21 -16 59.5 2t73.5 68v0z" />
    <glyph glyph-name="minute" unicode="&#x2032;" horiz-adv-x="450" 
d="M267 765q22 -14 18.5 -36.5t-21.5 -50.5q-18 -27 -43 -56.5t-45 -56.5q-11 -15 -23.5 -8t-5.5 25l62 157q6 17 24.5 26t33.5 0v0z" />
    <glyph glyph-name="second" unicode="&#x2033;" horiz-adv-x="450" 
d="M355 683l-110 -141q-12 -15 -24.5 -7.5t-6.5 23.5l68 166q7 18 26.5 26t34.5 -1q17 -11 20.5 -31.5t-8.5 -34.5v0zM219 702l-107 -141q-11 -15 -24 -7.5t-7 23.5l67 166q7 18 26.5 26.5t35.5 -1.5q18 -10 19.5 -30.5t-10.5 -35.5v0z" />
    <glyph glyph-name="uni203B" unicode="&#x203b;" 
d="M694 319q0 25 17.5 43.5t43.5 18.5q27 0 45.5 -17t18.5 -44t-18.5 -44t-45.5 -17q-24 0 -42.5 16.5t-18.5 43.5zM80 319q0 25 18 43.5t46 18.5q24 0 42.5 -17t18.5 -44t-18 -44t-43 -17q-27 0 -45.5 16.5t-18.5 43.5zM387 627q0 26 17 44.5t46 18.5q24 0 43 -18.5
t19 -44.5t-17.5 -44t-44.5 -18q-26 0 -44.5 18t-18.5 44zM387 13q0 24 17 42.5t46 18.5q24 0 43 -18t19 -42q0 -28 -17.5 -46t-44.5 -18q-26 0 -44.5 18t-18.5 45zM807 637l-315 -317l315 -317l-41 -41l-316 315l-317 -315l-41 41l315 317l-315 317l41 41l317 -315l316 315z
" />
    <glyph glyph-name="uni2074" unicode="&#x2074;" horiz-adv-x="450" 
d="M25 594l135 187h39v-192h44v-37h-44v-52h-41v52h-133v42zM66 589h92v129z" />
    <glyph glyph-name="uni207F" unicode="&#x207f;" horiz-adv-x="450" 
d="M60 759v-34q16 20 40 31.5t51 11.5q22 0 38 -9.5t27 -23.5q10 -15 15.5 -31.5t5.5 -31.5v-183h-39v162q0 33 -9.5 56t-48.5 23q-12 0 -25.5 -7t-25.5 -18t-19.5 -26.5t-7.5 -31.5v-158h-40v270h38z" />
    <glyph glyph-name="uni2081" unicode="&#x2081;" horiz-adv-x="450" 
d="M117 123h-62v30q15 0 29 2.5t23 10.5q6 4 11.5 13.5t5.5 21.5h33v-291h-40v213z" />
    <glyph glyph-name="uni2082" unicode="&#x2082;" horiz-adv-x="450" 
d="M72 -48h153v-38h-205q0 32 16 61t59 57l47 30q16 10 26 23.5t10 30.5q0 22 -12.5 35.5t-38.5 13.5q-33 0 -44 -17.5t-11 -39.5h-43q0 33 24 63.5t75 30.5q48 0 71.5 -26.5t23.5 -59.5q0 -35 -20.5 -54t-37.5 -30q-11 -7 -25 -15.5t-27 -18.5q-14 -10 -25.5 -22t-15.5 -24
v0z" />
    <glyph glyph-name="uni2083" unicode="&#x2083;" horiz-adv-x="450" 
d="M66 1q-1 -21 13.5 -38.5t47.5 -17.5q27 0 42.5 16.5t15.5 38.5q0 16 -11.5 27t-26.5 15q-6 1 -11.5 1.5t-10.5 1.5h-11.5h-10.5v37q4 0 10 -0.5t12 0.5q5 0 11 1t11 3q15 6 22 16t7 25t-13.5 26.5t-37.5 11.5q-30 0 -42.5 -15.5t-10.5 -33.5h-43q-2 42 28 64t69 22
t67 -21t28 -54q0 -24 -12 -39.5t-21 -21.5q18 -10 30 -26.5t12 -41.5q0 -38 -28.5 -64.5t-74.5 -26.5t-77 26.5t-28 67.5h44z" />
    <glyph glyph-name="uni2084" unicode="&#x2084;" horiz-adv-x="450" 
d="M25 14l135 187h39v-192h44v-37h-44v-52h-41v52h-133v42zM66 9h92v129z" />
    <glyph glyph-name="Euro" unicode="&#x20ac;" 
d="M124 207h99q-3 15 -3.5 31.5t-0.5 34.5t0.5 35.5t3.5 35.5h-89l10 79h95q12 43 31 79.5t44 65.5q43 51 102 79t127 28q52 0 100 -14t69 -31l-37 -56q-24 15 -53.5 25t-77.5 10q-54 0 -97.5 -20.5t-73.5 -60.5q-16 -21 -28 -47.5t-20 -57.5h229v-79h-242
q-2 -14 -2.5 -28.5t-0.5 -29.5q0 -21 0.5 -41t3.5 -38h211v-79h-195q7 -26 17.5 -47t24.5 -39q30 -42 75.5 -62.5t105.5 -20.5q50 0 82 10.5t57 28.5l36 -53q-28 -21 -81 -36t-106 -15q-68 0 -126.5 24.5t-101.5 72.5q-25 27 -43.5 61t-30.5 76h-114v79z" />
    <glyph glyph-name="uni2103" unicode="&#x2103;" 
d="M248 253q0 79 19.5 145.5t57.5 114.5q37 47 90.5 74t120.5 27q62 0 109.5 -23t80.5 -57q33 -33 52 -71t25 -68h-80q-7 24 -21 49.5t-37 47.5t-55 36t-74 14q-48 0 -86.5 -21.5t-65.5 -59.5t-41.5 -91t-14.5 -117q0 -65 14.5 -119t41.5 -92t65.5 -59t86.5 -21q41 0 73 14
t55 37q24 22 38.5 50t21.5 55h79q-8 -35 -27 -74.5t-52 -74.5q-33 -34 -79.5 -56.5t-108.5 -22.5q-67 0 -120.5 26t-90.5 74q-38 48 -57.5 115t-19.5 148zM158 730q47 0 81.5 -34t34.5 -81q0 -48 -34.5 -81.5t-81.5 -33.5q-48 0 -81.5 33.5t-33.5 81.5q0 47 33.5 81t81.5 34
zM158 550q28 0 47 18t19 47q0 28 -19 46.5t-47 18.5t-46.5 -18.5t-18.5 -46.5q0 -29 18.5 -47t46.5 -18z" />
    <glyph glyph-name="uni2109" unicode="&#x2109;" 
d="M767 533h-361v-240h319v-69h-319v-306h-71v682h432v-67zM165 730q47 0 81 -34t34 -81q0 -48 -34 -81.5t-81 -33.5q-48 0 -81.5 33.5t-33.5 81.5q0 47 33.5 81t81.5 34v0zM165 551q27 0 45.5 18.5t18.5 45.5t-18.5 45.5t-45.5 18.5t-45.5 -18.5t-18.5 -45.5t18.5 -45.5
t45.5 -18.5v0z" />
    <glyph glyph-name="afii61289" unicode="&#x2113;" 
d="M633 7q-22 -46 -49 -70.5t-60 -33.5q-34 -10 -75 9t-74 68q-17 -10 -47 -19.5t-52 -10.5l-26 74q16 1 40.5 5t48.5 16q-30 69 -39.5 147t-6.5 163q2 72 16 135t38 110q23 46 54.5 73.5t67.5 30.5q38 2 65 -25t42 -75q15 -49 17.5 -115.5t-6.5 -143.5q-17 -127 -57.5 -208
t-82.5 -122q18 -30 37.5 -35.5t36.5 3.5q17 7 30.5 24t25.5 47zM467 626q-20 -2 -37 -26.5t-29 -63.5q-13 -39 -21 -87t-9 -95q-2 -39 0 -79.5t7 -77.5q4 -37 11.5 -67t17.5 -48q42 43 69 112.5t36 156.5q4 45 6 94t-3 90q-4 40 -15.5 66t-32.5 25v0z" />
    <glyph glyph-name="afii61352" unicode="&#x2116;" 
d="M839 49q20 0 35.5 -16.5t15.5 -37.5q0 -22 -15.5 -37.5t-35.5 -15.5t-35 15.5t-15 37.5q0 21 15 37.5t35 16.5v0zM626 429q42 0 74.5 -19.5t54.5 -51.5q22 -33 33.5 -76.5t11.5 -92.5t-11.5 -92.5t-33.5 -76.5q-22 -32 -54.5 -51t-74.5 -19q-44 0 -76.5 19t-54.5 51
q-22 33 -33 76.5t-11 92.5t11 92.5t33 76.5q22 32 54.5 51.5t76.5 19.5v0zM415 -42h-69l-251 573v-573h-59v690h70l250 -572v572h59v-690zM626 10q54 0 85.5 51t31.5 128q0 75 -31.5 127.5t-85.5 52.5q-55 0 -86 -52.5t-31 -127.5q0 -77 30.5 -128t86.5 -51v0z" />
    <glyph glyph-name="uni2121" unicode="&#x2121;" 
d="M846 -40h-64v629h64v-629zM724 150h-321q1 -34 13 -61.5t30 -46.5t40 -29t44 -10q48 0 74.5 21.5t38.5 54.5h68q-9 -25 -23.5 -49t-35.5 -42q-22 -19 -52.5 -30t-69.5 -11q-43 0 -78.5 17.5t-60.5 46.5q-26 30 -39.5 70t-13.5 85q0 44 13.5 83.5t38.5 69.5t60.5 47.5
t79.5 17.5q39 0 74.5 -15.5t62.5 -44.5q27 -30 42.5 -73.5t14.5 -100.5v0zM456 532h-180v-573h-64v574q-42 -1 -61.5 -1h-32.5h-31h-54v56h423v-56zM407 204h248q-6 56 -41.5 90.5t-83.5 34.5q-46 0 -81.5 -33.5t-41.5 -91.5v0z" />
    <glyph glyph-name="trademark" unicode="&#x2122;" 
d="M625 281h-44l-99 267v-267h-53v358h74l98 -262l91 262h83v-358h-54v275zM217 593h-122v46h298v-46h-119v-312h-57v312z" />
    <glyph glyph-name="uni2126" unicode="&#x2126;" 
d="M716 370q0 -56 -14.5 -104.5t-37.5 -87.5q-24 -39 -55.5 -66.5t-65.5 -40.5v-65h134v-68h-168q-26 0 -30 18.5t-4 34.5v87q0 30 9.5 44.5t10.5 15.5q69 16 106 75t37 158q0 110 -53.5 174.5t-142.5 64.5q-44 0 -79.5 -17.5t-61.5 -49.5q-25 -32 -39 -76.5t-14 -98.5
q0 -90 31.5 -145.5t90.5 -81.5q19 -2 28.5 -15t12.5 -28q3 -16 3 -29v-14v-15v-30q0 -16 -1 -30.5t-3 -17.5q-3 -9 -8 -16.5t-19 -7.5h-166v68h127v62q-77 27 -126.5 104t-49.5 194q-1 65 19.5 123.5t57.5 101.5q36 44 86.5 69.5t110.5 25.5t110.5 -24.5t86.5 -66.5
t56.5 -100t20.5 -125v0z" />
    <glyph glyph-name="uni212B" unicode="&#x212b;" 
d="M333 665q0 47 33 81t81 34q47 0 81.5 -34t34.5 -81q0 -48 -34.5 -81.5t-81.5 -33.5q-48 0 -81 33.5t-33 81.5v0zM730 -95h-75l-64 160h-288l-64 -160h-74l246 619h72zM511 665q0 27 -18.5 45t-45.5 18t-45 -18t-18 -45t18 -45t45 -18t45.5 18t18.5 45v0zM566 130
l-119 303l-118 -303h237z" />
    <glyph glyph-name="onethird" unicode="&#x2153;" 
d="M273 330h-62v293h-91v52q21 0 40 4.5t34 14.5q11 7 20 21t9 32h50v-417zM755 56q28 -14 48.5 -40t20.5 -59q0 -57 -42.5 -94t-109.5 -37t-111.5 39.5t-42.5 99.5h63q-3 -33 19.5 -59.5t70.5 -26.5q40 0 63 22t24 56q1 24 -16 43t-41 25q-8 1 -16.5 2t-16.5 1h-16.5h-15.5
v51q15 0 33.5 1t31.5 7q21 9 32.5 25t12.5 39q0 26 -20 45.5t-56 19.5q-45 0 -62.5 -23.5t-16.5 -52.5h-62q-2 60 40 94t102 34t99.5 -35t39.5 -83q0 -39 -20 -62.5t-35 -31.5v0zM779 675l-668 -817l-47 35l669 816z" />
    <glyph glyph-name="twothirds" unicode="&#x2154;" 
d="M346 328h-294q0 42 24 90.5t78 81.5l74 46q22 15 38.5 36t16.5 51q0 33 -19.5 54.5t-57.5 21.5q-45 0 -64.5 -27.5t-18.5 -60.5h-62q0 24 9 49t27 45t45.5 33t64.5 13q69 0 104 -38.5t35 -90.5q0 -51 -27 -81.5t-56 -48.5q-5 -3 -17 -11t-27 -17q-14 -9 -28 -18.5
t-22 -16.5q-17 -14 -28.5 -29t-13.5 -30h219v-52zM796 675l-668 -817l-47 35l669 816zM748 51q29 -13 49 -39.5t20 -59.5q0 -57 -42.5 -93.5t-109.5 -36.5t-111.5 39.5t-42.5 99.5l62 -1q-2 -33 20.5 -59t70.5 -26q40 0 63.5 22t24.5 56q0 24 -17 42.5t-41 25.5
q-8 1 -16 1.5t-17 0.5h-16h-16v51q16 0 34.5 1.5t30.5 7.5q21 9 32.5 24.5t12.5 39.5q1 25 -19.5 45t-57.5 20q-45 0 -62.5 -23.5t-15.5 -52.5l-61 -1q-3 60 39 94t102 34t99.5 -34.5t39.5 -82.5q0 -40 -19.5 -63t-35.5 -32v0z" />
    <glyph glyph-name="oneeighth" unicode="&#x215b;" 
d="M271 328h-62v293h-90v52q21 0 40 4.5t34 14.5q11 7 19.5 21t8.5 32h50v-417zM666 -165q-35 0 -64.5 9.5t-50.5 26.5q-22 16 -34 38t-12 46q0 29 19.5 56t64.5 49q-36 22 -52.5 45.5t-16.5 48.5q0 43 41.5 75.5t104.5 32.5t105.5 -32.5t42.5 -75.5q0 -25 -16.5 -48.5
t-52.5 -44.5q43 -23 63.5 -50t20.5 -56q0 -24 -12.5 -46t-34.5 -38q-21 -17 -51 -26.5t-65 -9.5v0zM666 212q-38 0 -58 -18t-20 -45q0 -29 20 -46t58 -17q37 0 58.5 17t21.5 46q0 27 -21.5 45t-58.5 18v0zM666 32q-42 0 -67.5 -21t-25.5 -53q0 -33 25.5 -53t67.5 -20
q43 0 69 20t26 53q0 32 -26 53t-69 21v0zM816 675l-668 -817l-47 35l669 816z" />
    <glyph glyph-name="threeeighths" unicode="&#x215c;" 
d="M316 545q28 -14 47.5 -40t19.5 -59q0 -57 -41.5 -94t-107.5 -37t-110 39.5t-41 99.5h61q-3 -33 20 -59.5t69 -26.5q40 0 63 22t24 56q0 24 -17 43t-40 25l-16 2t-16 1h-17h-15v51q15 0 33.5 1t30.5 7q21 9 32 25t12 39q0 26 -19.5 46t-55.5 20q-44 0 -61.5 -24t-15.5 -52
l-61 -1q-3 60 38.5 94t100.5 34t98.5 -35t39.5 -83q0 -39 -20 -62.5t-35 -31.5v0zM666 -165q-35 0 -64.5 9.5t-50.5 26.5q-22 16 -34 38t-12 46q0 29 19.5 56t64.5 49q-36 22 -52.5 45.5t-16.5 48.5q0 43 41.5 75.5t104.5 32.5t105.5 -32.5t42.5 -75.5q0 -25 -16.5 -48.5
t-52.5 -44.5q43 -23 63.5 -50t20.5 -56q0 -24 -12.5 -46t-34.5 -38q-21 -17 -51 -26.5t-65 -9.5v0zM666 212q-38 0 -58 -18t-20 -45q0 -29 20 -46t58 -17q37 0 58.5 17t21.5 46q0 27 -21.5 45t-58.5 18v0zM666 32q-42 0 -67.5 -21t-25.5 -53q0 -33 25.5 -53t67.5 -20
q43 0 69 20t26 53q0 32 -26 53t-69 21v0zM816 675l-668 -817l-47 35l669 816z" />
    <glyph glyph-name="fiveeighths" unicode="&#x215d;" 
d="M250 611q18 -3 39 -12t38 -26q18 -16 30 -41.5t12 -61.5t-13 -63t-34 -46t-47.5 -28.5t-53.5 -9.5q-69 0 -107 38.5t-43 86.5l64 -5q2 -29 24.5 -49t61.5 -20q36 0 60.5 25.5t26.5 66.5q0 41 -23.5 68.5t-60.5 27.5q-28 0 -47.5 -9.5t-29.5 -26.5l-66 -2l35 225h236v-53
h-185l-19 -107q21 14 49.5 19.5t52.5 2.5v0zM666 -165q-35 0 -64.5 9.5t-50.5 26.5q-22 16 -34 38t-12 46q0 29 19.5 56t64.5 49q-36 22 -52.5 45.5t-16.5 48.5q0 43 41.5 75.5t104.5 32.5t105.5 -32.5t42.5 -75.5q0 -25 -16.5 -48.5t-52.5 -44.5q43 -23 63.5 -50t20.5 -56
q0 -24 -12.5 -46t-34.5 -38q-21 -17 -51 -26.5t-65 -9.5v0zM666 212q-38 0 -58 -18t-20 -45q0 -29 20 -46t58 -17q37 0 58.5 17t21.5 46q0 27 -21.5 45t-58.5 18v0zM666 32q-42 0 -67.5 -21t-25.5 -53q0 -33 25.5 -53t67.5 -20q43 0 69 20t26 53q0 32 -26 53t-69 21v0z
M816 675l-668 -817l-47 35l669 816z" />
    <glyph glyph-name="seveneighths" unicode="&#x215e;" 
d="M233 339h-75q3 30 16.5 75t42.5 98q27 51 60.5 92t60.5 69h-245v59h294v-62q-18 -17 -44 -50t-52 -84q-27 -53 -41.5 -107t-16.5 -90v0zM666 -165q-35 0 -64.5 9.5t-50.5 26.5q-22 16 -34 38t-12 46q0 29 19.5 56t64.5 49q-36 22 -52.5 45.5t-16.5 48.5q0 43 41.5 75.5
t104.5 32.5t105.5 -32.5t42.5 -75.5q0 -25 -16.5 -48.5t-52.5 -44.5q43 -23 63.5 -50t20.5 -56q0 -24 -12.5 -46t-34.5 -38q-21 -17 -51 -26.5t-65 -9.5v0zM666 212q-38 0 -58 -18t-20 -45q0 -29 20 -46t58 -17q37 0 58.5 17t21.5 46q0 27 -21.5 45t-58.5 18v0zM666 32
q-42 0 -67.5 -21t-25.5 -53q0 -33 25.5 -53t67.5 -20q43 0 69 20t26 53q0 32 -26 53t-69 21v0zM816 675l-668 -817l-47 35l669 816z" />
    <glyph glyph-name="uni2160" unicode="&#x2160;" 
d="M486 -62h-72v746h72v-746z" />
    <glyph glyph-name="uni2161" unicode="&#x2161;" 
d="M633 -62h-72v746h72v-746zM338 -62h-72v746h72v-746z" />
    <glyph glyph-name="uni2162" unicode="&#x2162;" 
d="M680 -62h-73v746h73v-746zM487 -62h-73v746h73v-746zM293 -62h-72v746h72v-746z" />
    <glyph glyph-name="uni2163" unicode="&#x2163;" 
d="M790 684l-223 -746h-84l-221 746h76l189 -663l188 663h75zM219 -62h-72v746h72v-746z" />
    <glyph glyph-name="uni2164" unicode="&#x2164;" 
d="M779 684l-280 -746h-84l-280 746h76l245 -663l247 663h76z" />
    <glyph glyph-name="uni2165" unicode="&#x2165;" 
d="M757 -62h-72v746h72v-746zM636 684l-221 -746h-83l-222 746h75l189 -663l188 663h74z" />
    <glyph glyph-name="uni2166" unicode="&#x2166;" 
d="M798 -62h-66v746h66v-746zM653 -62h-68v746h68v-746zM537 684l-192 -746h-84l-193 746h76l158 -663l161 663h74z" />
    <glyph glyph-name="uni2167" unicode="&#x2167;" 
d="M852 -62h-67v746h67v-746zM716 -62h-66v746h66v-746zM580 -62h-68v746h68v-746zM473 684l-180 -746h-83l-182 746h76l147 -663l148 663h74z" />
    <glyph glyph-name="uni2168" unicode="&#x2168;" 
d="M811 -62h-82l-208 322l-209 -322h-80l249 387l-233 359h82l191 -294l191 294h82l-231 -360zM190 -62h-68v746h68v-746z" />
    <glyph glyph-name="uni2169" unicode="&#x2169;" 
d="M744 -62h-81l-209 322l-209 -322h-81l248 386l-231 360h82l191 -294l191 294h82l-231 -359z" />
    <glyph glyph-name="uni2170" unicode="&#x2170;" 
d="M492 610h-77v76h77v-76zM491 -62h-73v548h73v-548z" />
    <glyph glyph-name="uni2171" unicode="&#x2171;" 
d="M632 609h-77v76h77v-76zM347 609h-76v76h76v-76zM629 -63h-72v548h72v-548zM345 -63h-72v548h72v-548z" />
    <glyph glyph-name="uni2172" unicode="&#x2172;" 
d="M670 609h-78v76h78v-76zM490 609h-78v76h78v-76zM310 609h-77v76h77v-76zM667 -63h-73v548h73v-548zM488 -63h-73v548h73v-548zM308 -63h-73v548h73v-548z" />
    <glyph glyph-name="uni2173" unicode="&#x2173;" 
d="M243 610h-78v76h78v-76zM812 486l-221 -548h-82l-220 548h76l186 -463l184 463h77zM239 -62h-72v548h72v-548z" />
    <glyph glyph-name="uni2174" unicode="&#x2174;" 
d="M716 485l-220 -548h-84l-219 548h77l185 -463l183 463h78z" />
    <glyph glyph-name="uni2175" unicode="&#x2175;" 
d="M764 610h-76v76h76v-76zM761 -62h-71v548h71v-548zM632 486l-222 -548h-81l-220 548h76l186 -463l183 463h78z" />
    <glyph glyph-name="uni2176" unicode="&#x2176;" 
d="M800 610h-71v76h71v-76zM656 610h-72v76h72v-76zM798 -62h-66v548h66v-548zM654 -62h-67v548h67v-548zM537 486l-193 -548h-82l-194 548h74l161 -463l161 463h73z" />
    <glyph glyph-name="uni2177" unicode="&#x2177;" 
d="M854 610h-71v76h71v-76zM718 610h-72v76h72v-76zM582 610h-72v76h72v-76zM852 -62h-67v548h67v-548zM716 -62h-68v548h68v-548zM581 -62h-69v548h69v-548zM469 486l-184 -548h-82l-181 548h73l150 -463l149 463h75z" />
    <glyph glyph-name="uni2178" unicode="&#x2178;" 
d="M250 610h-77v76h77v-76zM779 -62h-81l-166 224l-167 -224h-81l207 280l-198 268h81l158 -212l157 212h80l-197 -268zM247 -62h-71v548h71v-548z" />
    <glyph glyph-name="uni2179" unicode="&#x2179;" 
d="M705 -62h-84l-168 223l-168 -223h-84l209 280l-199 268h84l158 -211l157 211h86l-200 -268z" />
    <glyph glyph-name="arrowleft" unicode="&#x2190;" 
d="M304 268l30 -94l-332 129l332 124l-30 -94h579v-65h-579z" />
    <glyph glyph-name="arrowup" unicode="&#x2191;" 
d="M482 478v-631h-64v631l-95 -30l127 332l126 -332z" />
    <glyph glyph-name="arrowright" unicode="&#x2192;" 
d="M570 174l30 93h-580v65h580l-30 95l331 -124z" />
    <glyph glyph-name="arrowdown" unicode="&#x2193;" 
d="M450 -179l-127 332l94 -30v632h65v-631l94 30z" />
    <glyph glyph-name="arrowboth" unicode="&#x2194;" 
d="M619 135l30 132h-400l30 -132l-288 165l288 164l-30 -131h400l-30 131l289 -164z" />
    <glyph glyph-name="arrowupdn" unicode="&#x2195;" 
d="M448 -189l-163 288l132 -30v461l-132 -30l163 288l166 -288l-132 30v-461l132 30z" />
    <glyph glyph-name="uni2196" unicode="&#x2196;" 
d="M833 -128l-640 640l-29 -90l-152 318l317 -153l-90 -29l639 -640z" />
    <glyph glyph-name="uni2197" unicode="&#x2197;" 
d="M738 422l-29 90l-639 -640l-46 46l639 640l-90 29l317 153z" />
    <glyph glyph-name="uni2198" unicode="&#x2198;" 
d="M569 18l88 29l-638 639l46 46l638 -639l31 89l151 -317z" />
    <glyph glyph-name="uni2199" unicode="&#x2199;" 
d="M244 47l90 -29l-317 -153l152 317l29 -89l639 639l46 -46z" />
    <glyph glyph-name="arrowdblright" unicode="&#x21d2;" 
d="M679 177h-630v58h688l66 64l-66 64h-688v58h630l-113 110l45 42l276 -274l-276 -274l-45 42z" />
    <glyph glyph-name="arrowdblboth" unicode="&#x21d4;" 
d="M678 177h-456l113 -110l-44 -42l-278 274l278 274l44 -42l-113 -110h456l-113 110l43 42l278 -274l-278 -274l-43 42zM98 299l67 -64h570l66 64l-66 64h-570z" />
    <glyph glyph-name="universal" unicode="&#x2200;" 
d="M769 671l-269 -735h-92l-269 737h76l71 -192h335l72 190h76zM597 410h-286l142 -388z" />
    <glyph glyph-name="partialdiff" unicode="&#x2202;" horiz-adv-x="450" 
d="M261 719q69 0 114 -56.5t45 -149.5q0 -39 -8.5 -90t-22.5 -104t-32.5 -105t-39.5 -93q-30 -57 -71 -86.5t-83 -29.5q-37 0 -70 16t-52 43q-12 17 -18.5 40.5t-6.5 55.5q0 58 16.5 108.5t43.5 87.5t62.5 58.5t73.5 23.5q36 1 66 -19.5t51 -65.5q7 38 12 64t8 45
q3 18 4.5 32.5t1.5 29.5q0 50 -24.5 86.5t-67.5 36.5q-31 0 -57 -26t-44 -70l-67 37q9 21 22 42t23 32q27 27 58.5 42t62.5 15v0zM247 140q15 30 26 64t11 64q0 39 -19.5 71.5t-55.5 32.5q-24 0 -44.5 -15.5t-36.5 -39.5q-25 -33 -36 -68t-11 -77t20 -70.5t58 -28.5
q27 0 49 17.5t39 49.5v0z" />
    <glyph glyph-name="existential" unicode="&#x2203;" 
d="M706 -63h-460v70h386v250h-372v70h372v272h-397v72h471v-734z" />
    <glyph glyph-name="gradient" unicode="&#x2207;" 
d="M10 675h879l-439 -761zM450 17l350 609h-701z" />
    <glyph glyph-name="element" unicode="&#x2208;" 
d="M800 270h-660q2 -30 16.5 -64.5t43.5 -63.5q28 -30 70.5 -49t99.5 -19h431v-58h-416q-72 0 -129 21.5t-97 59.5t-60.5 90t-20.5 113q0 60 20.5 112t60.5 90t97 60t129 22h416v-58h-431q-57 0 -99.5 -20t-70.5 -49q-29 -29 -43.5 -63.5t-16.5 -63.5h660v-60z" />
    <glyph glyph-name="suchthat" unicode="&#x220b;" 
d="M99 270v60h660q-3 29 -17.5 63t-42.5 64q-28 29 -70.5 49t-100.5 20h-430v58h416q72 0 128.5 -22t96.5 -60t61 -90t21 -112q0 -61 -21 -113t-61 -90t-96.5 -59.5t-128.5 -21.5h-416v58h430q58 0 100.5 19.5t70.5 48.5t42.5 63.5t17.5 64.5h-660z" />
    <glyph glyph-name="product" unicode="&#x220f;" 
d="M774 562h-145v-600h-72v600h-214v-600h-72v600h-142v79h645v-79z" />
    <glyph glyph-name="summation" unicode="&#x2211;" 
d="M776 685l-11 -81h-391l188 -250l-291 -279h419l-19 -80h-517l16 72l297 297l-180 246l22 75h467z" />
    <glyph glyph-name="radical" unicode="&#x221a;" 
d="M538 730l-263 -826l-158 406l-54 -58l-20 32l114 119l127 -328l217 700h336v-45h-299z" />
    <glyph glyph-name="proportional" unicode="&#x221d;" 
d="M811 143q-33 -22 -60.5 -31t-61.5 -9q-43 0 -75.5 13.5t-55.5 32.5q-24 20 -39.5 41.5t-24.5 37.5q-9 -16 -25 -37.5t-40 -40.5q-23 -20 -55 -33.5t-72 -13.5q-42 0 -79 15t-64 42q-28 27 -43.5 63t-15.5 77q0 40 15.5 76t43.5 63q27 27 64 42.5t79 15.5q40 0 72 -14
t56 -34t39.5 -41.5t24.5 -36.5q9 15 25 36.5t40 41.5t56.5 34t73.5 14q33 0 61.5 -9.5t58.5 -30.5l-34 -50q-23 17 -41 22.5t-45 5.5q-42 0 -71.5 -18t-48.5 -42q-19 -23 -28.5 -45t-12.5 -30q3 -9 12.5 -31t28.5 -45t48.5 -41t71.5 -18q26 0 45 6t40 21zM461 300l-15 30
t-30 46q-20 23 -48.5 41t-65.5 18q-29 0 -54.5 -11t-44.5 -29t-30 -42.5t-11 -52.5q0 -29 11 -53.5t30 -42.5t44.5 -28.5t54.5 -10.5q37 0 65.5 17.5t48.5 40.5q19 24 30 46t15 31v0z" />
    <glyph glyph-name="infinity" unicode="&#x221e;" 
d="M630 481q38 0 72 -14.5t59 -38.5q25 -25 40 -58t15 -70q0 -38 -15 -71t-40 -57q-25 -25 -59 -39t-72 -14q-39 0 -69.5 14t-52.5 34q-22 19 -36.5 40t-21.5 34q-7 -13 -21.5 -34t-36.5 -40q-23 -20 -53.5 -34t-69.5 -14t-72.5 14t-59.5 39q-25 24 -39.5 57t-14.5 71
q0 37 14.5 70t39.5 58q26 24 59.5 38.5t72.5 14.5t69.5 -14.5t53.5 -34.5q22 -19 36.5 -40t21.5 -33q7 12 21.5 33t36.5 40q22 20 52.5 34.5t69.5 14.5v0zM269 176q34 0 59 16.5t43 38.5q17 21 26.5 41.5t12.5 27.5q-3 6 -12.5 26.5t-26.5 41.5q-18 22 -43 39t-59 17
q-53 0 -89.5 -36.5t-36.5 -87.5q0 -52 36.5 -88t89.5 -36v0zM630 424q-35 0 -60 -17t-42 -39q-18 -21 -27.5 -41.5t-11.5 -26.5q2 -7 11.5 -27.5t27.5 -41.5q17 -22 42 -38.5t60 -16.5q52 0 89.5 36t37.5 88q0 51 -37.5 87.5t-89.5 36.5v0z" />
    <glyph glyph-name="angle" unicode="&#x2220;" 
d="M814 -28h-697q-8 0 -16.5 4t-10.5 13q-2 4 0 9t6 10t8 9.5t7 7.5l604 609l43 -41l-562 -565h618v-56z" />
    <glyph glyph-name="uni2225" unicode="&#x2225;" 
d="M579 -186h-53v968h53v-968zM372 -186h-52v968h52v-968z" />
    <glyph glyph-name="logicaland" unicode="&#x2227;" 
d="M745 -60l-295 606l-296 -606l-57 32l321 659q2 4 12 16t20 12t18 -9.5t14 -18.5l321 -659z" />
    <glyph glyph-name="logicalor" unicode="&#x2228;" 
d="M803 630l-321 -659q-6 -10 -14 -19t-18 -9t-20 11.5t-12 16.5l-321 659l57 32l296 -606l295 606z" />
    <glyph glyph-name="intersection" unicode="&#x2229;" 
d="M680 -67v445q0 63 -21.5 108.5t-54.5 74.5t-73 43t-76 14h-10q-38 0 -77.5 -14t-72.5 -43q-32 -29 -53 -74.5t-21 -108.5v-445h-67v434q0 73 22.5 132t62.5 101t94 64.5t117 22.5q62 0 116 -22.5t93 -64.5q40 -42 63 -101t23 -132v-434h-65z" />
    <glyph glyph-name="union" unicode="&#x222a;" 
d="M732 233q0 -74 -23.5 -133t-63.5 -101q-40 -41 -94 -63.5t-115 -22.5q-63 0 -117 22.5t-94 63.5q-40 42 -62.5 101t-22.5 133v434h66v-445q0 -64 21 -109.5t54 -74.5t72.5 -42.5t76.5 -13.5h11q36 0 75.5 13.5t71.5 42.5q33 29 54.5 74.5t21.5 109.5v445h68v-434z" />
    <glyph glyph-name="integral" unicode="&#x222b;" 
d="M580 731q45 0 71.5 -19t26.5 -46q0 -23 -15.5 -37.5t-36.5 -14.5q-23 0 -35 12t-12 35v20q0 11 -5 17t-16 6q-17 0 -28 -11.5t-22 -34.5q-13 -27 -18.5 -54.5t-5.5 -65.5q0 -11 0.5 -27.5t1.5 -35.5q1 -20 2 -41t3 -41q3 -47 5 -86t2 -76q0 -59 -6 -108.5t-16 -78.5
q-20 -63 -70.5 -100t-113.5 -37q-40 0 -62 18.5t-22 48.5q0 19 13.5 32.5t36.5 13.5q22 0 35.5 -14t15.5 -40q0 -14 3.5 -20t16.5 -6q21 0 39.5 16.5t32.5 43.5q14 28 22.5 62.5t8.5 70.5q0 4 -0.5 9.5t-1.5 12.5q-1 6 -1 11.5v10.5l-1 35q-1 6 -1.5 10t-0.5 8t-0.5 7.5
t-0.5 8.5q0 2 -0.5 4.5t-0.5 5.5t-0.5 6t-0.5 8q-4 48 -6 94t-2 85q0 74 11 131t32 88q21 30 52.5 46.5t69.5 16.5v0z" />
    <glyph glyph-name="uni222C" unicode="&#x222c;" 
d="M696 730q25 0 43 -16.5t18 -37.5q0 -18 -13 -30.5t-34 -12.5q-16 0 -29 9t-19 27q-5 12 -10.5 18.5t-6.5 6.5q-2 0 -7 -6.5t-10 -15.5q-5 -12 -8.5 -19l-5.5 -11l-3 -7.5t-2 -5.5t-1 -4.5t-1 -3.5q0 -2 -0.5 -3.5t-0.5 -3.5q-5 -17 -6.5 -35.5t-1.5 -33.5l1 -95l2 -94
q0 -15 0.5 -32.5t0.5 -32.5t0.5 -25l0.5 -10v-30q0 -73 -11 -129.5t-32 -99.5q-21 -41 -57.5 -66.5t-72.5 -25.5q-27 0 -42 14t-15 35q0 17 11 28.5t27 11.5q14 0 23.5 -7t15.5 -24q3 -12 9 -18t11 -6q10 0 19.5 10.5t16.5 26.5q9 24 16.5 51.5t13.5 59.5q0 5 0.5 10.5
t1.5 11.5t1.5 12.5t2.5 14.5q0 7 0.5 12.5t0.5 9.5t0.5 7t0.5 6l-2 111l-4 110l-2 111q-1 45 12 86.5t35 72.5q23 31 52 49.5t61 18.5v0zM481 730q24 0 40.5 -16.5t16.5 -37.5q0 -20 -12 -31.5t-30 -11.5q-16 0 -29.5 9.5t-19.5 26.5q-3 12 -8.5 18.5t-6.5 6.5
q-3 0 -14 -17.5t-18 -35.5q-8 -21 -12.5 -46.5t-4.5 -48.5l2 -94q1 -63 2 -99t1 -55q1 -20 1 -27.5v-11.5v-26q0 -76 -11.5 -134.5t-32.5 -100.5q-21 -39 -60.5 -65.5t-73.5 -26.5q-24 0 -38.5 14t-14.5 34q0 17 11.5 30t27.5 13q14 0 23.5 -8t14.5 -26q3 -13 9 -19t12 -6
q9 0 19 12t16 25q18 43 28 104.5t10 118.5l-6 249q-3 75 4.5 114.5t25.5 73.5q21 43 56.5 69t71.5 26v0z" />
    <glyph glyph-name="uni222E" unicode="&#x222e;" 
d="M680 648q0 -23 -12.5 -34.5t-33.5 -11.5t-31 9.5t-11 20.5q-1 4 -2 11.5t-3 14.5q-2 6 -6.5 10.5t-11.5 3.5q-12 -1 -19 -8t-15 -25q-8 -17 -12.5 -29t-8.5 -25q-3 -12 -5.5 -28t-5.5 -40q-1 -5 -2 -12.5t-1 -18.5q-1 -10 -2.5 -23.5t-3.5 -30.5q57 -18 85 -53t28 -87
q0 -57 -34 -93.5t-98 -48.5q-3 -62 -10 -99.5t-18 -61.5q-21 -51 -57.5 -76t-87.5 -25q-39 0 -61 15t-22 45q0 21 13 35t34 14q20 0 33.5 -11t18.5 -30q0 -6 1 -12l2 -12q2 -5 5.5 -8t10.5 -3q14 0 32.5 20.5t30.5 56.5q4 16 7 38.5t5 43.5q0 4 0.5 11t0.5 17q1 9 2 20.5
t2 25.5q-54 15 -83 50t-29 87q0 54 31.5 90t93.5 54q5 43 10.5 73.5t13.5 55.5q21 69 60.5 107.5t93.5 38.5q33 0 52.5 -16t19.5 -46v0zM575 294q0 36 -16 59t-66 50q-2 -11 -2.5 -19t-0.5 -14v-9.5v-4.5l-7 -83q-1 -16 -1.5 -27t-1.5 -18v-13v-8v-28q49 15 72 44t23 71v0z
M428 405q-48 -21 -69.5 -48t-21.5 -65q0 -36 19 -60.5t62 -44.5q0 34 1 61.5t2 53.5q1 25 3 50t4 53v0z" />
    <glyph glyph-name="therefore" unicode="&#x2234;" 
d="M452 591q29 0 50.5 -21t21.5 -50q0 -30 -21.5 -50t-49.5 -20q-30 0 -51 20t-21 50q0 29 20.5 50t50.5 21v0zM718 155q30 0 51 -21t21 -50q0 -30 -20.5 -50t-50.5 -20t-50.5 20t-20.5 50q0 29 20.5 50t49.5 21v0zM247 83h1q0 -30 -21 -50t-50 -20q-30 0 -51 20t-21 50
q0 29 20.5 50t50.5 21q29 0 50 -21t21 -50v0z" />
    <glyph glyph-name="uni2235" unicode="&#x2235;" 
d="M718 597q29 0 50 -20.5t21 -49.5q0 -30 -21 -50.5t-50 -20.5t-50 20.5t-21 50.5q0 29 21 49.5t50 20.5v0zM456 154q30 0 50.5 -20.5t20.5 -49.5q0 -30 -20.5 -50.5t-50.5 -20.5q-29 0 -50 20.5t-21 50.5q0 29 21 49.5t50 20.5v0zM181 597q29 0 50 -20.5t21 -49.5
q0 -30 -21 -50.5t-50 -20.5q-30 0 -50.5 20.5t-20.5 50.5q0 29 20.5 49.5t50.5 20.5v0z" />
    <glyph glyph-name="similar" unicode="&#x223c;" 
d="M437 265q-5 2 -9 4.5t-9 5.5q-4 3 -9 6t-9 6q-9 6 -19.5 10t-19.5 7q-50 8 -82.5 -3.5t-55.5 -28.5q-9 -6 -18.5 -14t-19.5 -15q-11 -7 -22 -11.5t-21 -2.5q-15 1 -17.5 13.5t8.5 30.5q7 13 26.5 36.5t47.5 45.5t62.5 38t72.5 15q44 -3 77.5 -18.5t59.5 -30.5
q10 -6 20.5 -12.5t21.5 -12.5q10 -5 21.5 -9t23.5 -4q52 -4 93.5 14t56.5 38q10 12 23 17t22 1q9 -3 12 -14.5t-7 -30.5q-7 -13 -25 -34.5t-44 -42.5q-27 -21 -59.5 -36t-68.5 -13q-46 2 -77.5 16t-55.5 29v0z" />
    <glyph glyph-name="uni223D" unicode="&#x223d;" 
d="M848 288q-2 -38 -15.5 -71t-38.5 -58q-25 -24 -60 -38.5t-78 -14.5q-27 0 -48.5 5t-37.5 12t-26 13.5t-13 9.5l29 55q1 -1 9.5 -6.5t22.5 -11.5t32 -10.5t37 -4.5q52 0 87.5 34.5t36.5 79.5q0 60 -34 100.5t-94 43.5q-36 1 -63 -12t-47 -34q-21 -22 -36.5 -49t-28.5 -53
q-9 -18 -26.5 -47.5t-45.5 -58.5q-28 -28 -67.5 -47.5t-92.5 -16.5q-35 2 -69 15.5t-61 38.5t-43.5 61t-14.5 84q1 34 15 66.5t39 58.5q24 25 59 41t79 16q27 0 48.5 -5.5t36.5 -12.5q16 -7 26 -13.5t14 -8.5l-29 -51q-1 0 -9.5 5t-22.5 11q-13 5 -31 10t-37 5
q-62 0 -94 -40t-32 -88q-1 -49 31 -90.5t99 -44.5q38 -2 67 16t53 47q23 28 41 61t35 60q36 60 83.5 99.5t125.5 37.5q34 -2 68.5 -15t61.5 -38t43.5 -61.5t15.5 -84.5v0z" />
    <glyph glyph-name="uni2252" unicode="&#x2252;" 
d="M96 415h708v-62h-708v62zM96 247h708v-62h-708v62zM178 564q0 30 20 51t50 21t51 -21t21 -51t-21 -50.5t-51 -20.5t-50 20.5t-20 50.5v0zM581 37q0 28 20.5 49.5t50.5 21.5q28 0 49.5 -21.5t21.5 -49.5q0 -30 -21.5 -51t-49.5 -21q-30 0 -50.5 21t-20.5 51v0z" />
    <glyph glyph-name="notequal" unicode="&#x2260;" 
d="M657 632l54 -44l-100 -128h165v-64h-215l-125 -162h340v-64h-391l-153 -197l-54 43l119 154h-166v64h217l126 162h-343v64h393z" />
    <glyph glyph-name="equivalence" unicode="&#x2261;" 
d="M110 438v58h680v-58h-680zM109 271v58h681v-58h-681zM109 104v58h681v-58h-681z" />
    <glyph glyph-name="lessequal" unicode="&#x2264;" 
d="M724 215l-35 -63l-510 262q-3 0 -13 6.5t-10 8.5l3 2.5t7 4.5t7.5 4.5t5.5 3.5l497 259l31 -64l-386 -209zM752 -3h-605v69h605v-69z" />
    <glyph glyph-name="greaterequal" unicode="&#x2265;" 
d="M718 444q1 -1 4.5 -3.5t8.5 -4.5q4 -2 7.5 -4.5l3.5 -2.5q0 -2 -11 -8.5t-13 -6.5l-509 -262l-35 63l401 215l-385 209l31 64zM752 -3h-606v69h606v-69z" />
    <glyph glyph-name="uni226A" unicode="&#x226a;" 
d="M853 -30l-37 -44q-72 49 -135.5 94t-123.5 88t-119.5 84t-122.5 84q-7 5 -12 10.5t-5 13.5q0 4 2 7.5t5 7.5l8 6l8 6l495 347l35 -47l-472 -327zM614 -30l-37 -44q-72 50 -135.5 95t-124.5 87q-60 43 -119.5 84t-122.5 84q-7 5 -12 10.5t-5 13.5q0 4 2 7.5t5 7.5l8 6l8 6
l496 347l35 -47l-472 -327z" />
    <glyph glyph-name="uni226B" unicode="&#x226b;" 
d="M839 300q0 -6 -4 -10.5t-7 -7.5t-6.5 -5.5t-6.5 -3.5l-495 -347l-37 44l474 330l-472 327l35 47l495 -347q8 -6 16 -12.5t8 -14.5v0zM600 300q0 -6 -4 -10.5t-9 -7.5q-1 -2 -2.5 -3t-2.5 -2q-2 -2 -4 -3t-3 -2l-495 -346l-37 44l473 330l-471 327l35 47l495 -347
q3 -3 7.5 -6t8.5 -6q4 -4 6.5 -7.5t2.5 -7.5v0z" />
    <glyph glyph-name="propersubset" unicode="&#x2282;" 
d="M383 8v-1q-74 0 -132 22t-99 61q-41 40 -62.5 93.5t-21.5 116.5q0 62 21.5 115.5t62.5 92.5q41 40 99.5 62.5t132.5 22.5h427v-70h-443q-60 0 -102.5 -21.5t-70.5 -53.5t-41 -70.5t-13 -72.5v-10q0 -35 13 -73.5t40 -70.5q28 -32 71 -52.5t103 -20.5h443v-70h-428z" />
    <glyph glyph-name="propersuperset" unicode="&#x2283;" 
d="M515 8l-427 -1v70h444q59 0 102 20.5t70 53.5q28 32 41.5 70.5t13.5 73.5v10q0 34 -13.5 72t-41.5 71q-27 32 -70 53t-102 21h-444v71h427q73 0 131.5 -22.5t99.5 -62.5q41 -39 63 -92.5t22 -115.5q0 -63 -22 -116.5t-63 -92.5t-99.5 -61t-131.5 -22v0z" />
    <glyph glyph-name="reflexsubset" unicode="&#x2286;" 
d="M383 127v-1q-80 0 -139.5 19.5t-98.5 53.5t-58 80t-19 100q0 53 19 99.5t59 80.5q39 34 98.5 54t139.5 20h427v-71h-443q-62 0 -105.5 -16.5t-70.5 -42.5q-27 -27 -39.5 -59.5t-12.5 -64.5q0 -34 12.5 -66.5t39.5 -58.5t70.5 -41.5t105.5 -15.5h443v-70h-428zM68 -33v72
h763v-72h-763z" />
    <glyph glyph-name="reflexsuperset" unicode="&#x2287;" 
d="M515 127l-427 -1v70h444q61 0 104 15.5t71 41.5q27 26 40 59t13 67q0 32 -13 64.5t-40 58.5q-28 26 -71 42.5t-104 16.5h-444v72h427q79 0 138.5 -20t98.5 -54q40 -34 59.5 -80.5t19.5 -99.5q0 -54 -19.5 -100t-58.5 -80t-98.5 -53t-139.5 -19v0zM68 -33v72h763v-72h-763
z" />
    <glyph glyph-name="uni2299" unicode="&#x2299;" 
d="M454 -114q-90 0 -166.5 31t-133.5 87q-56 55 -87.5 130.5t-31.5 164.5q0 87 32 162t88 130q57 55 133.5 86.5t166.5 31.5q87 0 161.5 -31.5t129.5 -86.5q54 -55 85.5 -130t31.5 -162q0 -89 -31 -164.5t-86 -130.5q-55 -56 -130 -87t-162 -31v0zM445 672
q-74 0 -139.5 -30.5t-115.5 -81.5q-49 -51 -78 -119.5t-29 -144.5q0 -77 29 -144.5t79 -117.5q50 -51 117 -80t144 -29q75 0 141.5 29t116.5 80q50 50 79 117.5t29 144.5t-29.5 145.5t-80.5 119.5t-119 81t-144 30v0zM451 108q-43 0 -78.5 13.5t-61.5 39.5q-26 25 -40.5 60
t-14.5 78q0 84 54.5 136.5t140.5 52.5q87 0 141 -52t54 -136q0 -43 -15 -78t-41 -61q-26 -25 -61.5 -39t-77.5 -14v0z" />
    <glyph glyph-name="perpendicular" unicode="&#x22a5;" 
d="M414 36v566h72v-566h305v-55h-682v55h305z" />
    <glyph glyph-name="uni2312" unicode="&#x2312;" 
d="M152 557h-63q10 50 41 93t78 74t107 49t128 18q67 0 127 -18t107 -49t78 -74t42 -93h-63q-9 42 -36 76.5t-66 58.5q-39 25 -88 38.5t-101 13.5q-54 0 -102.5 -13.5t-87.5 -37.5q-39 -25 -65.5 -59.5t-35.5 -76.5v0z" />
    <glyph glyph-name="uni2460" unicode="&#x2460;" 
d="M886 301q0 -91 -34.5 -170.5t-93.5 -138.5t-138.5 -93t-169.5 -34q-91 0 -170.5 34t-138.5 93t-93 138.5t-34 170.5t34.5 170.5t93.5 138.5t138.5 93t169.5 34q89 0 168.5 -34t138.5 -93t94 -138.5t35 -170.5v0zM853 301q0 84 -32.5 157.5t-86.5 127.5
q-55 55 -128.5 86.5t-155.5 31.5q-83 0 -156.5 -31.5t-127.5 -86.5q-55 -54 -87 -127.5t-32 -157.5t31.5 -157t86.5 -128t128 -86.5t157 -31.5q83 0 156.5 31.5t128.5 86.5q54 55 86 128t32 157v0zM486 43h-59v386h-83v44q15 2 29.5 5t26.5 12q13 9 23.5 25t18.5 44h44v-516
z" />
    <glyph glyph-name="uni2461" unicode="&#x2461;" 
d="M886 301q0 -91 -34.5 -170.5t-93.5 -138.5t-138.5 -93t-169.5 -34q-91 0 -170.5 34t-138.5 93t-93 138.5t-34 170.5t34.5 170.5t93.5 138.5t138.5 93t169.5 34q89 0 168.5 -34t138.5 -93t94 -138.5t35 -170.5v0zM853 301q0 84 -32.5 157.5t-86.5 127.5
q-55 55 -128.5 86.5t-155.5 31.5q-83 0 -156.5 -31.5t-127.5 -86.5q-55 -54 -87 -127.5t-32 -157.5t31.5 -157t86.5 -128t128 -86.5t157 -31.5q83 0 156.5 31.5t128.5 86.5q54 55 86 128t32 157v0zM606 43h-312q3 40 11.5 68.5t23.5 51.5q14 22 33.5 41.5t43.5 42.5
q23 21 48 36.5t45 33.5q20 17 33.5 41t13.5 63q0 58 -25.5 80.5t-54.5 22.5q-33 0 -52 -16.5t-29 -38.5t-12.5 -44.5t-2.5 -34.5h-63q5 82 42 132.5t115 50.5q20 0 45 -6.5t46 -23.5q22 -18 36.5 -47.5t14.5 -75.5q0 -57 -25.5 -95t-88.5 -83q-39 -29 -61.5 -50.5
t-34.5 -38.5q-13 -18 -18 -32t-8 -29h236v-49z" />
    <glyph glyph-name="uni2462" unicode="&#x2462;" 
d="M886 301q0 -91 -34.5 -170.5t-93.5 -138.5t-138.5 -93t-169.5 -34q-91 0 -170.5 34t-138.5 93t-93 138.5t-34 170.5t34.5 170.5t93.5 138.5t138.5 93t169.5 34q89 0 168.5 -34t138.5 -93t94 -138.5t35 -170.5v0zM853 301q0 84 -32.5 157.5t-86.5 127.5
q-55 55 -128.5 86.5t-155.5 31.5q-83 0 -156.5 -31.5t-127.5 -86.5q-55 -54 -87 -127.5t-32 -157.5t31.5 -157t86.5 -128t128 -86.5t157 -31.5q83 0 156.5 31.5t128.5 86.5q54 55 86 128t32 157v0zM606 195q0 -77 -44 -121.5t-113 -44.5q-30 0 -57 8.5t-48 28.5t-34.5 53.5
t-15.5 83.5h60q0 -15 2.5 -36.5t11.5 -41.5t28 -33.5t54 -13.5q14 0 31 4.5t31 17.5q15 13 25 35t10 58q0 49 -24.5 76t-72.5 27h-32v43h26q41 0 65.5 25.5t24.5 67.5q0 26 -8 43.5t-20 28.5q-11 10 -25 15t-26 5q-44 0 -63 -33.5t-22 -75.5h-59q2 44 15.5 74t33.5 49
q20 18 45 26.5t51 8.5q60 0 99 -37t39 -97q0 -34 -9 -55.5t-21 -34.5t-24.5 -19.5t-18.5 -8.5q9 -3 23 -9t28 -20q14 -13 24 -36.5t10 -60.5v0z" />
    <glyph glyph-name="uni2463" unicode="&#x2463;" 
d="M886 301q0 -91 -34.5 -170.5t-93.5 -138.5t-138.5 -93t-169.5 -34q-91 0 -170.5 34t-138.5 93t-93 138.5t-34 170.5t34.5 170.5t93.5 138.5t138.5 93t169.5 34q89 0 168.5 -34t138.5 -93t94 -138.5t35 -170.5v0zM853 301q0 84 -32.5 157.5t-86.5 127.5
q-55 55 -128.5 86.5t-155.5 31.5q-83 0 -156.5 -31.5t-127.5 -86.5q-55 -54 -87 -127.5t-32 -157.5t31.5 -157t86.5 -128t128 -86.5t157 -31.5q83 0 156.5 31.5t128.5 86.5q54 55 86 128t32 157v0zM584 182h-56v-124h-60v124h-196v50l201 342h55v-342h56v-50zM468 232v237
l-139 -237h139z" />
    <glyph glyph-name="uni2464" unicode="&#x2464;" 
d="M886 301q0 -91 -34.5 -170.5t-93.5 -138.5t-138.5 -93t-169.5 -34q-91 0 -170.5 34t-138.5 93t-93 138.5t-34 170.5t34.5 170.5t93.5 138.5t138.5 93t169.5 34q89 0 168.5 -34t138.5 -93t94 -138.5t35 -170.5v0zM853 301q0 84 -32.5 157.5t-86.5 127.5
q-55 55 -128.5 86.5t-155.5 31.5q-83 0 -156.5 -31.5t-127.5 -86.5q-55 -54 -87 -127.5t-32 -157.5t31.5 -157t86.5 -128t128 -86.5t157 -31.5q83 0 156.5 31.5t128.5 86.5q54 55 86 128t32 157v0zM606 209q0 -87 -47 -133.5t-116 -46.5q-47 0 -75 18t-44 42t-22 48.5
t-8 38.5h62q3 -17 7.5 -34t13.5 -32q10 -14 25 -23t39 -9q28 0 47.5 13t32.5 34q12 20 17.5 44t5.5 45q0 43 -21.5 80.5t-67.5 37.5q-3 0 -12.5 -1t-21.5 -6q-13 -4 -26 -14t-22 -28h-61l36 276h236v-50h-180l-22 -161q6 7 24 20t55 13q66 0 105.5 -47.5t39.5 -124.5v0z" />
    <glyph glyph-name="uni2465" unicode="&#x2465;" 
d="M886 301q0 -91 -34.5 -170.5t-93.5 -138.5t-138.5 -93t-169.5 -34q-91 0 -170.5 34t-138.5 93t-93 138.5t-34 170.5t34.5 170.5t93.5 138.5t138.5 93t169.5 34q89 0 168.5 -34t138.5 -93t94 -138.5t35 -170.5v0zM853 301q0 84 -32.5 157.5t-86.5 127.5
q-55 55 -128.5 86.5t-155.5 31.5q-83 0 -156.5 -31.5t-127.5 -86.5q-55 -54 -87 -127.5t-32 -157.5t31.5 -157t86.5 -128t128 -86.5t157 -31.5q83 0 156.5 31.5t128.5 86.5q54 55 86 128t32 157v0zM606 213q0 -47 -13 -81.5t-34 -57.5t-48 -34t-55 -11q-45 0 -76 22t-50 59
q-20 37 -28 83.5t-8 96.5q0 51 9.5 108t32.5 97q15 26 33 41.5t35 23.5t32 10.5t26 2.5q48 0 88 -32.5t49 -98.5h-62q-6 42 -26.5 61t-48.5 19q-38 0 -58.5 -23t-31.5 -56q-10 -33 -12.5 -69.5t-2.5 -62.5q4 8 11.5 20t19.5 23q13 12 31 20t45 8q21 0 45.5 -8t46.5 -27
q21 -20 35.5 -52.5t14.5 -81.5v0zM543 209q0 51 -20.5 88t-66.5 37q-33 0 -62.5 -29.5t-29.5 -92.5q0 -18 3.5 -41t13.5 -44t27.5 -35t45.5 -14q32 0 60.5 29.5t28.5 101.5v0z" />
    <glyph glyph-name="uni2466" unicode="&#x2466;" 
d="M886 301q0 -91 -34.5 -170.5t-93.5 -138.5t-138.5 -93t-169.5 -34q-91 0 -170.5 34t-138.5 93t-93 138.5t-34 170.5t34.5 170.5t93.5 138.5t138.5 93t169.5 34q89 0 168.5 -34t138.5 -93t94 -138.5t35 -170.5v0zM853 301q0 84 -32.5 157.5t-86.5 127.5
q-55 55 -128.5 86.5t-155.5 31.5q-83 0 -156.5 -31.5t-127.5 -86.5q-55 -54 -87 -127.5t-32 -157.5t31.5 -157t86.5 -128t128 -86.5t157 -31.5q83 0 156.5 31.5t128.5 86.5q54 55 86 128t32 157v0zM601 487q-57 -81 -90 -150.5t-50 -127.5q-17 -59 -23 -106t-9 -82h-62
q3 44 13.5 98t30.5 114t50.5 124t75.5 130h-238v50h302v-50z" />
    <glyph glyph-name="uni2467" unicode="&#x2467;" 
d="M606 183q0 -67 -41 -110.5t-115 -43.5q-76 0 -116 44t-40 110q0 37 10.5 62t24.5 41t28.5 24t23.5 12q-36 13 -53 45t-17 70q0 56 35 96t104 40q66 0 102.5 -39.5t36.5 -96.5q0 -37 -17.5 -69.5t-52.5 -45.5q8 -4 22.5 -12.5t28.5 -24.5q15 -15 25.5 -40t10.5 -62v0z
M528 431q-1 47 -21.5 70t-56.5 23q-45 0 -61.5 -30t-16.5 -63q0 -46 21 -69t57 -23q26 0 41.5 10.5t23.5 24.5q8 15 10.5 30.5t2.5 26.5v0zM544 186q0 47 -25 79.5t-69 32.5q-42 0 -68 -30.5t-26 -81.5q0 -20 4.5 -39t15.5 -35q11 -15 29 -24.5t45 -9.5q26 0 44 9.5t29 25.5
q11 15 16 34.5t5 38.5v0zM886 301q0 -91 -34.5 -170.5t-93.5 -138.5t-138.5 -93t-169.5 -34q-91 0 -170.5 34t-138.5 93t-93 138.5t-34 170.5t34.5 170.5t93.5 138.5t138.5 93t169.5 34q89 0 168.5 -34t138.5 -93t94 -138.5t35 -170.5v0zM853 301q0 84 -32.5 157.5
t-86.5 127.5q-55 55 -128.5 86.5t-155.5 31.5q-83 0 -156.5 -31.5t-127.5 -86.5q-55 -54 -87 -127.5t-32 -157.5t31.5 -157t86.5 -128t128 -86.5t157 -31.5q83 0 156.5 31.5t128.5 86.5q54 55 86 128t32 157v0z" />
    <glyph glyph-name="uni2468" unicode="&#x2468;" 
d="M886 301q0 -91 -34.5 -170.5t-93.5 -138.5t-138.5 -93t-169.5 -34q-91 0 -170.5 34t-138.5 93t-93 138.5t-34 170.5t34.5 170.5t93.5 138.5t138.5 93t169.5 34q89 0 168.5 -34t138.5 -93t94 -138.5t35 -170.5v0zM853 301q0 84 -32.5 157.5t-86.5 127.5
q-55 55 -128.5 86.5t-155.5 31.5q-83 0 -156.5 -31.5t-127.5 -86.5q-55 -54 -87 -127.5t-32 -157.5t31.5 -157t86.5 -128t128 -86.5t157 -31.5q83 0 156.5 31.5t128.5 86.5q54 55 86 128t32 157v0zM606 312q0 -51 -10 -108.5t-32 -96.5q-16 -27 -34 -42.5t-35 -23.5
t-32.5 -10t-24.5 -2q-48 0 -88.5 32.5t-48.5 98.5h62q6 -43 26 -61.5t49 -18.5q36 0 57 22.5t31 54.5q10 33 13 69.5t4 64.5q-4 -8 -11.5 -20t-19.5 -23q-13 -12 -31.5 -20t-44.5 -8q-22 0 -47 7.5t-46 27.5q-21 19 -35 51.5t-14 82.5q0 45 12.5 79.5t33.5 57.5t48 35t56 12
q44 0 75 -22.5t50 -58.5q19 -37 28 -84t9 -96v0zM536 390q0 17 -4 40t-14 44t-27.5 35.5t-44.5 14.5q-33 0 -61 -30t-28 -101q0 -66 24.5 -95.5t60.5 -29.5q37 0 65.5 31t28.5 91v0z" />
    <glyph glyph-name="uni2469" unicode="&#x2469;" 
d="M886 301q0 -91 -34.5 -170.5t-93.5 -138.5t-138.5 -93t-169.5 -34q-91 0 -170.5 34t-138.5 93t-93 138.5t-34 170.5t34.5 170.5t93.5 138.5t138.5 93t169.5 34q89 0 168.5 -34t138.5 -93t94 -138.5t35 -170.5v0zM853 301q0 84 -32.5 157.5t-86.5 127.5
q-55 55 -128.5 86.5t-155.5 31.5q-83 0 -156.5 -31.5t-127.5 -86.5q-55 -54 -87 -127.5t-32 -157.5t31.5 -157t86.5 -128t128 -86.5t157 -31.5q83 0 156.5 31.5t128.5 86.5q54 55 86 128t32 157v0zM731 301q0 -46 -6.5 -92.5t-23.5 -84.5t-46 -61.5t-75 -23.5q-47 0 -76 24
t-45 62q-17 38 -22.5 84.5t-5.5 91.5t5.5 91.5t22.5 84.5q16 37 45 61.5t76 24.5q46 0 75.5 -24.5t46.5 -62.5q16 -38 22.5 -84.5t6.5 -90.5v0zM671 301q0 37 -3.5 75t-13.5 69t-28 50.5t-46 19.5t-45.5 -19t-27.5 -49q-11 -30 -14.5 -68.5t-3.5 -77.5q0 -18 1 -53.5
t10 -71.5q8 -36 26.5 -63t53.5 -27q28 0 46 19.5t28 50.5t13.5 69t3.5 76v0zM318 53h-58v372h-80v41q15 2 28.5 5t26.5 11q12 9 22 24.5t18 42.5h43v-496z" />
    <glyph glyph-name="uni246A" unicode="&#x246a;" 
d="M886 301q0 -91 -34.5 -170.5t-93.5 -138.5t-138.5 -93t-169.5 -34q-91 0 -170.5 34t-138.5 93t-93 138.5t-34 170.5t34.5 170.5t93.5 138.5t138.5 93t169.5 34q89 0 168.5 -34t138.5 -93t94 -138.5t35 -170.5v0zM853 301q0 84 -32.5 157.5t-86.5 127.5
q-55 55 -128.5 86.5t-155.5 31.5q-83 0 -156.5 -31.5t-127.5 -86.5q-55 -54 -87 -127.5t-32 -157.5t31.5 -157t86.5 -128t128 -86.5t157 -31.5q83 0 156.5 31.5t128.5 86.5q54 55 86 128t32 157v0zM653 53h-59v372h-79v41q14 2 27.5 5t26.5 11q12 9 22 24.5t18 42.5h44v-496
zM318 53h-58v372h-80v41q15 2 28.5 5t26.5 11q12 9 22 24.5t18 42.5h43v-496z" />
    <glyph glyph-name="uni246B" unicode="&#x246b;" 
d="M886 301q0 -91 -34.5 -170.5t-93.5 -138.5t-138.5 -93t-169.5 -34q-91 0 -170.5 34t-138.5 93t-93 138.5t-34 170.5t34.5 170.5t93.5 138.5t138.5 93t169.5 34q89 0 168.5 -34t138.5 -93t94 -138.5t35 -170.5v0zM853 301q0 84 -32.5 157.5t-86.5 127.5
q-55 55 -128.5 86.5t-155.5 31.5q-83 0 -156.5 -31.5t-127.5 -86.5q-55 -54 -87 -127.5t-32 -157.5t31.5 -157t86.5 -128t128 -86.5t157 -31.5q83 0 156.5 31.5t128.5 86.5q54 55 86 128t32 157v0zM716 53h-300q3 38 11.5 65.5t22.5 49.5q13 22 31.5 41t41.5 40q24 20 48 35
t43 32q19 18 31.5 41t12.5 59q0 57 -25 78t-52 21q-32 0 -50.5 -16t-27.5 -38q-9 -21 -12 -42.5t-3 -32.5h-59q4 80 40 128.5t111 48.5q20 0 43.5 -6.5t44.5 -23.5q20 -16 34 -44.5t14 -72.5q0 -56 -24 -92t-85 -80q-38 -28 -60 -48.5t-34 -36.5q-12 -17 -17 -31t-8 -28h228
v-47zM303 53h-58v372h-80v41q15 2 29 5t26 11q12 9 22 24.5t18 42.5h43v-496z" />
    <glyph glyph-name="uni246C" unicode="&#x246c;" 
d="M886 301q0 -91 -34.5 -170.5t-93.5 -138.5t-138.5 -93t-169.5 -34q-91 0 -170.5 34t-138.5 93t-93 138.5t-34 170.5t34.5 170.5t93.5 138.5t138.5 93t169.5 34q89 0 168.5 -34t138.5 -93t94 -138.5t35 -170.5v0zM853 301q0 84 -32.5 157.5t-86.5 127.5
q-55 55 -128.5 86.5t-155.5 31.5q-83 0 -156.5 -31.5t-127.5 -86.5q-55 -54 -87 -127.5t-32 -157.5t31.5 -157t86.5 -128t128 -86.5t157 -31.5q83 0 156.5 31.5t128.5 86.5q54 55 86 128t32 157v0zM716 199q0 -73 -42.5 -116.5t-108.5 -43.5q-60 0 -102.5 37.5t-46.5 130.5
h57q0 -17 2.5 -38t11.5 -39q9 -19 27 -31.5t51 -12.5q12 0 28.5 4.5t30.5 16.5q15 12 25 33.5t10 56.5q0 48 -23.5 74t-68.5 26h-32v40h25q38 0 62.5 23.5t24.5 66.5q0 25 -8 42t-19 27t-24.5 14.5t-24.5 4.5q-42 0 -60.5 -32.5t-22.5 -72.5h-56q5 83 46 118t94 35
q58 0 95 -36t37 -94q0 -32 -8.5 -53t-20.5 -33q-11 -13 -22.5 -19t-17.5 -8q8 -3 21.5 -8.5t26.5 -18.5t23 -35.5t10 -58.5v0zM303 53h-58v372h-80v41q15 2 29 5t26 11q12 9 22 24.5t18 42.5h43v-496z" />
    <glyph glyph-name="uni246D" unicode="&#x246d;" 
d="M886 301q0 -91 -34.5 -170.5t-93.5 -138.5t-138.5 -93t-169.5 -34q-91 0 -170.5 34t-138.5 93t-93 138.5t-34 170.5t34.5 170.5t93.5 138.5t138.5 93t169.5 34q89 0 168.5 -34t138.5 -93t94 -138.5t35 -170.5v0zM853 301q0 84 -32.5 157.5t-86.5 127.5
q-55 55 -128.5 86.5t-155.5 31.5q-83 0 -156.5 -31.5t-127.5 -86.5q-55 -54 -87 -127.5t-32 -157.5t31.5 -157t86.5 -128t128 -86.5t157 -31.5q83 0 156.5 31.5t128.5 86.5q54 55 86 128t32 157v0zM716 173h-54v-120h-57v120h-189v48l194 328h52v-328h54v-48zM605 221v227
l-135 -227h135zM303 53h-58v372h-80v41q15 2 29 5t26 11q12 9 22 24.5t18 42.5h43v-496z" />
    <glyph glyph-name="uni246E" unicode="&#x246e;" 
d="M886 301q0 -91 -34.5 -170.5t-93.5 -138.5t-138.5 -93t-169.5 -34q-91 0 -170.5 34t-138.5 93t-93 138.5t-34 170.5t34.5 170.5t93.5 138.5t138.5 93t169.5 34q89 0 168.5 -34t138.5 -93t94 -138.5t35 -170.5v0zM853 301q0 84 -32.5 157.5t-86.5 127.5
q-55 55 -128.5 86.5t-155.5 31.5q-83 0 -156.5 -31.5t-127.5 -86.5q-55 -54 -87 -127.5t-32 -157.5t31.5 -157t86.5 -128t128 -86.5t157 -31.5q83 0 156.5 31.5t128.5 86.5q54 55 86 128t32 157v0zM716 213q0 -81 -44.5 -127.5t-113.5 -46.5q-45 0 -72 17.5t-42 41.5
t-21 47.5t-7 35.5h58q3 -16 8 -32.5t14 -30.5t23.5 -23t37.5 -9q28 0 47 13t31 33q11 19 16.5 42.5t5.5 43.5q0 42 -21.5 77.5t-64.5 35.5q-3 0 -12.5 -1t-21.5 -5q-12 -5 -24.5 -14.5t-21.5 -26.5h-58l34 265h227v-47h-174l-20 -155q6 6 23 18.5t53 12.5q66 0 103 -46
t37 -119v0zM303 53h-58v372h-80v41q15 2 29 5t26 11q12 9 22 24.5t18 42.5h43v-496z" />
    <glyph glyph-name="uni2474" unicode="&#x2474;" 
d="M425 13v432h-91v49q15 1 30.5 4.5t29.5 13.5q15 9 27 27t21 50h49v-576h-66zM888 301q0 -114 -33.5 -219t-96.5 -198h-33q13 21 34.5 59.5t41.5 92.5q21 53 36 120t15 145q0 77 -15 144t-36 120q-20 54 -41.5 92.5t-34.5 60.5h33q63 -93 96.5 -199t33.5 -218v0zM176 -116
h-33q-64 93 -97 198t-33 219q0 112 33 218t97 199h33q-14 -22 -35.5 -60.5t-41.5 -92.5q-21 -53 -35.5 -120t-14.5 -144q0 -78 14.5 -145t35.5 -120q20 -54 41.5 -92.5t35.5 -59.5v0z" />
    <glyph glyph-name="uni2475" unicode="&#x2475;" 
d="M621 13h-341q3 45 13 77t26 58q15 25 36 47t47 46q22 21 49 39.5t50 39.5t39 48.5t16 66.5q0 19 -5 39.5t-15 37.5q-11 16 -27.5 27t-40.5 11q-37 0 -58 -18.5t-31 -43.5q-11 -25 -14 -50t-3 -38h-68q2 39 12.5 76t31.5 66q20 28 51.5 45.5t76.5 17.5q22 0 49 -7.5
t51 -25.5q23 -19 39 -52.5t16 -85.5q0 -33 -6.5 -58.5t-20.5 -48.5q-15 -23 -38.5 -45.5t-58.5 -47.5q-43 -32 -68 -56t-39 -43q-13 -19 -18.5 -35t-9.5 -32h259v-55zM888 301q0 -114 -33.5 -219t-96.5 -198h-33q13 21 34.5 59.5t41.5 92.5q21 53 36 120t15 145
q0 77 -15 144t-36 120q-20 54 -41.5 92.5t-34.5 60.5h33q63 -93 96.5 -199t33.5 -218v0zM176 -116h-33q-64 93 -97 198t-33 219q0 112 33 218t97 199h33q-14 -22 -35.5 -60.5t-41.5 -92.5q-21 -53 -35.5 -120t-14.5 -144q0 -78 14.5 -145t35.5 -120q20 -54 41.5 -92.5
t35.5 -59.5v0z" />
    <glyph glyph-name="uni2476" unicode="&#x2476;" 
d="M416 296v48h28q45 0 72 28t27 76q0 28 -8.5 47.5t-21.5 31.5q-12 12 -27.5 17.5t-29.5 5.5q-11 0 -25.5 -4t-28.5 -17q-14 -12 -25.5 -36.5t-14.5 -65.5h-64q3 51 17.5 85t36.5 55q22 20 49.5 29t55.5 9q66 0 108.5 -41.5t42.5 -108.5q0 -21 -4.5 -43t-16.5 -42
q-15 -24 -29.5 -32.5t-28.5 -13.5q9 -4 24.5 -10.5t30.5 -21.5q15 -16 26 -42t11 -68q0 -85 -48 -135t-123 -50q-38 0 -64 9.5t-43 23.5t-26 29t-13 25q-9 16 -13.5 31t-6.5 28q-3 14 -3.5 26t-0.5 22h65q1 -17 3.5 -41t13.5 -45q10 -22 30.5 -37.5t58.5 -15.5
q16 0 34.5 5.5t34.5 19.5q15 15 25.5 39.5t10.5 63.5q0 55 -26.5 85.5t-78.5 30.5h-35zM888 301q0 -114 -33.5 -219t-96.5 -198h-33q13 21 34.5 59.5t41.5 92.5q21 53 36 120t15 145q0 77 -15 144t-36 120q-20 54 -41.5 92.5t-34.5 60.5h33q63 -93 96.5 -199t33.5 -218v0z
M176 -116h-33q-64 93 -97 198t-33 219q0 112 33 218t97 199h33q-14 -22 -35.5 -60.5t-41.5 -92.5q-21 -53 -35.5 -120t-14.5 -144q0 -78 14.5 -145t35.5 -120q20 -54 41.5 -92.5t35.5 -59.5v0z" />
    <glyph glyph-name="uni2477" unicode="&#x2477;" 
d="M479 589h60v-380h60v-57h-60v-139h-66v139h-215v57zM320 209h153v263zM888 301q0 -114 -33.5 -219t-96.5 -198h-33q13 21 34.5 59.5t41.5 92.5q21 53 36 120t15 145q0 77 -15 144t-36 120q-20 54 -41.5 92.5t-34.5 60.5h33q63 -93 96.5 -199t33.5 -218v0zM176 -116h-33
q-64 93 -97 198t-33 219q0 112 33 218t97 199h33q-14 -22 -35.5 -60.5t-41.5 -92.5q-21 -53 -35.5 -120t-14.5 -144q0 -78 14.5 -145t35.5 -120q20 -54 41.5 -92.5t35.5 -59.5v0z" />
    <glyph glyph-name="uni2478" unicode="&#x2478;" 
d="M597 534h-197l-24 -180q3 4 9.5 10t16.5 12t24.5 10.5t35.5 4.5q75 0 117 -54t42 -138q0 -96 -51.5 -149t-126.5 -53q-51 0 -82 19.5t-48 46.5t-24 55t-9 44h68q3 -17 7.5 -36.5t14.5 -35.5q10 -17 27 -27.5t44 -10.5q31 0 52.5 15t34.5 38q13 22 19 49t6 50
q0 50 -24.5 90.5t-72.5 40.5q-20 0 -46 -11t-44 -44h-67l40 309h258v-55zM888 301q0 -114 -33.5 -219t-96.5 -198h-33q13 21 34.5 59.5t41.5 92.5q21 53 36 120t15 145q0 77 -15 144t-36 120q-20 54 -41.5 92.5t-34.5 60.5h33q63 -93 96.5 -199t33.5 -218v0zM176 -116h-33
q-64 93 -97 198t-33 219q0 112 33 218t97 199h33q-14 -22 -35.5 -60.5t-41.5 -92.5q-21 -53 -35.5 -120t-14.5 -144q0 -78 14.5 -145t35.5 -120q20 -54 41.5 -92.5t35.5 -59.5v0z" />
    <glyph glyph-name="uni2479" unicode="&#x2479;" 
d="M614 459h-68q-6 46 -28.5 67.5t-53.5 21.5q-41 0 -63.5 -26t-34.5 -62q-11 -37 -14 -77.5t-3 -70.5q4 8 12 21.5t22 26.5q13 13 33.5 23t49.5 10q22 0 49 -9t50 -30q24 -22 40 -58.5t16 -92.5q0 -53 -14.5 -91.5t-37.5 -64.5q-23 -25 -52.5 -37.5t-59.5 -12.5
q-49 0 -83 24.5t-55 65.5q-21 40 -30 93t-9 109q0 55 10.5 119.5t36.5 109.5q16 28 35.5 45.5t37.5 26.5q19 9 35.5 12t28.5 3q54 0 97 -37.5t53 -108.5v0zM457 337q-36 0 -68.5 -32.5t-32.5 -102.5q0 -21 4 -47t16 -49q11 -23 30 -38.5t48 -15.5q35 0 66 32.5t31 113.5
q0 27 -5 52t-15 44q-11 19 -29 31t-45 12v0zM888 301q0 -114 -33.5 -219t-96.5 -198h-33q13 21 34.5 59.5t41.5 92.5q21 53 36 120t15 145q0 77 -15 144t-36 120q-20 54 -41.5 92.5t-34.5 60.5h33q63 -93 96.5 -199t33.5 -218v0zM176 -116h-33q-64 93 -97 198t-33 219
q0 112 33 218t97 199h33q-14 -22 -35.5 -60.5t-41.5 -92.5q-21 -53 -35.5 -120t-14.5 -144q0 -78 14.5 -145t35.5 -120q20 -54 41.5 -92.5t35.5 -59.5v0z" />
    <glyph glyph-name="uni247A" unicode="&#x247a;" 
d="M293 519v56h330v-56q-39 -55 -71 -114t-56 -120q-18 -45 -28.5 -82.5t-17.5 -71.5q-6 -34 -9.5 -66.5t-5.5 -66.5h-69q9 109 51.5 246t134.5 275h-259zM888 301q0 -114 -33.5 -219t-96.5 -198h-33q13 21 34.5 59.5t41.5 92.5q21 53 36 120t15 145q0 77 -15 144t-36 120
q-20 54 -41.5 92.5t-34.5 60.5h33q63 -93 96.5 -199t33.5 -218v0zM176 -116h-33q-64 93 -97 198t-33 219q0 112 33 218t97 199h33q-14 -22 -35.5 -60.5t-41.5 -92.5q-21 -53 -35.5 -120t-14.5 -144q0 -78 14.5 -145t35.5 -120q20 -54 41.5 -92.5t35.5 -59.5v0z" />
    <glyph glyph-name="uni247B" unicode="&#x247b;" 
d="M527 324q9 -5 24.5 -13t31.5 -24q15 -17 26.5 -45t11.5 -73q0 -75 -45 -123.5t-125 -48.5q-84 0 -127.5 49.5t-43.5 122.5q0 41 11.5 69t26.5 46q16 17 31.5 26t24.5 14q-7 2 -20 9t-25 22q-13 14 -22 37.5t-9 59.5q0 61 38.5 107t114.5 46q74 0 113 -45t39 -108
q0 -36 -17 -74.5t-59 -53.5v0zM451 550q-29 0 -46 -11.5t-26 -27.5t-11.5 -34t-2.5 -30q0 -52 23.5 -77.5t62.5 -25.5q28 0 45 11.5t25 27.5q9 17 11.5 34.5t2.5 29.5q0 48 -21.5 75.5t-62.5 27.5v0zM451 298q-45 0 -74 -33t-29 -93q0 -22 5 -43.5t17 -38.5t31.5 -27.5
t49.5 -10.5q28 0 47.5 10.5t31.5 27.5t17.5 38.5t5.5 43.5q0 54 -27 90t-75 36v0zM888 301q0 -114 -33.5 -219t-96.5 -198h-33q13 21 34.5 59.5t41.5 92.5q21 53 36 120t15 145q0 77 -15 144t-36 120q-20 54 -41.5 92.5t-34.5 60.5h33q63 -93 96.5 -199t33.5 -218v0z
M176 -116h-33q-64 93 -97 198t-33 219q0 112 33 218t97 199h33q-14 -22 -35.5 -60.5t-41.5 -92.5q-21 -53 -35.5 -120t-14.5 -144q0 -78 14.5 -145t35.5 -120q20 -54 41.5 -92.5t35.5 -59.5v0z" />
    <glyph glyph-name="uni247C" unicode="&#x247c;" 
d="M287 143h68q6 -46 28 -67.5t54 -21.5q40 0 63 25.5t34 62.5q11 36 14 77t4 71q-4 -8 -12 -22t-22 -27t-34.5 -22.5t-48.5 -9.5q-23 0 -50.5 8.5t-50.5 30.5t-38.5 58.5t-15.5 92.5q0 52 13.5 90.5t36.5 64.5q23 25 52.5 38t61.5 13q48 0 82 -25t55 -66t30.5 -93.5
t9.5 -107.5q0 -57 -11 -121t-36 -108q-17 -29 -36 -46.5t-38 -26.5t-35.5 -11.5t-27.5 -2.5q-51 0 -95.5 35t-54.5 111v0zM447 550q-39 0 -68.5 -34.5t-29.5 -112.5q0 -70 26 -104t67 -34q40 0 71 34t31 101q0 19 -4.5 45t-15.5 49t-29.5 39.5t-47.5 16.5v0zM888 301
q0 -114 -33.5 -219t-96.5 -198h-33q13 21 34.5 59.5t41.5 92.5q21 53 36 120t15 145q0 77 -15 144t-36 120q-20 54 -41.5 92.5t-34.5 60.5h33q63 -93 96.5 -199t33.5 -218v0zM176 -116h-33q-64 93 -97 198t-33 219q0 112 33 218t97 199h33q-14 -22 -35.5 -60.5t-41.5 -92.5
q-21 -53 -35.5 -120t-14.5 -144q0 -78 14.5 -145t35.5 -120q20 -54 41.5 -92.5t35.5 -59.5v0z" />
    <glyph glyph-name="uni247D" unicode="&#x247d;" 
d="M760 301q0 -51 -7 -103.5t-25 -94.5t-50 -68.5t-82 -26.5q-52 0 -84.5 27t-50.5 69q-18 43 -24 95t-6 102t6.5 102t24.5 95q18 42 50 69t84 27q51 0 83 -27.5t50 -69.5q18 -43 24.5 -95t6.5 -101v0zM696 301q0 43 -4.5 86t-15.5 77q-11 35 -30.5 56.5t-49.5 21.5
q-32 0 -51.5 -21.5t-30.5 -56.5q-11 -34 -14.5 -77t-3.5 -86q0 -20 1.5 -60t10.5 -80q9 -41 29.5 -71t58.5 -30q30 0 49.5 21t30.5 56q11 34 15.5 77t4.5 87v0zM309 23h-63v416h-89v47q14 2 29.5 5.5t29.5 12.5q14 10 25.5 27.5t19.5 47.5h48v-556zM888 301
q0 -114 -33.5 -219t-96.5 -198h-33q13 21 34.5 59.5t41.5 92.5q21 53 36 120t15 145q0 77 -15 144t-36 120q-20 54 -41.5 92.5t-34.5 60.5h33q63 -93 96.5 -199t33.5 -218v0zM176 -116h-33q-64 93 -97 198t-33 219q0 112 33 218t97 199h33q-14 -22 -35.5 -60.5t-41.5 -92.5
q-21 -53 -35.5 -120t-14.5 -144q0 -78 14.5 -145t35.5 -120q20 -54 41.5 -92.5t35.5 -59.5v0z" />
    <glyph glyph-name="uni247E" unicode="&#x247e;" 
d="M669 23h-64v416h-87v47q13 2 28 5.5t29 12.5q14 10 26 27.5t20 47.5h48v-556zM309 23h-63v416h-89v47q14 2 29.5 5.5t29.5 12.5q14 10 25.5 27.5t19.5 47.5h48v-556zM888 301q0 -114 -33.5 -219t-96.5 -198h-33q13 21 34.5 59.5t41.5 92.5q21 53 36 120t15 145
q0 77 -15 144t-36 120q-20 54 -41.5 92.5t-34.5 60.5h33q63 -93 96.5 -199t33.5 -218v0zM176 -116h-33q-64 93 -97 198t-33 219q0 112 33 218t97 199h33q-14 -22 -35.5 -60.5t-41.5 -92.5q-21 -53 -35.5 -120t-14.5 -144q0 -78 14.5 -145t35.5 -120q20 -54 41.5 -92.5
t35.5 -59.5v0z" />
    <glyph glyph-name="uni247F" unicode="&#x247f;" 
d="M759 23h-330q3 43 12.5 74t24.5 55t35.5 45.5t46.5 45.5q24 22 50.5 39t47.5 36q22 19 36 44.5t14 67.5q0 63 -27 87.5t-58 24.5q-36 0 -56 -18t-30 -41q-11 -24 -14 -48.5t-3 -37.5h-64q5 89 44 143t121 54q21 0 47 -7t49 -25t38.5 -50t15.5 -83q0 -31 -6 -55.5
t-20 -46.5t-37 -43.5t-57 -46.5q-42 -31 -66 -54t-37 -42q-13 -18 -18.5 -33.5t-9.5 -31.5h251v-53zM309 23h-63v416h-89v47q14 2 29.5 5.5t29.5 12.5q14 10 25.5 27.5t19.5 47.5h48v-556zM888 301q0 -114 -33.5 -219t-96.5 -198h-33q13 21 34.5 59.5t41.5 92.5
q21 53 36 120t15 145q0 77 -15 144t-36 120q-20 54 -41.5 92.5t-34.5 60.5h33q63 -93 96.5 -199t33.5 -218v0zM176 -116h-33q-64 93 -97 198t-33 219q0 112 33 218t97 199h33q-14 -22 -35.5 -60.5t-41.5 -92.5q-21 -53 -35.5 -120t-14.5 -144q0 -78 14.5 -145t35.5 -120
q20 -54 41.5 -92.5t35.5 -59.5v0z" />
    <glyph glyph-name="uni2480" unicode="&#x2480;" 
d="M754 186q0 -83 -46.5 -130.5t-119.5 -47.5q-32 0 -60.5 9t-50.5 30q-22 22 -36 58t-16 90h62q0 -17 3 -40t13 -44t30 -36t56 -15q14 0 32 5t34 19q15 13 26 37.5t11 62.5q0 54 -26 83t-75 29h-36v46h28q44 0 70 27t26 73q0 28 -8.5 47t-20.5 31q-12 11 -26.5 16.5
t-27.5 5.5q-31 0 -49 -15t-27 -35q-10 -20 -13 -39.5t-3 -29.5h-62q1 18 5 43t19 54q25 48 63.5 61t67.5 13q64 0 105 -40.5t41 -103.5q0 -36 -9.5 -59.5t-22.5 -37.5q-13 -15 -26 -21.5t-20 -8.5q9 -3 24 -9.5t29 -21.5t25 -40.5t11 -65.5v0zM309 23h-63v416h-89v47
q14 2 29.5 5.5t29.5 12.5q14 10 25.5 27.5t19.5 47.5h48v-556zM888 301q0 -114 -33.5 -219t-96.5 -198h-33q13 21 34.5 59.5t41.5 92.5q21 53 36 120t15 145q0 77 -15 144t-36 120q-20 54 -41.5 92.5t-34.5 60.5h33q63 -93 96.5 -199t33.5 -218v0zM176 -116h-33
q-64 93 -97 198t-33 219q0 112 33 218t97 199h33q-14 -22 -35.5 -60.5t-41.5 -92.5q-21 -53 -35.5 -120t-14.5 -144q0 -78 14.5 -145t35.5 -120q20 -54 41.5 -92.5t35.5 -59.5v0z" />
    <glyph glyph-name="uni2481" unicode="&#x2481;" 
d="M750 157h-59v-134h-63v134h-208v54l213 368h58v-368h59v-54zM628 211v255l-148 -255h148zM309 23h-63v416h-89v47q14 2 29.5 5.5t29.5 12.5q14 10 25.5 27.5t19.5 47.5h48v-556zM888 301q0 -114 -33.5 -219t-96.5 -198h-33q13 21 34.5 59.5t41.5 92.5q21 53 36 120
t15 145q0 77 -15 144t-36 120q-20 54 -41.5 92.5t-34.5 60.5h33q63 -93 96.5 -199t33.5 -218v0zM176 -116h-33q-64 93 -97 198t-33 219q0 112 33 218t97 199h33q-14 -22 -35.5 -60.5t-41.5 -92.5q-21 -53 -35.5 -120t-14.5 -144q0 -78 14.5 -145t35.5 -120
q20 -54 41.5 -92.5t35.5 -59.5v0z" />
    <glyph glyph-name="uni2482" unicode="&#x2482;" 
d="M761 203q0 -90 -49 -142.5t-125 -52.5q-49 0 -78.5 19t-45.5 45q-17 26 -23.5 52.5t-9.5 41.5h66q3 -17 7.5 -36t14.5 -34q10 -16 26 -26t42 -10q30 0 51 14.5t34 36.5q13 23 19 48.5t6 48.5t-6 45.5t-18 40.5t-29.5 29.5t-41.5 11.5q-3 0 -13.5 -1t-23.5 -6t-27 -16
t-24 -31h-63l37 298h250v-53h-191l-23 -174l9 9t16 12q10 5 24.5 9.5t35.5 4.5q70 0 111.5 -51.5t41.5 -132.5v0zM309 23h-63v416h-89v47q14 2 29.5 5.5t29.5 12.5q14 10 25.5 27.5t19.5 47.5h48v-556zM888 301q0 -114 -33.5 -219t-96.5 -198h-33q13 21 34.5 59.5t41.5 92.5
q21 53 36 120t15 145q0 77 -15 144t-36 120q-20 54 -41.5 92.5t-34.5 60.5h33q63 -93 96.5 -199t33.5 -218v0zM176 -116h-33q-64 93 -97 198t-33 219q0 112 33 218t97 199h33q-14 -22 -35.5 -60.5t-41.5 -92.5q-21 -53 -35.5 -120t-14.5 -144q0 -78 14.5 -145t35.5 -120
q20 -54 41.5 -92.5t35.5 -59.5v0z" />
    <glyph glyph-name="uni249C" unicode="&#x249c;" 
d="M27 300q0 75 13 137t33 112q19 51 43 89.5t45 66.5h38q-65 -93 -89 -197.5t-24 -207.5q0 -106 25 -208.5t88 -196.5h-38q-21 26 -44.5 64.5t-43.5 88.5q-20 51 -33 113.5t-13 138.5v0zM873 300q0 -76 -13.5 -138.5t-33.5 -113.5q-20 -50 -43.5 -88.5t-43.5 -64.5h-38
q63 94 88.5 196.5t25.5 208.5q0 103 -25 207.5t-89 197.5h38q21 -28 44.5 -66.5t43.5 -89.5q19 -50 32.5 -112t13.5 -137v0zM639 141q0 -30 7 -49t8 -20h-73q-8 15 -11 30t-3 31q-21 -27 -57.5 -50.5t-85.5 -26.5q-58 -3 -103 24.5t-51 87.5q-7 60 20.5 98.5t71.5 53.5
q18 6 36.5 9t37.5 5t37 4t36 6q20 3 39 14t19 40q0 27 -22 54.5t-79 27.5q-56 0 -80.5 -25.5t-20.5 -58.5h-72q-3 36 10 63.5t37 46.5q24 18 57 28t69 10q34 0 65 -10t55 -29q24 -18 38.5 -45t14.5 -60v-259zM567 311q-4 -6 -15.5 -12t-24.5 -9t-29.5 -6t-33.5 -5
q-16 -2 -31 -4.5t-23 -5.5q-34 -12 -52.5 -34.5t-13.5 -55.5q4 -35 31 -48.5t57 -10.5q33 3 58 15t42 29t26 36.5t9 36.5v74z" />
    <glyph glyph-name="uni249D" unicode="&#x249d;" 
d="M27 300q0 75 13 137t33 112q19 51 43 89.5t45 66.5h38q-65 -93 -89 -197.5t-24 -207.5q0 -106 25 -208.5t88 -196.5h-38q-21 26 -44.5 64.5t-43.5 88.5q-20 51 -33 113.5t-13 138.5v0zM873 300q0 -76 -13.5 -138.5t-33.5 -113.5q-20 -50 -43.5 -88.5t-43.5 -64.5h-38
q63 94 88.5 196.5t25.5 208.5q0 103 -25 207.5t-89 197.5h38q21 -28 44.5 -66.5t43.5 -89.5q19 -50 32.5 -112t13.5 -137v0zM341 33v-47h-72v624h72v-214q24 29 57.5 45.5t73.5 16.5q41 0 75.5 -18t59.5 -50q24 -33 38 -77.5t14 -98.5t-14 -99t-38 -77q-25 -33 -59.5 -50.5
t-75.5 -17.5q-40 0 -73.5 16.5t-57.5 46.5v0zM461 387q-57 0 -88.5 -48.5t-31.5 -124.5t31.5 -124t88.5 -48q56 0 88 48t32 124t-32 124.5t-88 48.5v0z" />
    <glyph glyph-name="uni249E" unicode="&#x249e;" 
d="M27 300q0 75 13 137t33 112q19 51 43 89.5t45 66.5h38q-65 -93 -89 -197.5t-24 -207.5q0 -106 25 -208.5t88 -196.5h-38q-21 26 -44.5 64.5t-43.5 88.5q-20 51 -33 113.5t-13 138.5v0zM873 300q0 -76 -13.5 -138.5t-33.5 -113.5q-20 -50 -43.5 -88.5t-43.5 -64.5h-38
q63 94 88.5 196.5t25.5 208.5q0 103 -25 207.5t-89 197.5h38q21 -28 44.5 -66.5t43.5 -89.5q19 -50 32.5 -112t13.5 -137v0zM644 208q-15 -61 -60 -106.5t-124 -45.5q-46 0 -82.5 19t-62.5 52q-25 33 -38.5 77.5t-13.5 95.5q0 50 13.5 94.5t38.5 77.5q26 33 62.5 52.5
t82.5 19.5q40 0 72 -14t55 -36q23 -21 37.5 -48.5t19.5 -54.5h-79q-4 13 -11.5 28t-19.5 28q-13 12 -31 20.5t-43 8.5q-28 0 -50.5 -14t-37.5 -38q-16 -24 -24.5 -56t-8.5 -68q0 -37 8.5 -69t24.5 -56q15 -24 37.5 -37.5t50.5 -13.5q43 0 69.5 25t34.5 59h80z" />
    <glyph glyph-name="uni249F" unicode="&#x249f;" 
d="M27 300q0 75 13 137t33 112q19 51 43 89.5t45 66.5h38q-65 -93 -89 -197.5t-24 -207.5q0 -106 25 -208.5t88 -196.5h-38q-21 26 -44.5 64.5t-43.5 88.5q-20 51 -33 113.5t-13 138.5v0zM873 300q0 -76 -13.5 -138.5t-33.5 -113.5q-20 -50 -43.5 -88.5t-43.5 -64.5h-38
q63 94 88.5 196.5t25.5 208.5q0 103 -25 207.5t-89 197.5h38q21 -28 44.5 -66.5t43.5 -89.5q19 -50 32.5 -112t13.5 -137v0zM557 37q-24 -30 -57.5 -47t-72.5 -17q-42 0 -77 17.5t-59 50.5q-25 32 -38.5 77t-13.5 99t13.5 98.5t38.5 77.5q24 32 59 50t77 18q39 0 72.5 -16.5
t57.5 -45.5v214h72v-624h-72v48zM437 390q-57 0 -88.5 -48.5t-31.5 -124.5t31.5 -124t88.5 -48t88.5 48t31.5 124t-31.5 124.5t-88.5 48.5v0z" />
    <glyph glyph-name="uni24A0" unicode="&#x24a0;" 
d="M27 300q0 75 13 137t33 112q19 51 43 89.5t45 66.5h38q-65 -93 -89 -197.5t-24 -207.5q0 -106 25 -208.5t88 -196.5h-38q-21 26 -44.5 64.5t-43.5 88.5q-20 51 -33 113.5t-13 138.5v0zM873 300q0 -76 -13.5 -138.5t-33.5 -113.5q-20 -50 -43.5 -88.5t-43.5 -64.5h-38
q63 94 88.5 196.5t25.5 208.5q0 103 -25 207.5t-89 197.5h38q21 -28 44.5 -66.5t43.5 -89.5q19 -50 32.5 -112t13.5 -137v0zM449 543q40 0 76 -17t64 -50q27 -34 42.5 -84.5t14.5 -118.5h-317q1 -31 11 -58.5t26 -47.5q17 -21 38 -32.5t45 -11.5q48 0 71.5 22.5t30.5 45.5
h81q-7 -24 -20.5 -48.5t-35.5 -43.5q-21 -20 -52 -32t-73 -12q-44 0 -80.5 19t-62.5 52q-27 33 -41.5 77.5t-14.5 95.5q0 50 13.5 94.5t39.5 77.5t62.5 52.5t81.5 19.5v0zM331 337h236q-3 55 -34 96.5t-84 41.5q-50 0 -81.5 -38t-36.5 -100v0z" />
    <glyph glyph-name="uni24A1" unicode="&#x24a1;" 
d="M27 300q0 75 13 137t33 112q19 51 43 89.5t45 66.5h38q-65 -93 -89 -197.5t-24 -207.5q0 -106 25 -208.5t88 -196.5h-38q-21 26 -44.5 64.5t-43.5 88.5q-20 51 -33 113.5t-13 138.5v0zM873 300q0 -76 -13.5 -138.5t-33.5 -113.5q-20 -50 -43.5 -88.5t-43.5 -64.5h-38
q63 94 88.5 196.5t25.5 208.5q0 103 -25 207.5t-89 197.5h38q21 -28 44.5 -66.5t43.5 -89.5q19 -50 32.5 -112t13.5 -137v0zM410 380h-51v64h51v50q0 34 3 50.5t15 32.5q9 14 25.5 24.5t37.5 10.5h48v-64h-10.5t-11.5 -1t-11.5 -3.5t-9.5 -6.5q-11 -11 -12.5 -23t-1.5 -30
v-40h57v-64h-57v-392h-72v392z" />
    <glyph glyph-name="uni24A2" unicode="&#x24a2;" 
d="M27 300q0 75 13 137t33 112q19 51 43 89.5t45 66.5h38q-65 -93 -89 -197.5t-24 -207.5q0 -106 25 -208.5t88 -196.5h-38q-21 26 -44.5 64.5t-43.5 88.5q-20 51 -33 113.5t-13 138.5v0zM873 300q0 -76 -13.5 -138.5t-33.5 -113.5q-20 -50 -43.5 -88.5t-43.5 -64.5h-38
q63 94 88.5 196.5t25.5 208.5q0 103 -25 207.5t-89 197.5h38q21 -28 44.5 -66.5t43.5 -89.5q19 -50 32.5 -112t13.5 -137v0zM567 558v46h72v-430q0 -53 -16.5 -88.5t-42.5 -57.5q-27 -21 -60.5 -30.5t-67.5 -9.5q-43 0 -76.5 12t-56.5 33q-24 20 -37.5 46.5t-14.5 55.5h72
q2 -31 29 -56.5t85 -25.5t86 31.5t28 88.5v62q-26 -30 -59.5 -47.5t-71.5 -17.5q-39 0 -73.5 17.5t-59.5 48.5q-26 30 -40.5 71t-14.5 88q0 46 13.5 87t38.5 72q25 30 59.5 48t76.5 18q39 0 72.5 -16.5t58.5 -45.5v0zM446 549q-54 0 -87 -42.5t-33 -111.5t33 -111.5
t87 -42.5t87.5 42.5t33.5 111.5t-33.5 111.5t-87.5 42.5v0z" />
    <glyph glyph-name="uni24A3" unicode="&#x24a3;" 
d="M27 300q0 75 13 137t33 112q19 51 43 89.5t45 66.5h38q-65 -93 -89 -197.5t-24 -207.5q0 -106 25 -208.5t88 -196.5h-38q-21 26 -44.5 64.5t-43.5 88.5q-20 51 -33 113.5t-13 138.5v0zM873 300q0 -76 -13.5 -138.5t-33.5 -113.5q-20 -50 -43.5 -88.5t-43.5 -64.5h-38
q63 94 88.5 196.5t25.5 208.5q0 103 -25 207.5t-89 197.5h38q21 -28 44.5 -66.5t43.5 -89.5q19 -50 32.5 -112t13.5 -137v0zM283 611h72v-219q23 26 61 48.5t93 16.5q31 -4 53.5 -20t37.5 -38q14 -22 21 -47t7 -47v-318h-72v284q0 58 -22.5 84.5t-67.5 26.5q-48 0 -79.5 -37
t-31.5 -88v-270h-72v624z" />
    <glyph glyph-name="uni24A4" unicode="&#x24a4;" 
d="M27 300q0 75 13 137t33 112q19 51 43 89.5t45 66.5h38q-65 -93 -89 -197.5t-24 -207.5q0 -106 25 -208.5t88 -196.5h-38q-21 26 -44.5 64.5t-43.5 88.5q-20 51 -33 113.5t-13 138.5v0zM873 300q0 -76 -13.5 -138.5t-33.5 -113.5q-20 -50 -43.5 -88.5t-43.5 -64.5h-38
q63 94 88.5 196.5t25.5 208.5q0 103 -25 207.5t-89 197.5h38q21 -28 44.5 -66.5t43.5 -89.5q19 -50 32.5 -112t13.5 -137v0zM486 -12h-72v456h72v-456zM486 532h-72v80h72v-80z" />
    <glyph glyph-name="uni24A5" unicode="&#x24a5;" 
d="M27 300q0 75 13 137t33 112q19 51 43 89.5t45 66.5h38q-65 -93 -89 -197.5t-24 -207.5q0 -106 25 -208.5t88 -196.5h-38q-21 26 -44.5 64.5t-43.5 88.5q-20 51 -33 113.5t-13 138.5v0zM873 300q0 -76 -13.5 -138.5t-33.5 -113.5q-20 -50 -43.5 -88.5t-43.5 -64.5h-38
q63 94 88.5 196.5t25.5 208.5q0 103 -25 207.5t-89 197.5h38q21 -28 44.5 -66.5t43.5 -89.5q19 -50 32.5 -112t13.5 -137v0zM499 609h-72v80h72v-80zM499 31q0 -35 -4 -55t-13 -32q-10 -14 -29 -22.5t-43 -8.5h-41v64q4 0 10 -0.5t12 0.5t12 3.5t11 7.5t7.5 10.5t3.5 11.5
q1 7 1.5 14.5t0.5 16.5v480h72v-490z" />
    <glyph glyph-name="uni24A6" unicode="&#x24a6;" 
d="M27 300q0 75 13 137t33 112q19 51 43 89.5t45 66.5h38q-65 -93 -89 -197.5t-24 -207.5q0 -106 25 -208.5t88 -196.5h-38q-21 26 -44.5 64.5t-43.5 88.5q-20 51 -33 113.5t-13 138.5v0zM873 300q0 -76 -13.5 -138.5t-33.5 -113.5q-20 -50 -43.5 -88.5t-43.5 -64.5h-38
q63 94 88.5 196.5t25.5 208.5q0 103 -25 207.5t-89 197.5h38q21 -28 44.5 -66.5t43.5 -89.5q19 -50 32.5 -112t13.5 -137v0zM341 173v-185h-72v624h72v-352l182 184h86l-168 -170l200 -286h-81l-168 235z" />
    <glyph glyph-name="uni24A7" unicode="&#x24a7;" 
d="M27 300q0 75 13 137t33 112q19 51 43 89.5t45 66.5h38q-65 -93 -89 -197.5t-24 -207.5q0 -106 25 -208.5t88 -196.5h-38q-21 26 -44.5 64.5t-43.5 88.5q-20 51 -33 113.5t-13 138.5v0zM873 300q0 -76 -13.5 -138.5t-33.5 -113.5q-20 -50 -43.5 -88.5t-43.5 -64.5h-38
q63 94 88.5 196.5t25.5 208.5q0 103 -25 207.5t-89 197.5h38q21 -28 44.5 -66.5t43.5 -89.5q19 -50 32.5 -112t13.5 -137v0zM414 612h72v-624h-72v624z" />
    <glyph glyph-name="uni24A8" unicode="&#x24a8;" 
d="M27 300q0 75 13 137t33 112q19 51 43 89.5t45 66.5h38q-65 -93 -89 -197.5t-24 -207.5q0 -106 25 -208.5t88 -196.5h-38q-21 26 -44.5 64.5t-43.5 88.5q-20 51 -33 113.5t-13 138.5v0zM873 300q0 -76 -13.5 -138.5t-33.5 -113.5q-20 -50 -43.5 -88.5t-43.5 -64.5h-38
q63 94 88.5 196.5t25.5 208.5q0 103 -25 207.5t-89 197.5h38q21 -28 44.5 -66.5t43.5 -89.5q19 -50 32.5 -112t13.5 -137v0zM486 63h-72v297q0 52 -13 78.5t-58 23.5q-39 -3 -63 -33.5t-24 -84.5v-281h-72v456h72v-54q19 26 49 50t82 19q28 -3 51 -21.5t37 -52.5
q6 9 17.5 23t28.5 26q17 13 40.5 20.5t55.5 4.5q28 -4 47 -18t31 -35q11 -21 16 -47t5 -53v-318h-72v297q0 52 -12.5 78.5t-58.5 23.5q-39 -3 -63 -33.5t-24 -84.5v-281z" />
    <glyph glyph-name="uni24A9" unicode="&#x24a9;" 
d="M27 300q0 75 13 137t33 112q19 51 43 89.5t45 66.5h38q-65 -93 -89 -197.5t-24 -207.5q0 -106 25 -208.5t88 -196.5h-38q-21 26 -44.5 64.5t-43.5 88.5q-20 51 -33 113.5t-13 138.5v0zM873 300q0 -76 -13.5 -138.5t-33.5 -113.5q-20 -50 -43.5 -88.5t-43.5 -64.5h-38
q63 94 88.5 196.5t25.5 208.5q0 103 -25 207.5t-89 197.5h38q21 -28 44.5 -66.5t43.5 -89.5q19 -50 32.5 -112t13.5 -137v0zM276 520h72v-51q24 26 61.5 48.5t93.5 16.5q31 -4 53.5 -20t37.5 -38q14 -22 21 -47t7 -47v-318h-72v284q0 58 -22.5 84.5t-67.5 26.5
q-48 0 -80 -37t-32 -88v-270h-72v456z" />
    <glyph glyph-name="uni24AA" unicode="&#x24aa;" 
d="M27 300q0 75 13 137t33 112q19 51 43 89.5t45 66.5h38q-65 -93 -89 -197.5t-24 -207.5q0 -106 25 -208.5t88 -196.5h-38q-21 26 -44.5 64.5t-43.5 88.5q-20 51 -33 113.5t-13 138.5v0zM873 300q0 -76 -13.5 -138.5t-33.5 -113.5q-20 -50 -43.5 -88.5t-43.5 -64.5h-38
q63 94 88.5 196.5t25.5 208.5q0 103 -25 207.5t-89 197.5h38q21 -28 44.5 -66.5t43.5 -89.5q19 -50 32.5 -112t13.5 -137v0zM450 543q45 0 81.5 -19.5t62.5 -52.5q25 -33 39 -77.5t14 -94.5q0 -51 -14 -95.5t-39 -77.5q-26 -33 -62.5 -52t-81.5 -19q-46 0 -82.5 19t-62.5 52
q-25 33 -38.5 77.5t-13.5 95.5q0 50 13.5 94.5t38.5 77.5q26 33 62.5 52.5t82.5 19.5v0zM450 475q-28 0 -50.5 -14t-38.5 -38q-15 -24 -23.5 -56t-8.5 -68q0 -37 8.5 -69t23.5 -56q16 -24 38.5 -37.5t50.5 -13.5q27 0 49.5 13.5t38.5 37.5t24.5 56t8.5 69q0 36 -8.5 68
t-24.5 56t-38.5 38t-49.5 14v0z" />
    <glyph glyph-name="uni24AB" unicode="&#x24ab;" 
d="M27 300q0 75 13 137t33 112q19 51 43 89.5t45 66.5h38q-65 -93 -89 -197.5t-24 -207.5q0 -106 25 -208.5t88 -196.5h-38q-21 26 -44.5 64.5t-43.5 88.5q-20 51 -33 113.5t-13 138.5v0zM873 300q0 -76 -13.5 -138.5t-33.5 -113.5q-20 -50 -43.5 -88.5t-43.5 -64.5h-38
q63 94 88.5 196.5t25.5 208.5q0 103 -25 207.5t-89 197.5h38q21 -28 44.5 -66.5t43.5 -89.5q19 -50 32.5 -112t13.5 -137v0zM350 193v-198h-72v608h72v-46q24 29 57.5 45.5t73.5 16.5q41 0 75.5 -18.5t59.5 -50.5q24 -32 38 -77t14 -98q0 -54 -14 -99t-38 -77
q-25 -33 -59.5 -50.5t-75.5 -17.5q-40 0 -73.5 16t-57.5 46v0zM470 548q-57 0 -88.5 -48.5t-31.5 -124.5q0 -77 31.5 -125t88.5 -48q56 0 88 48t32 125q0 76 -32 124.5t-88 48.5v0z" />
    <glyph glyph-name="uni24AC" unicode="&#x24ac;" 
d="M27 300q0 75 13 137t33 112q19 51 43 89.5t45 66.5h38q-65 -93 -89 -197.5t-24 -207.5q0 -106 25 -208.5t88 -196.5h-38q-21 26 -44.5 64.5t-43.5 88.5q-20 51 -33 113.5t-13 138.5v0zM873 300q0 -76 -13.5 -138.5t-33.5 -113.5q-20 -50 -43.5 -88.5t-43.5 -64.5h-38
q63 94 88.5 196.5t25.5 208.5q0 103 -25 207.5t-89 197.5h38q21 -28 44.5 -66.5t43.5 -89.5q19 -50 32.5 -112t13.5 -137v0zM548 193q-24 -30 -57.5 -46t-72.5 -16q-42 0 -77 17.5t-59 50.5q-25 32 -38.5 77t-13.5 99q0 53 13.5 98t38.5 77q24 32 59 50.5t77 18.5
q39 0 72.5 -16.5t57.5 -45.5v46h72v-608h-72v198zM428 548q-57 0 -88.5 -48.5t-31.5 -124.5q0 -77 31.5 -125t88.5 -48t88.5 48t31.5 125q0 76 -31.5 124.5t-88.5 48.5v0z" />
    <glyph glyph-name="uni24AD" unicode="&#x24ad;" 
d="M27 300q0 75 13 137t33 112q19 51 43 89.5t45 66.5h38q-65 -93 -89 -197.5t-24 -207.5q0 -106 25 -208.5t88 -196.5h-38q-21 26 -44.5 64.5t-43.5 88.5q-20 51 -33 113.5t-13 138.5v0zM873 300q0 -76 -13.5 -138.5t-33.5 -113.5q-20 -50 -43.5 -88.5t-43.5 -64.5h-38
q63 94 88.5 196.5t25.5 208.5q0 103 -25 207.5t-89 197.5h38q21 -28 44.5 -66.5t43.5 -89.5q19 -50 32.5 -112t13.5 -137v0zM365 528h72v-70q15 28 31.5 45t43.5 30q18 8 37 9.5t21 1.5v-80q-19 0 -34 -2.5t-29 -9.5q-34 -21 -52 -56t-18 -95v-229h-72v456z" />
    <glyph glyph-name="uni24AE" unicode="&#x24ae;" 
d="M27 300q0 75 13 137t33 112q19 51 43 89.5t45 66.5h38q-65 -93 -89 -197.5t-24 -207.5q0 -106 25 -208.5t88 -196.5h-38q-21 26 -44.5 64.5t-43.5 88.5q-20 51 -33 113.5t-13 138.5v0zM873 300q0 -76 -13.5 -138.5t-33.5 -113.5q-20 -50 -43.5 -88.5t-43.5 -64.5h-38
q63 94 88.5 196.5t25.5 208.5q0 103 -25 207.5t-89 197.5h38q21 -28 44.5 -66.5t43.5 -89.5q19 -50 32.5 -112t13.5 -137v0zM348 212q4 -39 30 -61.5t77 -22.5q40 0 62.5 16t27.5 45q3 18 -7 35t-32 28q-17 7 -35.5 13t-36.5 11t-34.5 9.5t-28.5 10.5q-36 15 -58.5 45
t-19.5 75q2 48 42.5 88t116.5 40q40 0 69.5 -13.5t49.5 -34.5q19 -21 28.5 -45.5t9.5 -46.5h-72q0 9 -3.5 20.5t-13.5 22.5t-27.5 18.5t-44.5 7.5q-47 0 -65 -20.5t-18 -39.5q0 -29 15 -40t39 -20q12 -5 29 -10t35 -10q18 -6 36.5 -12.5t34.5 -13.5q27 -15 48.5 -43.5
t19.5 -70.5q-4 -60 -51.5 -99t-114.5 -38q-53 0 -87 17t-55 41q-20 24 -29 50.5t-9 47.5h72z" />
    <glyph glyph-name="uni24AF" unicode="&#x24af;" 
d="M27 300q0 75 13 137t33 112q19 51 43 89.5t45 66.5h38q-65 -93 -89 -197.5t-24 -207.5q0 -106 25 -208.5t88 -196.5h-38q-21 26 -44.5 64.5t-43.5 88.5q-20 51 -33 113.5t-13 138.5v0zM873 300q0 -76 -13.5 -138.5t-33.5 -113.5q-20 -50 -43.5 -88.5t-43.5 -64.5h-38
q63 94 88.5 196.5t25.5 208.5q0 103 -25 207.5t-89 197.5h38q21 -28 44.5 -66.5t43.5 -89.5q19 -50 32.5 -112t13.5 -137v0zM482 131q0 -18 1.5 -29t12.5 -23q9 -9 22 -10.5t22 -1.5v-64h-48q-21 0 -37.5 10.5t-26.5 25.5q-11 15 -14.5 31t-3.5 51v274h-50v64h50v136h72
v-136h58v-64h-58v-264z" />
    <glyph glyph-name="uni24B0" unicode="&#x24b0;" 
d="M27 300q0 75 13 137t33 112q19 51 43 89.5t45 66.5h38q-65 -93 -89 -197.5t-24 -207.5q0 -106 25 -208.5t88 -196.5h-38q-21 26 -44.5 64.5t-43.5 88.5q-20 51 -33 113.5t-13 138.5v0zM873 300q0 -76 -13.5 -138.5t-33.5 -113.5q-20 -50 -43.5 -88.5t-43.5 -64.5h-38
q63 94 88.5 196.5t25.5 208.5q0 103 -25 207.5t-89 197.5h38q21 -28 44.5 -66.5t43.5 -89.5q19 -50 32.5 -112t13.5 -137v0zM624 79h-72v57q-18 -28 -52.5 -50.5t-80.5 -22.5q-26 0 -51 9.5t-45 29.5q-21 19 -33 49.5t-12 71.5v312h72v-286q0 -60 25.5 -87t70.5 -24t75.5 35
t30.5 93v269h72v-456z" />
    <glyph glyph-name="uni24B1" unicode="&#x24b1;" 
d="M27 300q0 75 13 137t33 112q19 51 43 89.5t45 66.5h38q-65 -93 -89 -197.5t-24 -207.5q0 -106 25 -208.5t88 -196.5h-38q-21 26 -44.5 64.5t-43.5 88.5q-20 51 -33 113.5t-13 138.5v0zM873 300q0 -76 -13.5 -138.5t-33.5 -113.5q-20 -50 -43.5 -88.5t-43.5 -64.5h-38
q63 94 88.5 196.5t25.5 208.5q0 103 -25 207.5t-89 197.5h38q21 -28 44.5 -66.5t43.5 -89.5q19 -50 32.5 -112t13.5 -137v0zM451 158l119 369h75l-151 -456h-86l-151 456h75z" />
    <glyph glyph-name="uni24B2" unicode="&#x24b2;" 
d="M27 300q0 75 13 137t33 112q19 51 43 89.5t45 66.5h38q-65 -93 -89 -197.5t-24 -207.5q0 -106 25 -208.5t88 -196.5h-38q-21 26 -44.5 64.5t-43.5 88.5q-20 51 -33 113.5t-13 138.5v0zM873 300q0 -76 -13.5 -138.5t-33.5 -113.5q-20 -50 -43.5 -88.5t-43.5 -64.5h-38
q63 94 88.5 196.5t25.5 208.5q0 103 -25 207.5t-89 197.5h38q21 -28 44.5 -66.5t43.5 -89.5q19 -50 32.5 -112t13.5 -137v0zM452 401l-79 -332h-80l-115 456h72l83 -350l79 350h79l80 -350l82 350h72l-115 -456h-79z" />
    <glyph glyph-name="uni24B3" unicode="&#x24b3;" 
d="M27 300q0 75 13 137t33 112q19 51 43 89.5t45 66.5h38q-65 -93 -89 -197.5t-24 -207.5q0 -106 25 -208.5t88 -196.5h-38q-21 26 -44.5 64.5t-43.5 88.5q-20 51 -33 113.5t-13 138.5v0zM873 300q0 -76 -13.5 -138.5t-33.5 -113.5q-20 -50 -43.5 -88.5t-43.5 -64.5h-38
q63 94 88.5 196.5t25.5 208.5q0 103 -25 207.5t-89 197.5h38q21 -28 44.5 -66.5t43.5 -89.5q19 -50 32.5 -112t13.5 -137v0zM492 304l150 -234h-83l-108 169l-108 -169h-83l150 234l-143 222h83l101 -157l101 157h83z" />
    <glyph glyph-name="uni24B4" unicode="&#x24b4;" 
d="M27 300q0 75 13 137t33 112q19 51 43 89.5t45 66.5h38q-65 -93 -89 -197.5t-24 -207.5q0 -106 25 -208.5t88 -196.5h-38q-21 26 -44.5 64.5t-43.5 88.5q-20 51 -33 113.5t-13 138.5v0zM873 300q0 -76 -13.5 -138.5t-33.5 -113.5q-20 -50 -43.5 -88.5t-43.5 -64.5h-38
q63 94 88.5 196.5t25.5 208.5q0 103 -25 207.5t-89 197.5h38q21 -28 44.5 -66.5t43.5 -89.5q19 -50 32.5 -112t13.5 -137v0zM450 250l122 353h72l-185 -533q-8 -22 -21 -38t-28 -25q-10 -5 -18.5 -7.5t-16.5 -3.5t-16.5 -1h-16.5h-25v64h37q15 0 27 10t16 24l19 54l-159 456
h74z" />
    <glyph glyph-name="uni24B5" unicode="&#x24b5;" 
d="M27 300q0 75 13 137t33 112q19 51 43 89.5t45 66.5h38q-65 -93 -89 -197.5t-24 -207.5q0 -106 25 -208.5t88 -196.5h-38q-21 26 -44.5 64.5t-43.5 88.5q-20 51 -33 113.5t-13 138.5v0zM873 300q0 -76 -13.5 -138.5t-33.5 -113.5q-20 -50 -43.5 -88.5t-43.5 -64.5h-38
q63 94 88.5 196.5t25.5 208.5q0 103 -25 207.5t-89 197.5h38q21 -28 44.5 -66.5t43.5 -89.5q19 -50 32.5 -112t13.5 -137v0zM616 464l-247 -328h261v-64h-346v64l247 328h-225v64h310v-64z" />
    <glyph glyph-name="uni24D0" unicode="&#x24d0;" 
d="M450 726q87 0 163.5 -34t133.5 -91q57 -58 90.5 -135.5t33.5 -165.5q0 -89 -33.5 -166.5t-90.5 -135.5q-57 -57 -133.5 -90.5t-163.5 -33.5t-164 33.5t-134 90.5q-57 58 -90 135.5t-33 166.5q0 88 33 165.5t90 135.5q57 57 134 91t164 34v0zM450 688q-79 0 -148.5 -31
t-120.5 -83q-52 -53 -81.5 -123.5t-29.5 -150.5q0 -81 29.5 -151.5t81.5 -123.5q51 -52 120.5 -82.5t148.5 -30.5q78 0 147.5 30.5t120.5 82.5q52 53 82 123.5t30 151.5q0 80 -30 150.5t-82 123.5q-51 52 -120.5 83t-147.5 31v0zM620 165q0 -27 6.5 -44.5t7.5 -17.5h-72
q-8 12 -11 25.5t-3 28.5q-20 -24 -55.5 -45t-82.5 -24q-58 -3 -101.5 22t-49.5 78q-7 54 19.5 88t69.5 47q18 5 36 7.5t37 4.5q18 2 35.5 4t34.5 5q20 4 38.5 13.5t18.5 35.5q0 24 -22 49t-76 25t-78.5 -22.5t-19.5 -52.5h-71q-3 31 10 56t37 42q23 17 55 26t67 9
q33 0 63.5 -9.5t54.5 -25.5q23 -17 37.5 -41t14.5 -54v-230zM548 315q-4 -6 -15 -11t-23 -6q-13 -3 -29 -5.5t-33 -4.5q-16 -2 -30.5 -4t-22.5 -5q-33 -11 -51 -31t-13 -50q3 -31 29.5 -43t56.5 -10q32 3 56.5 14t40.5 26q17 15 25.5 32.5t8.5 32.5v65z" />
    <glyph glyph-name="uni24D1" unicode="&#x24d1;" 
d="M450 726q87 0 163.5 -34t133.5 -91q57 -58 90.5 -135.5t33.5 -165.5q0 -89 -33.5 -166.5t-90.5 -135.5q-57 -57 -133.5 -90.5t-163.5 -33.5t-164 33.5t-134 90.5q-57 58 -90 135.5t-33 166.5q0 88 33 165.5t90 135.5q57 57 134 91t164 34v0zM450 688q-79 0 -148.5 -31
t-120.5 -83q-52 -53 -81.5 -123.5t-29.5 -150.5q0 -81 29.5 -151.5t81.5 -123.5q51 -52 120.5 -82.5t148.5 -30.5q78 0 147.5 30.5t120.5 82.5q52 53 82 123.5t30 151.5q0 80 -30 150.5t-82 123.5q-51 52 -120.5 83t-147.5 31v0zM363 63v-42h-72v558h72v-192
q23 26 55.5 40.5t71.5 14.5q40 0 74 -16t58 -45q25 -29 38.5 -68.5t13.5 -87.5t-13.5 -88t-38.5 -69q-24 -29 -58 -44.5t-74 -15.5q-39 0 -71.5 14t-55.5 41v0zM479 379q-55 0 -85.5 -43.5t-30.5 -110.5q0 -69 30.5 -111.5t85.5 -42.5q56 0 87 42.5t31 111.5q0 67 -31 110.5
t-87 43.5v0z" />
    <glyph glyph-name="uni24D2" unicode="&#x24d2;" 
d="M450 726q87 0 163.5 -34t133.5 -91q57 -58 90.5 -135.5t33.5 -165.5q0 -89 -33.5 -166.5t-90.5 -135.5q-57 -57 -133.5 -90.5t-163.5 -33.5t-164 33.5t-134 90.5q-57 58 -90 135.5t-33 166.5q0 88 33 165.5t90 135.5q57 57 134 91t164 34v0zM450 688q-79 0 -148.5 -31
t-120.5 -83q-52 -53 -81.5 -123.5t-29.5 -150.5q0 -81 29.5 -151.5t81.5 -123.5q51 -52 120.5 -82.5t148.5 -30.5q78 0 147.5 30.5t120.5 82.5q52 53 82 123.5t30 151.5q0 80 -30 150.5t-82 123.5q-51 52 -120.5 83t-147.5 31v0zM637 218q-15 -55 -59 -96t-122 -41
q-45 0 -81 17t-61 47q-25 29 -38 69t-13 86q0 44 13 83.5t38 69.5q25 29 61 46.5t81 17.5q39 0 70.5 -12.5t54.5 -32.5q23 -19 37 -44t19 -49h-77q-6 24 -30 50.5t-74 26.5q-54 0 -86 -46.5t-32 -109.5q0 -66 32 -112t86 -46q42 0 68 23t35 53h78z" />
    <glyph glyph-name="uni24D3" unicode="&#x24d3;" 
d="M450 726q87 0 163.5 -34t133.5 -91q57 -58 90.5 -135.5t33.5 -165.5q0 -89 -33.5 -166.5t-90.5 -135.5q-57 -57 -133.5 -90.5t-163.5 -33.5t-164 33.5t-134 90.5q-57 58 -90 135.5t-33 166.5q0 88 33 165.5t90 135.5q57 57 134 91t164 34v0zM450 688q-79 0 -148.5 -31
t-120.5 -83q-52 -53 -81.5 -123.5t-29.5 -150.5q0 -81 29.5 -151.5t81.5 -123.5q51 -52 120.5 -82.5t148.5 -30.5q78 0 147.5 30.5t120.5 82.5q52 53 82 123.5t30 151.5q0 80 -30 150.5t-82 123.5q-51 52 -120.5 83t-147.5 31v0zM538 64q-24 -26 -56.5 -41t-71.5 -15
q-41 0 -75 16t-58 45q-25 28 -38 68.5t-13 88.5q0 47 13 87t38 69q24 28 58 44.5t75 16.5q39 0 71.5 -14.5t56.5 -40.5v191h71v-557h-71v42zM421 379q-57 0 -87.5 -43t-30.5 -110q0 -69 30.5 -111.5t87.5 -42.5q54 0 85.5 42.5t31.5 111.5q0 67 -31.5 110t-85.5 43v0z" />
    <glyph glyph-name="uni24D4" unicode="&#x24d4;" 
d="M450 726q87 0 163.5 -34t133.5 -91q57 -58 90.5 -135.5t33.5 -165.5q0 -89 -33.5 -166.5t-90.5 -135.5q-57 -57 -133.5 -90.5t-163.5 -33.5t-164 33.5t-134 90.5q-57 58 -90 135.5t-33 166.5q0 88 33 165.5t90 135.5q57 57 134 91t164 34v0zM450 688q-79 0 -148.5 -31
t-120.5 -83q-52 -53 -81.5 -123.5t-29.5 -150.5q0 -81 29.5 -151.5t81.5 -123.5q51 -52 120.5 -82.5t148.5 -30.5q78 0 147.5 30.5t120.5 82.5q52 53 82 123.5t30 151.5q0 80 -30 150.5t-82 123.5q-51 52 -120.5 83t-147.5 31v0zM451 517q39 0 74.5 -15t61.5 -45
q27 -30 42 -75.5t14 -105.5h-309q0 -28 10 -52.5t26 -42.5t37 -28.5t44 -10.5q45 0 68 20.5t31 39.5h79q-7 -22 -20 -43.5t-34 -38.5q-21 -18 -51 -28.5t-71 -10.5q-44 0 -79.5 17t-61.5 47q-26 29 -40 69t-14 86q0 44 13.5 83.5t38.5 68.5q25 30 61 47.5t80 17.5v0z
M336 333h230q-3 49 -33.5 86t-81.5 37q-48 0 -79.5 -34t-35.5 -89v0z" />
    <glyph glyph-name="uni24D5" unicode="&#x24d5;" 
d="M450 726q87 0 163.5 -34t133.5 -91q57 -58 90.5 -135.5t33.5 -165.5q0 -89 -33.5 -166.5t-90.5 -135.5q-57 -57 -133.5 -90.5t-163.5 -33.5t-164 33.5t-134 90.5q-57 58 -90 135.5t-33 166.5q0 88 33 165.5t90 135.5q57 57 134 91t164 34v0zM450 688q-79 0 -148.5 -31
t-120.5 -83q-52 -53 -81.5 -123.5t-29.5 -150.5q0 -81 29.5 -151.5t81.5 -123.5q51 -52 120.5 -82.5t148.5 -30.5q78 0 147.5 30.5t120.5 82.5q52 53 82 123.5t30 151.5q0 80 -30 150.5t-82 123.5q-51 52 -120.5 83t-147.5 31v0zM403 366h-48v58h48v45q0 30 3.5 44.5
t13.5 28.5q9 13 25 22.5t37 9.5h47v-57h-10.5t-11.5 -1t-11.5 -2.5t-9.5 -5.5q-10 -11 -11.5 -22t-1.5 -27v-35h56v-58h-56v-349h-70v349z" />
    <glyph glyph-name="uni24D6" unicode="&#x24d6;" 
d="M450 726q87 0 163.5 -34t133.5 -91q57 -58 90.5 -135.5t33.5 -165.5q0 -89 -33.5 -166.5t-90.5 -135.5q-57 -57 -133.5 -90.5t-163.5 -33.5t-164 33.5t-134 90.5q-57 58 -90 135.5t-33 166.5q0 88 33 165.5t90 135.5q57 57 134 91t164 34v0zM450 688q-79 0 -148.5 -31
t-120.5 -83q-52 -53 -81.5 -123.5t-29.5 -150.5q0 -81 29.5 -151.5t81.5 -123.5q51 -52 120.5 -82.5t148.5 -30.5q78 0 147.5 30.5t120.5 82.5q52 53 82 123.5t30 151.5q0 80 -30 150.5t-82 123.5q-51 52 -120.5 83t-147.5 31v0zM553 526v40h70v-383q0 -47 -16 -78.5
t-42 -51.5q-26 -19 -58.5 -27.5t-65.5 -8.5q-84 0 -131 40t-50 91h70q2 -27 28.5 -50t83.5 -23q56 0 83.5 28t27.5 79v56q-26 -27 -58.5 -42.5t-68.5 -15.5q-39 0 -72.5 15.5t-58.5 43.5q-25 27 -39.5 63t-14.5 77q0 42 13.5 78.5t38.5 63.5q24 27 58 43t75 16q36 0 69 -14
t58 -40v0zM435 517q-53 0 -85 -38t-32 -100q0 -60 32 -97.5t85 -37.5t85.5 37.5t32.5 97.5q0 62 -32.5 100t-85.5 38v0z" />
    <glyph glyph-name="uni24D7" unicode="&#x24d7;" 
d="M450 726q87 0 163.5 -34t133.5 -91q57 -58 90.5 -135.5t33.5 -165.5q0 -89 -33.5 -166.5t-90.5 -135.5q-57 -57 -133.5 -90.5t-163.5 -33.5t-164 33.5t-134 90.5q-57 58 -90 135.5t-33 166.5q0 88 33 165.5t90 135.5q57 57 134 91t164 34v0zM450 688q-79 0 -148.5 -31
t-120.5 -83q-52 -53 -81.5 -123.5t-29.5 -150.5q0 -81 29.5 -151.5t81.5 -123.5q51 -52 120.5 -82.5t148.5 -30.5q78 0 147.5 30.5t120.5 82.5q52 53 82 123.5t30 151.5q0 80 -30 150.5t-82 123.5q-51 52 -120.5 83t-147.5 31v0zM280 578h72v-195q22 23 59 43t91 15
q30 -4 52.5 -18t36.5 -34t21 -42.5t7 -42.5v-283h-72v255q0 50 -21.5 74t-65.5 24q-46 0 -77 -33t-31 -79v-241h-72v557z" />
    <glyph glyph-name="uni24D8" unicode="&#x24d8;" 
d="M450 726q87 0 163.5 -34t133.5 -91q57 -58 90.5 -135.5t33.5 -165.5q0 -89 -33.5 -166.5t-90.5 -135.5q-57 -57 -133.5 -90.5t-163.5 -33.5t-164 33.5t-134 90.5q-57 58 -90 135.5t-33 166.5q0 88 33 165.5t90 135.5q57 57 134 91t164 34v0zM450 688q-79 0 -148.5 -31
t-120.5 -83q-52 -53 -81.5 -123.5t-29.5 -150.5q0 -81 29.5 -151.5t81.5 -123.5q51 -52 120.5 -82.5t148.5 -30.5q78 0 147.5 30.5t120.5 82.5q52 53 82 123.5t30 151.5q0 80 -30 150.5t-82 123.5q-51 52 -120.5 83t-147.5 31v0zM485 21h-69v407h69v-407zM485 507h-69v71h69
v-71z" />
    <glyph glyph-name="uni24D9" unicode="&#x24d9;" 
d="M450 726q87 0 163.5 -34t133.5 -91q57 -58 90.5 -135.5t33.5 -165.5q0 -89 -33.5 -166.5t-90.5 -135.5q-57 -57 -133.5 -90.5t-163.5 -33.5t-164 33.5t-134 90.5q-57 58 -90 135.5t-33 166.5q0 88 33 165.5t90 135.5q57 57 134 91t164 34v0zM450 688q-79 0 -148.5 -31
t-120.5 -83q-52 -53 -81.5 -123.5t-29.5 -150.5q0 -81 29.5 -151.5t81.5 -123.5q51 -52 120.5 -82.5t148.5 -30.5q78 0 147.5 30.5t120.5 82.5q52 53 82 123.5t30 151.5q0 80 -30 150.5t-82 123.5q-51 52 -120.5 83t-147.5 31v0zM501 557h-72v72h72v-72zM501 74
q0 -30 -5 -48t-14 -29q-9 -12 -27 -20t-42 -8h-40v57q4 0 9.5 -0.5t11.5 0.5t12 3t12 7q4 4 6.5 9t3.5 11t1 12.5v15.5v395h72v-405z" />
    <glyph glyph-name="uni24DA" unicode="&#x24da;" 
d="M450 726q87 0 163.5 -34t133.5 -91q57 -58 90.5 -135.5t33.5 -165.5q0 -89 -33.5 -166.5t-90.5 -135.5q-57 -57 -133.5 -90.5t-163.5 -33.5t-164 33.5t-134 90.5q-57 58 -90 135.5t-33 166.5q0 88 33 165.5t90 135.5q57 57 134 91t164 34v0zM450 688q-79 0 -148.5 -31
t-120.5 -83q-52 -53 -81.5 -123.5t-29.5 -150.5q0 -81 29.5 -151.5t81.5 -123.5q51 -52 120.5 -82.5t148.5 -30.5q78 0 147.5 30.5t120.5 82.5q52 53 82 123.5t30 151.5q0 80 -30 150.5t-82 123.5q-51 52 -120.5 83t-147.5 31v0zM350 186v-165h-70v557h70v-314l177 164h84
l-165 -152l196 -255h-79l-165 211z" />
    <glyph glyph-name="uni24DB" unicode="&#x24db;" 
d="M450 726q87 0 163.5 -34t133.5 -91q57 -58 90.5 -135.5t33.5 -165.5q0 -89 -33.5 -166.5t-90.5 -135.5q-57 -57 -133.5 -90.5t-163.5 -33.5t-164 33.5t-134 90.5q-57 58 -90 135.5t-33 166.5q0 88 33 165.5t90 135.5q57 57 134 91t164 34v0zM450 688q-79 0 -148.5 -31
t-120.5 -83q-52 -53 -81.5 -123.5t-29.5 -150.5q0 -81 29.5 -151.5t81.5 -123.5q51 -52 120.5 -82.5t148.5 -30.5q78 0 147.5 30.5t120.5 82.5q52 53 82 123.5t30 151.5q0 80 -30 150.5t-82 123.5q-51 52 -120.5 83t-147.5 31v0zM415 579h69v-558h-69v558z" />
    <glyph glyph-name="uni24DC" unicode="&#x24dc;" 
d="M450 726q87 0 163.5 -34t133.5 -91q57 -58 90.5 -135.5t33.5 -165.5q0 -89 -33.5 -166.5t-90.5 -135.5q-57 -57 -133.5 -90.5t-163.5 -33.5t-164 33.5t-134 90.5q-57 58 -90 135.5t-33 166.5q0 88 33 165.5t90 135.5q57 57 134 91t164 34v0zM450 688q-79 0 -148.5 -31
t-120.5 -83q-52 -53 -81.5 -123.5t-29.5 -150.5q0 -81 29.5 -151.5t81.5 -123.5q51 -52 120.5 -82.5t148.5 -30.5q78 0 147.5 30.5t120.5 82.5q52 53 82 123.5t30 151.5q0 80 -30 150.5t-82 123.5q-51 52 -120.5 83t-147.5 31v0zM484 93h-68v264q0 46 -13 70.5t-58 21.5
q-39 -3 -61.5 -30.5t-22.5 -75.5v-250h-72v406h72v-47q18 23 47 44.5t80 16.5q28 -3 50.5 -19.5t34.5 -47.5q6 8 17 21t28 24t40.5 18t55.5 4q55 -6 76.5 -47t21.5 -89v-284h-73v264q0 46 -12 70.5t-56 21.5q-39 -3 -63 -30.5t-24 -75.5v-250z" />
    <glyph glyph-name="uni24DD" unicode="&#x24dd;" 
d="M450 726q87 0 163.5 -34t133.5 -91q57 -58 90.5 -135.5t33.5 -165.5q0 -89 -33.5 -166.5t-90.5 -135.5q-57 -57 -133.5 -90.5t-163.5 -33.5t-164 33.5t-134 90.5q-57 58 -90 135.5t-33 166.5q0 88 33 165.5t90 135.5q57 57 134 91t164 34v0zM450 688q-79 0 -148.5 -31
t-120.5 -83q-52 -53 -81.5 -123.5t-29.5 -150.5q0 -81 29.5 -151.5t81.5 -123.5q51 -52 120.5 -82.5t148.5 -30.5q78 0 147.5 30.5t120.5 82.5q52 53 82 123.5t30 151.5q0 80 -30 150.5t-82 123.5q-51 52 -120.5 83t-147.5 31v0zM281 494h72v-44q22 23 59 43t91 15
q30 -4 52.5 -18t36.5 -34t21 -42.5t7 -42.5v-283h-72v253q0 51 -21.5 75t-65.5 24q-45 0 -76.5 -32.5t-31.5 -79.5v-240h-72v406z" />
    <glyph glyph-name="uni24DE" unicode="&#x24de;" 
d="M450 726q87 0 163.5 -34t133.5 -91q57 -58 90.5 -135.5t33.5 -165.5q0 -89 -33.5 -166.5t-90.5 -135.5q-57 -57 -133.5 -90.5t-163.5 -33.5t-164 33.5t-134 90.5q-57 58 -90 135.5t-33 166.5q0 88 33 165.5t90 135.5q57 57 134 91t164 34v0zM450 688q-79 0 -148.5 -31
t-120.5 -83q-52 -53 -81.5 -123.5t-29.5 -150.5q0 -81 29.5 -151.5t81.5 -123.5q51 -52 120.5 -82.5t148.5 -30.5q78 0 147.5 30.5t120.5 82.5q52 53 82 123.5t30 151.5q0 80 -30 150.5t-82 123.5q-51 52 -120.5 83t-147.5 31v0zM451 517q44 0 79.5 -17.5t60.5 -46.5
q25 -30 38.5 -69.5t13.5 -83.5q0 -46 -13.5 -86t-38.5 -69q-25 -30 -60.5 -47t-79.5 -17q-45 0 -81 17t-61 47q-25 29 -38 69t-13 86q0 44 13 83.5t38 69.5q25 29 61 46.5t81 17.5v0zM451 456q-54 0 -86.5 -46.5t-32.5 -109.5q0 -66 32.5 -112t86.5 -46q53 0 85.5 46
t32.5 112q0 63 -32.5 109.5t-85.5 46.5v0z" />
    <glyph glyph-name="uni24DF" unicode="&#x24df;" 
d="M450 726q87 0 163.5 -34t133.5 -91q57 -58 90.5 -135.5t33.5 -165.5q0 -89 -33.5 -166.5t-90.5 -135.5q-57 -57 -133.5 -90.5t-163.5 -33.5t-164 33.5t-134 90.5q-57 58 -90 135.5t-33 166.5q0 88 33 165.5t90 135.5q57 57 134 91t164 34v0zM450 688q-79 0 -148.5 -31
t-120.5 -83q-52 -53 -81.5 -123.5t-29.5 -150.5q0 -81 29.5 -151.5t81.5 -123.5q51 -52 120.5 -82.5t148.5 -30.5q78 0 147.5 30.5t120.5 82.5q52 53 82 123.5t30 151.5q0 80 -30 150.5t-82 123.5q-51 52 -120.5 83t-147.5 31v0zM355 203v-177h-70v542h70v-42
q24 27 56.5 41.5t71.5 14.5q81 0 132 -60.5t51 -156.5q0 -97 -51 -157.5t-132 -60.5q-39 0 -71.5 14.5t-56.5 41.5v0zM473 518q-56 0 -87 -43t-31 -110q0 -69 31 -112t87 -43q54 0 86 43t32 112q0 67 -32 110t-86 43v0z" />
    <glyph glyph-name="uni24E0" unicode="&#x24e0;" 
d="M450 726q87 0 163.5 -34t133.5 -91q57 -58 90.5 -135.5t33.5 -165.5q0 -89 -33.5 -166.5t-90.5 -135.5q-57 -57 -133.5 -90.5t-163.5 -33.5t-164 33.5t-134 90.5q-57 58 -90 135.5t-33 166.5q0 88 33 165.5t90 135.5q57 57 134 91t164 34v0zM450 688q-79 0 -148.5 -31
t-120.5 -83q-52 -53 -81.5 -123.5t-29.5 -150.5q0 -81 29.5 -151.5t81.5 -123.5q51 -52 120.5 -82.5t148.5 -30.5q78 0 147.5 30.5t120.5 82.5q52 53 82 123.5t30 151.5q0 80 -30 150.5t-82 123.5q-51 52 -120.5 83t-147.5 31v0zM536 205q-24 -27 -57 -41.5t-71 -14.5
q-41 0 -74.5 15.5t-57.5 44.5q-25 29 -38 69t-13 88t13 88t38 69q24 29 57.5 45t74.5 16q38 0 71 -14.5t57 -41.5v42h70v-542h-70v177zM419 520q-57 0 -88 -43t-31 -111t31 -111t88 -43q54 0 85.5 43t31.5 111t-31.5 111t-85.5 43v0z" />
    <glyph glyph-name="uni24E1" unicode="&#x24e1;" 
d="M450 726q87 0 163.5 -34t133.5 -91q57 -58 90.5 -135.5t33.5 -165.5q0 -89 -33.5 -166.5t-90.5 -135.5q-57 -57 -133.5 -90.5t-163.5 -33.5t-164 33.5t-134 90.5q-57 58 -90 135.5t-33 166.5q0 88 33 165.5t90 135.5q57 57 134 91t164 34v0zM450 688q-79 0 -148.5 -31
t-120.5 -83q-52 -53 -81.5 -123.5t-29.5 -150.5q0 -81 29.5 -151.5t81.5 -123.5q51 -52 120.5 -82.5t148.5 -30.5q78 0 147.5 30.5t120.5 82.5q52 53 82 123.5t30 151.5q0 80 -30 150.5t-82 123.5q-51 52 -120.5 83t-147.5 31v0zM377 487h70v-62q14 25 30.5 40t43.5 27
q16 6 35.5 7.5t21.5 1.5v-70q-18 0 -33.5 -2.5t-29.5 -9.5q-33 -18 -50.5 -49.5t-17.5 -84.5v-204h-70v406z" />
    <glyph glyph-name="uni24E2" unicode="&#x24e2;" 
d="M450 726q87 0 163.5 -34t133.5 -91q57 -58 90.5 -135.5t33.5 -165.5q0 -89 -33.5 -166.5t-90.5 -135.5q-57 -57 -133.5 -90.5t-163.5 -33.5t-164 33.5t-134 90.5q-57 58 -90 135.5t-33 166.5q0 88 33 165.5t90 135.5q57 57 134 91t164 34v0zM450 688q-79 0 -148.5 -31
t-120.5 -83q-52 -53 -81.5 -123.5t-29.5 -150.5q0 -81 29.5 -151.5t81.5 -123.5q51 -52 120.5 -82.5t148.5 -30.5q78 0 147.5 30.5t120.5 82.5q52 53 82 123.5t30 151.5q0 80 -30 150.5t-82 123.5q-51 52 -120.5 83t-147.5 31v0zM351 222q3 -34 28.5 -54.5t75.5 -20.5
q39 0 61 14.5t27 40.5q3 15 -7 31t-31 25q-17 6 -35 11l-36 10q-17 4 -33 8t-28 10q-36 12 -58 39t-19 68q3 42 43 77.5t112 35.5q39 0 68.5 -12t48.5 -31q20 -18 29 -40t9 -41h-71q0 7 -3 17.5t-13 20.5q-10 9 -27 16t-44 7q-45 0 -62.5 -18.5t-17.5 -35.5q-1 -26 13.5 -36
t38.5 -17q11 -5 27.5 -9t34.5 -9t36 -10.5t34 -12.5q27 -12 47.5 -37t19.5 -63q-4 -54 -50.5 -89t-112.5 -35q-51 0 -85 15t-54 37t-28 46t-8 42h70z" />
    <glyph glyph-name="uni24E3" unicode="&#x24e3;" 
d="M450 726q87 0 163.5 -34t133.5 -91q57 -58 90.5 -135.5t33.5 -165.5q0 -89 -33.5 -166.5t-90.5 -135.5q-57 -57 -133.5 -90.5t-163.5 -33.5t-164 33.5t-134 90.5q-57 58 -90 135.5t-33 166.5q0 88 33 165.5t90 135.5q57 57 134 91t164 34v0zM450 688q-79 0 -148.5 -31
t-120.5 -83q-52 -53 -81.5 -123.5t-29.5 -150.5q0 -81 29.5 -151.5t81.5 -123.5q51 -52 120.5 -82.5t148.5 -30.5q78 0 147.5 30.5t120.5 82.5q52 53 82 123.5t30 151.5q0 80 -30 150.5t-82 123.5q-51 52 -120.5 83t-147.5 31v0zM478 152q0 -9 -0.5 -15.5t0.5 -11.5
q1 -6 3.5 -11t8.5 -10q9 -7 22 -8t22 -1v-59h-48q-21 0 -36.5 9.5t-24.5 23.5q-11 13 -14 27.5t-3 45.5v244h-49v59h49v120h70v-120h56v-59h-56v-234z" />
    <glyph glyph-name="uni24E4" unicode="&#x24e4;" 
d="M450 726q87 0 163.5 -34t133.5 -91q57 -58 90.5 -135.5t33.5 -165.5q0 -89 -33.5 -166.5t-90.5 -135.5q-57 -57 -133.5 -90.5t-163.5 -33.5t-164 33.5t-134 90.5q-57 58 -90 135.5t-33 166.5q0 88 33 165.5t90 135.5q57 57 134 91t164 34v0zM450 688q-79 0 -148.5 -31
t-120.5 -83q-52 -53 -81.5 -123.5t-29.5 -150.5q0 -81 29.5 -151.5t81.5 -123.5q51 -52 120.5 -82.5t148.5 -30.5q78 0 147.5 30.5t120.5 82.5q52 53 82 123.5t30 151.5q0 80 -30 150.5t-82 123.5q-51 52 -120.5 83t-147.5 31v0zM618 104h-72v50q-17 -25 -50.5 -45
t-78.5 -20q-25 0 -49.5 8.5t-43.5 26.5q-20 18 -32 45t-12 64v278h70v-255q0 -54 25 -78.5t70 -21.5q43 3 72 31.5t29 83.5v240h72v-407z" />
    <glyph glyph-name="uni24E5" unicode="&#x24e5;" 
d="M450 726q87 0 163.5 -34t133.5 -91q57 -58 90.5 -135.5t33.5 -165.5q0 -89 -33.5 -166.5t-90.5 -135.5q-57 -57 -133.5 -90.5t-163.5 -33.5t-164 33.5t-134 90.5q-57 58 -90 135.5t-33 166.5q0 88 33 165.5t90 135.5q57 57 134 91t164 34v0zM450 688q-79 0 -148.5 -31
t-120.5 -83q-52 -53 -81.5 -123.5t-29.5 -150.5q0 -81 29.5 -151.5t81.5 -123.5q51 -52 120.5 -82.5t148.5 -30.5q78 0 147.5 30.5t120.5 82.5q52 53 82 123.5t30 151.5q0 80 -30 150.5t-82 123.5q-51 52 -120.5 83t-147.5 31v0zM451 150l116 329h74l-149 -407h-82l-149 407
h74z" />
    <glyph glyph-name="uni24E6" unicode="&#x24e6;" 
d="M450 726q87 0 163.5 -34t133.5 -91q57 -58 90.5 -135.5t33.5 -165.5q0 -89 -33.5 -166.5t-90.5 -135.5q-57 -57 -133.5 -90.5t-163.5 -33.5t-164 33.5t-134 90.5q-57 58 -90 135.5t-33 166.5q0 88 33 165.5t90 135.5q57 57 134 91t164 34v0zM450 688q-79 0 -148.5 -31
t-120.5 -83q-52 -53 -81.5 -123.5t-29.5 -150.5q0 -81 29.5 -151.5t81.5 -123.5q51 -52 120.5 -82.5t148.5 -30.5q78 0 147.5 30.5t120.5 82.5q52 53 82 123.5t30 151.5q0 80 -30 150.5t-82 123.5q-51 52 -120.5 83t-147.5 31v0zM449 369l-77 -295h-78l-114 406h73l80 -312
l78 312h76l78 -312l81 312h71l-113 -406h-77z" />
    <glyph glyph-name="uni24E7" unicode="&#x24e7;" 
d="M450 726q87 0 163.5 -34t133.5 -91q57 -58 90.5 -135.5t33.5 -165.5q0 -89 -33.5 -166.5t-90.5 -135.5q-57 -57 -133.5 -90.5t-163.5 -33.5t-164 33.5t-134 90.5q-57 58 -90 135.5t-33 166.5q0 88 33 165.5t90 135.5q57 57 134 91t164 34v0zM450 688q-79 0 -148.5 -31
t-120.5 -83q-52 -53 -81.5 -123.5t-29.5 -150.5q0 -81 29.5 -151.5t81.5 -123.5q51 -52 120.5 -82.5t148.5 -30.5q78 0 147.5 30.5t120.5 82.5q52 53 82 123.5t30 151.5q0 80 -30 150.5t-82 123.5q-51 52 -120.5 83t-147.5 31v0zM491 300l147 -208h-82l-105 151l-106 -151
h-81l146 208l-138 199h81l98 -141l98 141h81z" />
    <glyph glyph-name="uni24E8" unicode="&#x24e8;" 
d="M450 726q87 0 163.5 -34t133.5 -91q57 -58 90.5 -135.5t33.5 -165.5q0 -89 -33.5 -166.5t-90.5 -135.5q-57 -57 -133.5 -90.5t-163.5 -33.5t-164 33.5t-134 90.5q-57 58 -90 135.5t-33 166.5q0 88 33 165.5t90 135.5q57 57 134 91t164 34v0zM450 688q-79 0 -148.5 -31
t-120.5 -83q-52 -53 -81.5 -123.5t-29.5 -150.5q0 -81 29.5 -151.5t81.5 -123.5q51 -52 120.5 -82.5t148.5 -30.5q78 0 147.5 30.5t120.5 82.5q52 53 82 123.5t30 151.5q0 80 -30 150.5t-82 123.5q-51 52 -120.5 83t-147.5 31v0zM459 233l119 314h71l-182 -476
q-7 -19 -20 -34t-28 -21q-9 -5 -17 -7.5t-16 -3.5t-16 -1h-16h-25v57h36q15 0 26.5 9t17.5 22l18 49l-156 406h72z" />
    <glyph glyph-name="uni24E9" unicode="&#x24e9;" 
d="M450 726q87 0 163.5 -34t133.5 -91q57 -58 90.5 -135.5t33.5 -165.5q0 -89 -33.5 -166.5t-90.5 -135.5q-57 -57 -133.5 -90.5t-163.5 -33.5t-164 33.5t-134 90.5q-57 58 -90 135.5t-33 166.5q0 88 33 165.5t90 135.5q57 57 134 91t164 34v0zM450 688q-79 0 -148.5 -31
t-120.5 -83q-52 -53 -81.5 -123.5t-29.5 -150.5q0 -81 29.5 -151.5t81.5 -123.5q51 -52 120.5 -82.5t148.5 -30.5q78 0 147.5 30.5t120.5 82.5q52 53 82 123.5t30 151.5q0 80 -30 150.5t-82 123.5q-51 52 -120.5 83t-147.5 31v0zM606 446l-242 -292h256v-58h-339v58l242 292
h-220v58h303v-58z" />
    <glyph glyph-name="SF100000" unicode="&#x2500;" 
d="M0 319h900v-38h-900v38z" />
    <glyph glyph-name="uni2501" unicode="&#x2501;" 
d="M0 338h900v-75h-900v75z" />
    <glyph glyph-name="SF110000" unicode="&#x2502;" 
d="M433 800h34v-1000h-34v1000z" />
    <glyph glyph-name="uni2503" unicode="&#x2503;" 
d="M417 800h67v-1000h-67v1000z" />
    <glyph glyph-name="SF010000" unicode="&#x250c;" 
d="M433 319h467v-38h-433v-481h-34v519z" />
    <glyph glyph-name="uni250D" unicode="&#x250d;" 
d="M433 338h467v-75h-433v-463h-34v538z" />
    <glyph glyph-name="uni250E" unicode="&#x250e;" 
d="M484 281v-481h-67v519h483v-38h-416z" />
    <glyph glyph-name="uni250F" unicode="&#x250f;" 
d="M417 338h483v-75h-416v-463h-67v538z" />
    <glyph glyph-name="SF030000" unicode="&#x2510;" 
d="M0 281v38h467v-519h-34v481h-433z" />
    <glyph glyph-name="uni2511" unicode="&#x2511;" 
d="M433 263h-433v75h467v-538h-34v463z" />
    <glyph glyph-name="uni2512" unicode="&#x2512;" 
d="M417 281h-417v38h484v-519h-67v481z" />
    <glyph glyph-name="uni2513" unicode="&#x2513;" 
d="M0 338h484v-538h-67v463h-417v75z" />
    <glyph glyph-name="SF020000" unicode="&#x2514;" 
d="M433 800h34v-481h433v-38h-467v519z" />
    <glyph glyph-name="uni2515" unicode="&#x2515;" 
d="M467 338h433v-75h-467v537h34v-462z" />
    <glyph glyph-name="uni2516" unicode="&#x2516;" 
d="M484 319h416v-38h-483v519h67v-481z" />
    <glyph glyph-name="uni2517" unicode="&#x2517;" 
d="M417 800h67v-462h416v-75h-483v537z" />
    <glyph glyph-name="SF040000" unicode="&#x2518;" 
d="M433 800h34v-519h-467v38h433v481z" />
    <glyph glyph-name="uni2519" unicode="&#x2519;" 
d="M433 338v462h34v-537h-467v75h433z" />
    <glyph glyph-name="uni251A" unicode="&#x251a;" 
d="M417 319v481h67v-519h-484v38h417z" />
    <glyph glyph-name="uni251B" unicode="&#x251b;" 
d="M417 800h67v-537h-484v75h417v462z" />
    <glyph glyph-name="SF080000" unicode="&#x251c;" 
d="M433 800h34v-481h433v-38h-433v-481h-34v1000z" />
    <glyph glyph-name="uni251D" unicode="&#x251d;" 
d="M900 338v-75h-433v-463h-34v1000h34v-462h433z" />
    <glyph glyph-name="uni251E" unicode="&#x251e;" 
d="M417 800h67v-481h416v-38h-433v-481h-34v481h-16v519z" />
    <glyph glyph-name="uni251F" unicode="&#x251f;" 
d="M433 800h34v-481h433v-38h-416v-481h-67v519h16v481z" />
    <glyph glyph-name="uni2520" unicode="&#x2520;" 
d="M900 319v-38h-416v-481h-67v1000h67v-481h416z" />
    <glyph glyph-name="uni2521" unicode="&#x2521;" 
d="M433 -200v463h-16v537h67v-462h416v-75h-433v-463h-34z" />
    <glyph glyph-name="uni2522" unicode="&#x2522;" 
d="M417 -200v538h16v462h34v-462h433v-75h-416v-463h-67z" />
    <glyph glyph-name="uni2523" unicode="&#x2523;" 
d="M417 800h67v-462h416v-75h-416v-463h-67v1000z" />
    <glyph glyph-name="SF090000" unicode="&#x2524;" 
d="M467 800v-1000h-34v481h-433v38h433v481h34z" />
    <glyph glyph-name="uni2525" unicode="&#x2525;" 
d="M433 338v462h34v-1000h-34v463h-433v75h433z" />
    <glyph glyph-name="uni2526" unicode="&#x2526;" 
d="M417 800h67v-519h-17v-481h-34v481h-433v38h417v481z" />
    <glyph glyph-name="uni2527" unicode="&#x2527;" 
d="M0 319h433v481h34v-481h17v-519h-67v481h-417v38z" />
    <glyph glyph-name="uni2528" unicode="&#x2528;" 
d="M484 -200h-67v481h-417v38h417v481h67v-1000z" />
    <glyph glyph-name="uni2529" unicode="&#x2529;" 
d="M0 263v75h417v462h67v-537h-17v-463h-34v463h-433z" />
    <glyph glyph-name="uni252A" unicode="&#x252a;" 
d="M0 263v75h433v462h34v-462h17v-538h-67v463h-417z" />
    <glyph glyph-name="uni252B" unicode="&#x252b;" 
d="M0 263v75h417v462h67v-1000h-67v463h-417z" />
    <glyph glyph-name="SF060000" unicode="&#x252c;" 
d="M0 319h900v-38h-433v-481h-34v481h-433v38z" />
    <glyph glyph-name="uni252D" unicode="&#x252d;" 
d="M0 263v75h467v-19h433v-38h-433v-481h-34v463h-433z" />
    <glyph glyph-name="uni252E" unicode="&#x252e;" 
d="M0 281v38h433v19h467v-75h-433v-463h-34v481h-433z" />
    <glyph glyph-name="uni252F" unicode="&#x252f;" 
d="M900 338v-75h-433v-463h-34v463h-433v75h900z" />
    <glyph glyph-name="uni2530" unicode="&#x2530;" 
d="M900 319v-38h-416v-481h-67v481h-417v38h900z" />
    <glyph glyph-name="uni2531" unicode="&#x2531;" 
d="M0 263v75h484v-19h416v-38h-416v-481h-67v463h-417z" />
    <glyph glyph-name="uni2532" unicode="&#x2532;" 
d="M0 281v38h417v19h483v-75h-416v-463h-67v481h-417z" />
    <glyph glyph-name="uni2533" unicode="&#x2533;" 
d="M0 263v75h900v-75h-416v-463h-67v463h-417z" />
    <glyph glyph-name="SF070000" unicode="&#x2534;" 
d="M433 800h34v-481h433v-38h-900v38h433v481z" />
    <glyph glyph-name="uni2535" unicode="&#x2535;" 
d="M0 263v75h433v462h34v-481h433v-38h-433v-18h-467z" />
    <glyph glyph-name="uni2536" unicode="&#x2536;" 
d="M0 281v38h433v481h34v-462h433v-75h-467v18h-433z" />
    <glyph glyph-name="uni2537" unicode="&#x2537;" 
d="M433 338v462h34v-462h433v-75h-900v75h433z" />
    <glyph glyph-name="uni2538" unicode="&#x2538;" 
d="M417 319v481h67v-481h416v-38h-900v38h417z" />
    <glyph glyph-name="uni2539" unicode="&#x2539;" 
d="M0 263v75h417v462h67v-481h416v-38h-416v-18h-484z" />
    <glyph glyph-name="uni253A" unicode="&#x253a;" 
d="M0 281v38h417v481h67v-462h416v-75h-483v18h-417z" />
    <glyph glyph-name="uni253B" unicode="&#x253b;" 
d="M417 338v462h67v-462h416v-75h-900v75h417z" />
    <glyph glyph-name="SF050000" unicode="&#x253c;" 
d="M433 800h34v-481h433v-38h-433v-481h-34v481h-433v38h433v481z" />
    <glyph glyph-name="uni253D" unicode="&#x253d;" 
d="M0 263v75h433v462h34v-481h433v-38h-433v-481h-34v463h-433z" />
    <glyph glyph-name="uni253E" unicode="&#x253e;" 
d="M467 800v-462h433v-75h-433v-463h-34v481h-433v38h433v481h34z" />
    <glyph glyph-name="uni253F" unicode="&#x253f;" 
d="M433 338v462h34v-462h433v-75h-433v-463h-34v463h-433v75h433z" />
    <glyph glyph-name="uni2540" unicode="&#x2540;" 
d="M484 800v-481h416v-38h-433v-481h-34v481h-433v38h417v481h67z" />
    <glyph glyph-name="uni2541" unicode="&#x2541;" 
d="M467 800v-481h433v-38h-416v-481h-67v481h-417v38h433v481h34z" />
    <glyph glyph-name="uni2542" unicode="&#x2542;" 
d="M417 319v481h67v-481h416v-38h-416v-481h-67v481h-417v38h417z" />
    <glyph glyph-name="uni2543" unicode="&#x2543;" 
d="M484 800v-481h416v-38h-416v-18h-17v-463h-34v463h-433v75h417v462h67z" />
    <glyph glyph-name="uni2544" unicode="&#x2544;" 
d="M467 -200h-34v463h-16v18h-417v38h417v481h67v-462h416v-75h-433v-463z" />
    <glyph glyph-name="uni2545" unicode="&#x2545;" 
d="M467 800v-462h17v-19h416v-38h-416v-481h-67v463h-417v75h433v462h34z" />
    <glyph glyph-name="uni2546" unicode="&#x2546;" 
d="M467 800v-462h433v-75h-416v-463h-67v481h-417v38h417v19h16v462h34z" />
    <glyph glyph-name="uni2547" unicode="&#x2547;" 
d="M484 800v-462h416v-75h-433v-463h-34v463h-433v75h417v462h67z" />
    <glyph glyph-name="uni2548" unicode="&#x2548;" 
d="M467 800v-462h433v-75h-416v-463h-67v463h-417v75h433v462h34z" />
    <glyph glyph-name="uni2549" unicode="&#x2549;" 
d="M484 800v-481h416v-38h-416v-481h-67v463h-417v75h417v462h67z" />
    <glyph glyph-name="uni254A" unicode="&#x254a;" 
d="M484 800v-462h416v-75h-416v-463h-67v481h-417v38h417v481h67z" />
    <glyph glyph-name="uni254B" unicode="&#x254b;" 
d="M417 338v462h67v-462h416v-75h-416v-463h-67v463h-417v75h417z" />
    <glyph glyph-name="shade" unicode="&#x2592;" 
d="M60 -90v780h779v-780h-779zM800 651h-701v-702h701v702zM711 596q0 -12 -7.5 -18t-18.5 -6t-17 6.5t-6 17.5q0 9 6 17t17 8q10 0 18 -7.5t8 -17.5v0zM554 596q0 -12 -8 -18t-19 -6q-10 0 -17 6.5t-7 17.5q0 9 7 17t17 8q11 0 19 -7.5t8 -17.5v0zM751 399q0 -12 -7 -18.5
t-18 -6.5t-17.5 6.5t-6.5 18.5q0 9 6.5 16t16.5 7q12 0 19 -7t7 -16v0zM614 399q0 -12 -7.5 -18.5t-18.5 -6.5q-12 0 -18 6.5t-6 18.5q0 9 6 16.5t18 7.5q10 0 18 -7.5t8 -16.5v0zM394 595q0 -10 -7 -16.5t-16 -6.5q-12 0 -18.5 5.5t-6.5 17.5q0 11 6.5 18t17.5 7
q10 0 17 -7t7 -18v0zM691 201q0 -11 -7 -17.5t-19 -6.5q-10 0 -16 6.5t-6 17.5q0 10 6 17.5t16 7.5q11 0 18.5 -7.5t7.5 -17.5v0zM474 399q0 -12 -7.5 -18.5t-18.5 -6.5q-10 0 -16.5 6.5t-6.5 18.5q0 9 6.5 16.5t16.5 7.5q11 0 18.5 -7.5t7.5 -16.5v0zM238 596
q0 -12 -7.5 -18t-18.5 -6t-17.5 6.5t-6.5 17.5q0 9 6.5 17t17.5 8q10 0 18 -7t8 -18v0zM752 4q0 -12 -7.5 -18.5t-19.5 -6.5q-10 0 -16.5 6.5t-6.5 18.5q0 10 6.5 17t16.5 7q12 0 19.5 -6.5t7.5 -17.5v0zM544 201q0 -12 -8 -18t-18 -6q-12 0 -18.5 6.5t-6.5 17.5
q0 10 6.5 17.5t18.5 7.5q11 0 18.5 -7.5t7.5 -17.5v0zM335 398q0 -11 -7 -17.5t-17 -6.5q-12 0 -18 6t-6 18q0 10 6.5 17t17.5 7q10 0 17 -7t7 -17v0zM614 4q0 -12 -8.5 -18.5t-17.5 -6.5q-12 0 -18 6.5t-6 18.5q0 10 6 17t18 7q11 0 18.5 -6.5t7.5 -17.5v0zM199 399
q0 -12 -7 -18.5t-18 -6.5t-17.5 6.5t-6.5 18.5q0 9 6.5 16.5t17.5 7.5q10 0 17.5 -6.5t7.5 -17.5v0zM385 200q0 -10 -7 -16.5t-16 -6.5q-12 0 -18.5 6t-6.5 17t6.5 18t17.5 7q10 0 17 -7t7 -18v0zM473 4q0 -11 -7 -18t-18 -7t-17.5 6.5t-6.5 18.5q0 10 6.5 17t17.5 7
q10 0 17.5 -6.5t7.5 -17.5v0zM250 201q0 -11 -7.5 -17.5t-18.5 -6.5t-17.5 6.5t-6.5 17.5q0 10 6.5 17.5t17.5 7.5q10 0 18 -7t8 -18v0zM335 4q0 -12 -7 -18.5t-17 -6.5q-12 0 -19 6.5t-7 18.5q0 10 7 17t19 7q10 0 17 -7t7 -17v0zM198 4q0 -12 -7.5 -18.5t-16.5 -6.5
q-12 0 -18.5 6.5t-6.5 18.5q0 10 6.5 17t18.5 7q10 0 17 -7t7 -17v0z" />
    <glyph glyph-name="filledbox" unicode="&#x25a0;" 
d="M74 -76v752h751v-752h-751z" />
    <glyph glyph-name="H22073" unicode="&#x25a1;" 
d="M72 678h755v-756h-755v756zM122 628v-656h656v656h-656z" />
    <glyph glyph-name="uni25A3" unicode="&#x25a3;" 
d="M63 -102v810h775v-810h-775zM788 663h-671v-717h671v717zM248 89v428h408v-428h-408z" />
    <glyph glyph-name="uni25A4" unicode="&#x25a4;" 
d="M60 -90v780h779v-780h-779zM800 651h-701v-139h701v139zM800 473h-701v-153h701v153zM800 280h-701v-153h701v153zM800 88h-701v-139h701v139z" />
    <glyph glyph-name="uni25A5" unicode="&#x25a5;" 
d="M60 -90v780h779v-780h-779zM800 651h-138v-702h138v702zM623 651h-153v-702h153v702zM429 651h-153v-702h153v702zM238 651h-139v-702h139v702z" />
    <glyph glyph-name="uni25A6" unicode="&#x25a6;" 
d="M59 -90v781h780v-781h-780zM799 649h-151v-148h151v148zM614 649h-150v-148h150v148zM799 465h-151v-146h151v146zM428 649h-149v-148h149v148zM614 465h-150v-146h150v146zM799 282h-151v-147h151v147zM244 649h-145v-148h145v148zM428 465h-149v-146h149v146zM614 282
h-150v-147h150v147zM799 99h-151v-147h151v147zM244 465h-145v-146h145v146zM428 282h-149v-147h149v147zM614 99h-150v-147h150v147zM244 282h-145v-147h145v147zM428 99h-149v-147h149v147zM244 99h-145v-147h145v147z" />
    <glyph glyph-name="uni25A7" unicode="&#x25a7;" 
d="M60 -90v780h779v-780h-779zM800 651h-143l143 -143v143zM800 452l-199 199h-195l394 -395v196zM800 201l-449 450h-217l666 -667v217zM101 628v-216l462 -463h216zM101 353v-193l210 -211h196zM101 105v-156h155z" />
    <glyph glyph-name="uni25A8" unicode="&#x25a8;" 
d="M60 -90v780h779v-780h-779zM548 651l-449 -450v-217l666 667h-217zM99 651v-143l143 143h-143zM298 651l-199 -199v-196l393 395h-194zM644 -51h154v156zM798 628l-678 -679h217l461 463v216zM798 353l-406 -404h196l210 211v193z" />
    <glyph glyph-name="uni25A9" unicode="&#x25a9;" 
d="M60 -92v780h779v-780h-779zM590 649l94 -95l95 95h-189zM800 628l-94 -95l94 -95v190zM566 630l-95 -97l95 -97l97 97zM684 512l-96 -97l96 -96l97 96zM355 649l95 -95l95 95h-190zM800 393l-94 -95l94 -95v190zM333 630l-97 -97l97 -97l95 97zM450 512l-97 -97l97 -96
l96 96zM566 395l-95 -97l95 -97l97 97zM684 277l-96 -96l96 -97l97 97zM120 649l95 -95l95 95h-190zM800 158l-94 -95l94 -95v190zM99 628v-190l95 95zM684 42l-94 -95h189zM215 512l-97 -97l97 -96l96 96zM333 395l-97 -97l97 -97l95 97zM450 277l-97 -96l97 -97l96 97z
M566 160l-95 -97l95 -97l97 97zM450 42l-95 -95h190zM99 393v-190l95 95zM333 160l-97 -97l97 -97l95 97zM215 277l-97 -96l97 -97l96 97zM99 158v-190l95 95zM215 42l-95 -95h190z" />
    <glyph glyph-name="triagup" unicode="&#x25b2;" 
d="M14 -72l436 754l435 -754h-871z" />
    <glyph glyph-name="uni25B3" unicode="&#x25b3;" 
d="M450 687l439 -761h-879zM99 -25h701l-350 609z" />
    <glyph glyph-name="uni25B6" unicode="&#x25b6;" 
d="M97 -136v880l760 -441z" />
    <glyph glyph-name="uni25B7" unicode="&#x25b7;" 
d="M87 -136v880l760 -441zM137 655v-702l607 350z" />
    <glyph glyph-name="triagdn" unicode="&#x25bc;" 
d="M450 -81l-436 754h871z" />
    <glyph glyph-name="uni25BD" unicode="&#x25bd;" 
d="M10 675h879l-439 -761zM450 17l350 609h-701z" />
    <glyph glyph-name="uni25C0" unicode="&#x25c0;" 
d="M42 303l760 441v-880z" />
    <glyph glyph-name="uni25C1" unicode="&#x25c1;" 
d="M42 303l760 441v-880zM752 655l-607 -352l607 -350v702z" />
    <glyph glyph-name="uni25C6" unicode="&#x25c6;" 
d="M450 -130l-430 430l430 430l429 -430z" />
    <glyph glyph-name="uni25C7" unicode="&#x25c7;" 
d="M16 300l434 434l433 -434l-433 -434zM87 300l363 -363l362 363l-362 363z" />
    <glyph glyph-name="uni25C8" unicode="&#x25c8;" 
d="M448 -179l-449 474l454 477l449 -473zM452 700l-384 -404l381 -404l384 406zM448 26l-254 268l260 275l253 -270z" />
    <glyph glyph-name="circle" unicode="&#x25cb;" 
d="M450 -99q-83 0 -156 31t-127 86q-55 54 -86 127t-31 156q0 82 31 155t86 127q54 55 127 86.5t156 31.5q82 0 155 -31.5t127 -85.5q55 -54 86.5 -127t31.5 -156t-31.5 -156t-86.5 -127q-54 -55 -127 -86t-155 -31v0zM450 652q-73 0 -137 -28t-111 -75q-48 -48 -75.5 -112
t-27.5 -136q0 -73 27.5 -137t75.5 -111q47 -48 111 -75.5t137 -27.5q72 0 135.5 27.5t111.5 75.5q47 47 75 111t28 137q0 72 -28 136t-75 111q-48 48 -111.5 76t-135.5 28v0z" />
    <glyph glyph-name="uni25CE" unicode="&#x25ce;" 
d="M450 62q-50 0 -93.5 18.5t-75.5 50.5t-50.5 75.5t-18.5 93.5q0 49 18.5 92.5t50.5 75.5t75.5 51t93.5 19q49 0 92 -19t76 -51q32 -32 51 -75.5t19 -92.5q0 -50 -19 -93.5t-51 -75.5q-33 -32 -76 -50.5t-92 -18.5v0zM450 488q-39 0 -73.5 -15t-59.5 -40q-26 -26 -40.5 -60
t-14.5 -73t14.5 -73.5t40.5 -59.5q25 -26 59.5 -40.5t73.5 -14.5t73 14.5t59 40.5q25 25 40 59.5t15 73.5t-15 73t-40 60q-25 25 -59 40t-73 15v0zM450 -99q-83 0 -156 31t-127 86q-55 54 -86 127t-31 156q0 82 31 155t86 127q54 55 127 86.5t156 31.5q82 0 155 -31.5
t127 -85.5q55 -54 86.5 -127t31.5 -156t-31.5 -156t-86.5 -127q-54 -55 -127 -86t-155 -31v0zM450 652q-73 0 -137 -28t-111 -75q-48 -48 -75.5 -112t-27.5 -136q0 -73 27.5 -137t75.5 -111q47 -48 111 -75.5t137 -27.5q72 0 135.5 27.5t111.5 75.5q47 47 75 111t28 137
q0 72 -28 136t-75 111q-48 48 -111.5 76t-135.5 28v0z" />
    <glyph glyph-name="H18533" unicode="&#x25cf;" 
d="M847 301q0 -83 -31.5 -155.5t-84.5 -126.5q-54 -54 -126.5 -85t-154.5 -31q-83 0 -155.5 31t-126.5 85t-85 126.5t-31 155.5q0 82 31 154.5t85 126.5t126.5 85.5t155.5 31.5q82 0 154.5 -31.5t126.5 -85.5q53 -54 84.5 -126.5t31.5 -154.5v0z" />
    <glyph glyph-name="uni25D0" unicode="&#x25d0;" 
d="M870 301q0 -91 -32 -168.5t-88 -133.5q-57 -57 -133.5 -89t-165.5 -32q-90 0 -167.5 32.5t-134.5 89.5t-89 134t-32 167q0 88 32 165t89 133q57 57 134 89.5t167 32.5t166.5 -32.5t133.5 -88.5q56 -57 88 -133.5t32 -165.5v0zM452 674v-749q82 1 149.5 32.5t115.5 83.5
t75 119t27 140q0 71 -27 138t-76 119q-48 51 -115.5 83t-148.5 34v0z" />
    <glyph glyph-name="uni25D1" unicode="&#x25d1;" 
d="M870 300q0 -91 -32 -168.5t-89 -133.5q-56 -57 -132.5 -89t-164.5 -32q-90 0 -167.5 32t-134.5 89t-89.5 134.5t-32.5 167.5q0 81 28.5 157t83.5 134q55 59 135 94t182 35q86 0 161.5 -33t131.5 -90q55 -57 87.5 -133.5t32.5 -163.5v0zM450 -75v748q-83 -2 -151 -34
t-116 -85q-49 -52 -75 -119.5t-26 -139.5q0 -69 26.5 -135t75.5 -118t116.5 -84t149.5 -33v0z" />
    <glyph glyph-name="uni2605" unicode="&#x2605;" 
d="M617 233l106 -322l-276 201l-285 -202l113 324l-275 200h347l106 300l98 -300h350z" />
    <glyph glyph-name="uni2606" unicode="&#x2606;" 
d="M728 -101l-280 205l-290 -207l116 331l-281 203h353l108 306l100 -306h355l-288 -205zM453 568l-69 -190h-227l182 -128l-73 -207l180 128l177 -127l-67 205l190 129h-235z" />
    <glyph glyph-name="uni260E" unicode="&#x260e;" 
d="M779 372q20 -1 48 0.5t42 5.5q0 -27 -17.5 -33t-42.5 -5l-80 3q-24 0 -40.5 10t-19.5 36q27 -9 50.5 -12.5t59.5 -4.5v0zM755 548q34 -10 54 -22.5t31 -29.5q12 -18 17 -41.5t9 -56.5q-15 -4 -43.5 -5.5t-49.5 -0.5q-36 1 -57 4.5t-52 12.5q-2 23 -23.5 42t-47.5 24v-51
q0 -13 1 -20.5t5 -13.5q3 -6 9.5 -12t16.5 -15q9 -10 16.5 -16t13.5 -12t11 -13t10 -19l76 -221q0 -7 -1.5 -20t-3.5 -27q-2 -13 -3.5 -23t-1.5 -11q0 -2 -2 -2.5t-4 -0.5q-3 -1 -6 -0.5t-5 0.5h-549q-3 0 -5.5 -0.5t-5.5 0.5q-2 0 -3.5 0.5t-1.5 2.5q-1 1 -3 11t-4 23
q-2 14 -3 27t-1 20l76 221q4 12 9 19t11 13t14 12t17 16q9 9 15.5 15t9.5 12q4 6 5.5 13.5t1.5 20.5v51q-27 -5 -48.5 -24t-22.5 -42q-31 -9 -52.5 -12.5t-56.5 -4.5q-21 -1 -50 0.5t-43 5.5q3 33 8 56.5t17 41.5q11 17 31 29.5t55 22.5q72 20 152.5 29.5t152.5 9.5
q75 0 153 -9.5t151 -29.5v0zM123 372q35 1 59 4.5t51 12.5q-4 -26 -20.5 -36t-40.5 -10l-80 -3q-26 -1 -43 5t-17 33q14 -4 42 -5.5t49 -0.5v0zM537 409l14 74q-10 0 -21.5 1.5t-24.5 2.5t-27 2t-28 1q-15 0 -29.5 -1t-27.5 -3q-13 -1 -24.5 -2.5t-20.5 -1.5l14 -74l88 5z
M447 113q54 0 91.5 37.5t37.5 92.5q0 25 -10 48t-27 41q-17 17 -40 27.5t-48 10.5q-52 0 -90 -36t-38 -89q0 -26 9 -50t26 -42q16 -19 39 -29.5t50 -10.5v0z" />
    <glyph glyph-name="uni260F" unicode="&#x260f;" 
d="M755 546q56 -16 79 -49t32 -99q5 -42 -13.5 -50.5t-43.5 -7.5l-80 3q-28 0 -43 11.5t-22 54.5q-5 25 -21 41t-50 25v-51q0 -25 5.5 -34.5t26.5 -26.5q8 -8 15.5 -13.5t14.5 -12.5q6 -6 11 -14t10 -20l76 -221q0 -7 -1.5 -20t-3.5 -26q-2 -12 -3.5 -22t-1.5 -11
q0 -2 -2 -2.5t-4 -0.5q-3 -1 -6 -0.5t-5 0.5h-549q-3 0 -5.5 -0.5t-5.5 0.5q-2 0 -3.5 0.5t-1.5 2.5q-1 1 -3 11t-4 22q-2 13 -3 26t-1 20l76 221q4 12 9 20t12 14q6 7 13.5 12.5t16.5 13.5q21 17 26.5 26.5t5.5 34.5v51q-35 -9 -51 -25t-20 -41q-8 -43 -23 -54.5t-42 -11.5
l-80 -3q-26 -1 -44.5 7.5t-12.5 50.5q9 66 31.5 99t79.5 49q69 20 151 30.5t154 10.5q75 0 154.5 -10.5t149.5 -30.5v0zM514 440l9 49q-7 0 -29.5 2t-43.5 2q-24 0 -46 -2t-28 -2l9 -49q11 1 29.5 2t35.5 1q15 0 34 -1t30 -2v0zM802 365q24 -1 30.5 9.5t0.5 43.5
q-8 51 -37 73.5t-86 37.5q-60 15 -130 22.5t-129 7.5q-60 0 -130 -7.5t-130 -22.5q-57 -15 -86 -37.5t-37 -73.5q-6 -33 0 -43.5t31 -9.5l64 2q21 0 30.5 11t16.5 49q6 39 43 56.5t79 24.5q52 9 118 9t120 -9q41 -7 77.5 -24.5t43.5 -56.5q6 -38 16 -49t31 -11zM724 75
l-71 205q-6 17 -13 28t-14 18q-8 8 -16 13.5t-17 12.5q-21 14 -25.5 32.5t-4.5 43.5v55h-3.5h-2.5q-2 0 -3.5 0.5t-2.5 0.5l-14 -70q-1 0 -9 0.5t-21 1.5q-12 0 -27.5 1t-29.5 1q-15 0 -30.5 -1t-28.5 -2q-12 -1 -20.5 -1.5l-8.5 -0.5l-11 72l-13 -2v-55q0 -25 -5 -43.5
t-25 -32.5q-9 -7 -17.5 -12.5t-15.5 -13.5q-8 -7 -14.5 -18t-12.5 -28l-70 -205l7 -45h531zM451 370q25 0 48 -10.5t40 -27.5q17 -18 27 -41t10 -48q0 -55 -37.5 -92.5t-91.5 -37.5q-27 0 -50 10.5t-39 29.5q-17 18 -26 42t-9 50q0 53 38 89t90 36v0zM447 141q43 0 72 29.5
t29 72.5q0 39 -28.5 69t-68.5 30q-41 0 -71 -28t-30 -69t27.5 -72.5t69.5 -31.5v0z" />
    <glyph glyph-name="uni261C" unicode="&#x261c;" 
d="M828 136h-129v46h-18t-19 -1t-20.5 -3.5t-22.5 -7.5q-31 -15 -57.5 -21.5t-51.5 -8.5q-24 -2 -48.5 -0.5t-50.5 2.5q-9 -15 -26 -20t-34 -5q-16 0 -37 4t-40 14q-19 9 -32 23t-13 34q0 12 6.5 22.5t17.5 16.5q-6 6 -8 14t-2 16q0 15 8.5 27t23.5 18q-4 3 -6.5 9.5
t-2.5 12.5q0 9 4 17.5t11 16.5l-105 6q-12 0 -31.5 1.5t-38.5 6.5q-19 6 -32.5 18.5t-13.5 35.5q0 16 11.5 26t28.5 15q18 5 38 6.5t38 2.5l161 5l88 -2q9 7 21.5 11.5t26.5 4.5q27 0 52.5 -7.5t49.5 -18.5t46.5 -23.5t44.5 -23.5q5 -3 8 -4l6 -2t7 -1h12v43h129v-326z
M765 163v272h-39v-272h39zM699 207v187q-8 0 -12.5 -0.5t-8.5 -0.5q-3 0 -6 1t-7 3q-22 9 -45.5 22t-47.5 25t-47.5 21t-44.5 9q-22 0 -35 -7t-26 -22l-48 -49l-8.5 -8.5l-8.5 -8.5q-4 -5 -6.5 -10.5t-2.5 -9.5q0 -14 13.5 -20t24.5 -6q18 0 34.5 9.5t29.5 21.5l44 37
l11 -13l-41 -47q8 -6 19 -17t18 -20l8 -1.5t21 -2.5q12 -1 26.5 -2t29.5 1q15 1 31 5t28 8l6 2l7 -8v-6q-1 -1 -8.5 -4t-18.5 -6q-10 -4 -21.5 -7t-19.5 -4q-17 -2 -32.5 -2.5t-27.5 0.5q-11 0 -18.5 1l-7.5 1q-8 -24 -17 -36.5t-34 -16.5q0 -17 -7 -31t-25 -17v-15
q46 -3 97.5 1.5t99.5 28.5q11 6 22 8.5t21 4.5q11 1 21 1h20v0zM441 252q12 0 23 7.5t11 23.5q0 12 -14 27t-27 15q-3 0 -8 -2t-12 -4q-6 -3 -14.5 -4.5t-17.5 -1.5q-24 0 -42 10.5t-31 28.5q-6 -4 -10.5 -9t-4.5 -13q0 -9 5.5 -16.5t14.5 -13.5q8 -6 17 -10.5t16 -7.5
q6 -3 19 -8t27 -10q15 -5 28 -8.5t20 -3.5v0zM403 460h-83l-141 -2q-9 0 -24.5 -0.5t-30.5 -3.5q-16 -3 -27 -9t-11 -17q0 -21 21 -29t36 -8l132 -5h57zM398 198q12 0 19 7.5t6 19.5q0 3 -2.5 5t-5.5 3l-6 2t-4 2q-21 5 -48.5 17.5t-41.5 21.5q-5 2 -11.5 5t-11.5 3
q-10 0 -16 -7t-6 -16q0 -15 12.5 -26.5t24.5 -15.5q15 -6 44.5 -13.5t46.5 -7.5v0zM351 136q13 0 28 4.5t15 21.5q0 7 -5 10.5t-11 4.5q-40 6 -66 15.5t-41 21.5q-6 3 -11.5 -5.5t-3.5 -19.5q1 -13 12.5 -23t26.5 -16q15 -7 30.5 -10.5t25.5 -3.5v0z" />
    <glyph glyph-name="uni261E" unicode="&#x261e;" 
d="M721 500q17 -1 37.5 -2.5t37.5 -6.5q18 -5 30 -15t12 -26q0 -23 -14 -35.5t-33 -18.5q-19 -5 -38.5 -6.5t-31.5 -1.5l-104 -6q6 -8 11 -16.5t5 -17.5q0 -6 -3 -12.5t-6 -9.5q14 -6 22 -18t8 -27q0 -8 -1.5 -16t-7.5 -14q9 -6 17 -16.5t8 -22.5q0 -20 -13.5 -34t-32.5 -23
q-20 -10 -41 -14t-37 -4t-33 5t-26 20q-27 -1 -51 -2.5t-49 0.5t-51.5 8.5t-57.5 21.5q-12 5 -22.5 7.5t-20.5 3.5t-19 1h-17v-46h-129v326h129v-43h11.5t7.5 1l6 2t8 4q21 11 43.5 23.5t46.5 23.5t49.5 18.5t53.5 7.5q13 0 25.5 -4.5t22.5 -11.5l89 2zM755 411q15 0 36 8
t21 29q0 11 -11.5 17t-26.5 9q-16 3 -31.5 3.5t-23.5 0.5l-141 2h-84l72 -74h57zM551 302q6 3 14.5 7.5t17.5 10.5q8 6 14 13.5t6 16.5q0 8 -3.5 13t-9.5 9q-14 -18 -33 -28.5t-40 -10.5q-10 0 -18.5 1.5t-14.5 4.5q-7 2 -12 4t-8 2q-14 0 -28.5 -15t-14.5 -27
q0 -16 11 -23.5t25 -7.5q6 0 19.5 3.5t27.5 8.5q15 5 28 10t19 8v0zM591 239q12 4 24 15.5t12 26.5q0 9 -6 16t-14 7q-3 0 -6.5 -1t-6.5 -2q-3 -2 -6 -3t-5 -2q-15 -9 -43 -21.5t-47 -17.5q-2 -1 -5 -2l-6 -2t-5.5 -3t-2.5 -5q-1 -12 6 -19.5t20 -7.5q7 0 19.5 2t26.5 5
q13 3 25 7t20 7v0zM547 156q9 0 24.5 3.5t30.5 10.5q15 6 27 16t14 23q0 11 -5 19.5t-11 5.5q-15 -12 -41.5 -21.5t-66.5 -15.5q-6 -1 -11 -4.5t-5 -10.5q0 -17 15 -21.5t29 -4.5v0zM515 353q9 0 24 6t15 20q0 4 -3 9.5t-8 10.5l-8.5 8.5t-7.5 8.5l-47 49q-15 15 -27.5 22
t-33.5 7q-23 0 -46.5 -9t-47.5 -21t-47.5 -25t-44.5 -22q-5 -2 -8 -3t-6 -1t-8 0.5t-12 0.5v-187h19t21 -1q10 -2 21.5 -4.5t23.5 -8.5q47 -24 98.5 -28.5t98.5 -1.5v15q-19 3 -26 17t-7 31q-27 4 -35.5 16.5t-15.5 36.5q-2 0 -9 -1t-19 -1q-11 -1 -26.5 -0.5t-31.5 2.5
q-9 1 -20.5 4t-21.5 7q-11 3 -18.5 6t-7.5 4v6l7 8l7 -2q12 -4 27 -8t30 -5q15 -2 30 -1t27 2q13 1 21 2.5t9 1.5q6 9 17 20t19 17l-41 47l11 13l44 -37q12 -12 29 -21.5t35 -9.5v0zM172 183v272h-39v-272h39z" />
    <glyph glyph-name="female" unicode="&#x2640;" 
d="M483 154v-257h-64v257h-287v61h287v88q-45 6 -82 25t-64 47t-41.5 63.5t-14.5 75.5q0 44 18 82.5t49 67.5t73.5 46t90.5 17t90.5 -17t74.5 -46q31 -29 49.5 -67.5t18.5 -82.5q0 -39 -15 -74.5t-41 -62.5q-26 -28 -62.5 -47t-79.5 -26v-89h286v-61h-286zM616 514
q0 31 -13.5 59t-36.5 49q-22 21 -53 33t-65 12q-35 0 -65 -12t-52 -33q-23 -21 -35.5 -49t-12.5 -59q0 -32 12.5 -60t35.5 -49q22 -21 52 -32.5t65 -11.5q34 0 65 11.5t53 32.5q23 21 36.5 49t13.5 60v0z" />
    <glyph glyph-name="male" unicode="&#x2642;" 
d="M720 426l-240 210v-325q44 -7 81 -26t63 -47q27 -28 42 -63.5t15 -74.5q0 -44 -18.5 -83t-49.5 -68q-32 -29 -74.5 -45.5t-90.5 -16.5t-90.5 16.5t-73.5 45.5q-32 29 -50 68t-18 83q0 39 14.5 74t40.5 62q26 28 62.5 47t80.5 27v319l-232 -220l-46 46l310 287l318 -264z
M616 100q0 31 -13.5 59t-36.5 49q-22 21 -53 33t-65 12q-35 0 -65 -12t-53 -33q-22 -21 -35 -49t-13 -59q0 -32 13 -60t35 -49q23 -21 53 -32.5t65 -11.5q34 0 65 11.5t53 32.5q23 21 36.5 49t13.5 60v0z" />
    <glyph glyph-name="spade" unicode="&#x2660;" 
d="M794 216q0 -67 -41.5 -112.5t-107.5 -45.5q-47 0 -83.5 7.5t-62.5 24.5q1 -62 14.5 -99t39.5 -58q25 -20 64 -29t92 -13l9 -25h-537l9 25q52 4 90.5 13t64.5 29q26 21 40 58t16 99q-27 -17 -64 -24.5t-83 -7.5q-66 0 -107.5 45.5t-41.5 112.5q0 71 40.5 124t92.5 96
q67 54 126 138.5t86 207.5q25 -123 84.5 -207.5t127.5 -138.5q51 -43 91.5 -96t40.5 -124v0z" />
    <glyph glyph-name="uni2661" unicode="&#x2661;" 
d="M814 509q0 -42 -12.5 -81.5t-33.5 -76.5q-20 -37 -45.5 -71t-50.5 -63q-18 -21 -35 -40.5t-34 -38.5q-16 -20 -32 -38.5t-30 -37.5q-29 -36 -51.5 -76.5t-39.5 -102.5q-18 62 -41 102.5t-51 76.5q-15 19 -30.5 37.5t-32.5 38.5q-17 19 -34 38.5t-34 40.5q-26 29 -51.5 63
t-45.5 71q-21 37 -33.5 76.5t-10.5 81.5q0 37 14 69t38 55t56.5 36.5t70.5 13.5q57 0 106.5 -29t78.5 -87q30 57 79 86.5t106 29.5q37 0 69 -13t56 -37q24 -23 38 -55t16 -69v0zM756 495q0 60 -33 100t-103 37q-31 -2 -57 -19t-48 -44q-22 -28 -38.5 -63.5t-26.5 -74.5
q-12 39 -29 74.5t-39 63.5q-21 28 -47.5 45t-55.5 19q-69 3 -102.5 -37.5t-33.5 -100.5q0 -35 11.5 -68t29.5 -64t40.5 -59.5t44.5 -53.5q14 -18 28 -34.5t28 -31.5q13 -15 26 -29.5t25 -28.5q21 -25 39 -51t35 -58q17 31 35.5 57t39.5 52q11 14 23.5 28.5t25.5 29.5
q14 15 27.5 31.5t28.5 34.5q22 25 44.5 53.5t40.5 59.5t29.5 64t11.5 68v0z" />
    <glyph glyph-name="club" unicode="&#x2663;" 
d="M839 257q0 -38 -14.5 -71.5t-39.5 -59.5q-25 -25 -59.5 -40t-73.5 -15q-42 0 -84 13t-71 44q1 -69 15.5 -112.5t40.5 -69.5q26 -25 65 -37t91 -16l9 -25h-538l9 25q51 4 90 15.5t65 37.5q27 26 41 69.5t16 113.5q-29 -31 -70.5 -44t-80.5 -13q-41 0 -75.5 14.5
t-60.5 39.5q-25 25 -39.5 58.5t-14.5 72.5q0 33 12 65t34 57q22 26 53.5 43t69.5 21q12 1 24.5 0.5t29.5 -4.5q-13 21 -16.5 39.5t-3.5 46.5q0 39 16 72t42 58q27 24 60.5 38t69.5 14q34 0 67 -14t59 -38t42 -57t16 -72q0 -27 -5.5 -47.5t-15.5 -40.5q41 9 81.5 -1t72.5 -35
q31 -25 51 -62.5t20 -82.5v0z" />
    <glyph glyph-name="uni2664" unicode="&#x2664;" 
d="M794 216q0 -67 -41.5 -112.5t-107.5 -45.5q-40 0 -70.5 9t-53.5 24q1 -63 11 -100.5t32 -57.5q22 -21 57 -29.5t88 -12.5l9 -25h-537l9 25q52 4 87 12.5t57 29.5q22 20 32 57.5t12 100.5q-24 -15 -54.5 -24t-69.5 -9q-66 0 -107.5 45.5t-41.5 112.5q0 71 40.5 123.5
t92.5 95.5q68 54 126.5 139t85.5 208q25 -123 84 -208t128 -139q51 -43 91.5 -95.5t40.5 -123.5v0zM735 206q1 54 -19.5 91t-58.5 71q-5 4 -10.5 9t-11.5 9q-5 5 -10.5 9.5t-10.5 9.5q-55 45 -98.5 103.5t-65.5 111.5q-23 -53 -67 -111t-98 -103q-11 -9 -22.5 -18.5
t-21.5 -18.5q-11 -10 -21 -20t-19 -21q-18 -24 -28.5 -53.5t-8.5 -68.5q2 -50 35.5 -75.5t93.5 -20.5q33 3 73 28.5t67 74.5q0 -64 -1.5 -112t-7.5 -84q-5 -36 -15 -61.5t-26 -43.5h134q-17 18 -27 43.5t-15 61.5q-5 35 -6.5 83t-1.5 113q27 -49 67.5 -74.5t73.5 -28.5
q59 -6 92.5 20t34.5 76v0z" />
    </font>
</defs>
</svg>
